<svg width="53" height="53" viewBox="0 0 53 53" fill="none" xmlns="http://www.w3.org/2000/svg">
<path fill-rule="evenodd" clip-rule="evenodd" d="M19.9875 3.79479C19.9875 5.54488 20.5012 7.29227 21.5317 8.69983C22.0367 9.3896 22.7176 10.0527 23.5548 10.5491C21.5812 11.4539 20.0734 13.1997 19.4901 15.3278H14.4111V19.3834H19.526C19.7958 20.3028 20.2389 21.148 20.8176 21.8813L15.6784 27.9082L18.7644 30.5397L24.115 24.2648C24.258 24.3166 24.403 24.3642 24.55 24.4073L24.55 48.913H28.6055L28.6055 24.4433C28.8188 24.3848 29.0283 24.3171 29.2334 24.2405L34.6047 30.5397L37.6907 27.9082L32.5062 21.8282C33.0645 21.1073 33.4929 20.2806 33.7562 19.3834H38.9581V15.3278H33.7922C33.2089 13.1997 31.7011 11.4539 29.7274 10.5491C30.5646 10.0527 31.2455 9.3896 31.7505 8.69983C32.7811 7.29227 33.2948 5.54488 33.2948 3.79479H29.2392C29.2392 5.75464 28.076 7.34341 26.6411 7.34341C25.2062 7.34341 24.043 5.75464 24.043 3.79479H19.9875ZM26.6411 20.6507C28.496 20.6507 29.9996 19.1471 29.9996 17.2922C29.9996 15.4374 28.496 13.9337 26.6411 13.9337C24.7863 13.9337 23.2826 15.4374 23.2826 17.2922C23.2826 19.1471 24.7863 20.6507 26.6411 20.6507Z" fill="black"/>
<path fill-rule="evenodd" clip-rule="evenodd" d="M26.5 52C40.5833 52 52 40.5833 52 26.5C52 12.4167 40.5833 1 26.5 1C12.4167 1 1 12.4167 1 26.5C1 40.5833 12.4167 52 26.5 52ZM26.5 53C41.1355 53 53 41.1355 53 26.5C53 11.8645 41.1355 0 26.5 0C11.8645 0 0 11.8645 0 26.5C0 41.1355 11.8645 53 26.5 53Z" fill="black"/>
</svg>
