<svg width="53" height="53" viewBox="0 0 53 53" fill="none" xmlns="http://www.w3.org/2000/svg">
<path fill-rule="evenodd" clip-rule="evenodd" d="M26.5 52C40.5833 52 52 40.5833 52 26.5C52 12.4167 40.5833 1 26.5 1C12.4167 1 1 12.4167 1 26.5C1 40.5833 12.4167 52 26.5 52ZM26.5 53C41.1355 53 53 41.1355 53 26.5C53 11.8645 41.1355 0 26.5 0C11.8645 0 0 11.8645 0 26.5C0 41.1355 11.8645 53 26.5 53Z" fill="black"/>
<path fill-rule="evenodd" clip-rule="evenodd" d="M26.7989 2L22.676 6.45455L23.4804 10.7066C23.4804 10.7066 25.4935 10.3017 26.7989 10.3017C28.1043 10.3017 30.1173 10.7066 30.1173 10.7066L30.9218 6.45455L26.7989 2ZM14.7318 39.155L25.5922 51L20.3631 39.155L22.5754 37.3326L9 24.9814L17.3464 37.0289L14.7318 39.155ZM39.1676 39.155L28.3073 51L33.5363 39.155L31.324 37.3326L44.8994 24.9814L36.5531 37.0289L39.1676 39.155ZM26.8994 38.345L29.1117 37.1302C28.5754 35.5441 27.8246 32.0479 29.1117 30.7521C30.3989 29.4562 34.6089 27.1749 36.5531 26.1963C36.5866 26.905 36.533 28.5653 36.0503 29.5372C37.5788 28.4843 39.4358 26.8712 40.1732 26.1963C40.6089 21.168 38.5642 11.8202 26.8994 11.8202C15.2346 11.8202 13.2433 21.168 13.679 26.1963C14.4164 26.8712 16.2734 28.4843 17.8019 29.5372C17.3192 28.5653 17.2656 26.905 17.2991 26.1963C19.2433 27.1749 23.4533 29.4562 24.7405 30.7521C26.0276 32.0479 25.2768 35.5441 24.7405 37.1302L26.8994 38.345Z" fill="black"/>
</svg>
