<svg width="53" height="53" viewBox="0 0 53 53" fill="none" xmlns="http://www.w3.org/2000/svg">
<path fill-rule="evenodd" clip-rule="evenodd" d="M26.5 52C40.5833 52 52 40.5833 52 26.5C52 12.4167 40.5833 1 26.5 1C12.4167 1 1 12.4167 1 26.5C1 40.5833 12.4167 52 26.5 52ZM26.5 53C41.1355 53 53 41.1355 53 26.5C53 11.8645 41.1355 0 26.5 0C11.8645 0 0 11.8645 0 26.5C0 41.1355 11.8645 53 26.5 53Z" fill="black"/>
<path fill-rule="evenodd" clip-rule="evenodd" d="M31.6277 13.6395C33.8865 13.6395 35.7176 11.8084 35.7176 9.54959C35.7176 8.93299 35.5811 8.34825 35.3368 7.82393C39.6972 9.82897 43.2124 13.3569 45.201 17.7264C44.7703 17.5525 44.2995 17.4567 43.8064 17.4567C41.7484 17.4567 40.0801 19.125 40.0801 21.183C40.0801 23.241 41.7484 24.9094 43.8064 24.9094C45.0434 24.9094 46.1396 24.3066 46.8174 23.3788C46.9297 24.2366 46.9877 25.1115 46.9877 26C46.9877 29.4353 46.1214 32.6682 44.5953 35.4923C44.1365 34.2993 42.9797 33.4527 41.6252 33.4527C39.8683 33.4527 38.4441 34.8769 38.4441 36.6337C38.4441 38.3325 39.7759 39.7203 41.4524 39.8101C37.8116 43.621 32.6794 45.995 26.9927 45.995C16.051 45.995 7.16202 37.2063 7 26.3031L8.90613 30.6352C10.6633 33.2103 16.0316 38.3605 23.4479 38.3605C32.4439 38.3605 32.3679 29.5452 32.3555 28.1098L32.3549 28.0383L32.3548 27.9995C32.3548 26.9997 31.0824 22.1828 26.9925 22.1828C23.7206 22.1828 23.2662 24.9094 23.4479 26.2727C23.0238 26.3938 21.9756 26.6362 21.1758 26.6362C20.376 26.6362 19.0248 26.2121 18.4492 26L18.6537 25.627C19.7044 25.2178 20.4489 24.1962 20.4489 23.0008C20.4489 21.4447 19.1875 20.1833 17.6314 20.1833C16.365 20.1833 15.2938 21.0188 14.9388 22.1687L14.9046 22.1828V22.2891C14.8455 22.5164 14.814 22.7549 14.814 23.0008C14.814 23.2466 14.8455 23.4851 14.9046 23.7124V24.5458L9.54233 21.6375L7.64188 20.9464C9.88056 12.3503 17.6956 6.00503 26.9927 6.00503C27.7944 6.00503 28.5852 6.05222 29.3622 6.14396C28.2624 6.87704 27.5378 8.1287 27.5378 9.54959C27.5378 11.8084 29.3689 13.6395 31.6277 13.6395ZM16.2679 11.9126C15.5408 12.7003 14.0685 14.4211 13.9958 15.0028C13.923 15.5844 13.9655 16.6387 13.9958 17.0932C14.6017 16.3661 15.9589 14.821 16.5406 14.4575C16.686 14.0939 16.4194 12.6094 16.2679 11.9126Z" fill="black"/>
</svg>
