<svg width="53" height="53" viewBox="0 0 53 53" fill="none" xmlns="http://www.w3.org/2000/svg">
<path fill-rule="evenodd" clip-rule="evenodd" d="M49 26.5C49 39.463 38.5705 49.99 25.6449 50.1477V45.243H27.6075L27.7111 41.9254C28.9393 41.739 30.1203 41.4094 31.2369 40.9543L32.9995 43.7982L36.7388 41.6393L35.1368 38.6529C36.0776 37.8943 36.9285 37.0288 37.671 36.0747L40.686 37.6921L42.8449 33.9528L39.9061 32.1313C40.3316 31.0322 40.6362 29.8729 40.8036 28.6697L44.2897 28.5607V24.243L40.7749 24.1331C40.5938 22.9428 40.2782 21.7967 39.844 20.7108L42.8449 18.8509L40.686 15.1116L37.5623 16.7873C36.8263 15.863 35.9875 15.0242 35.0632 14.2881L36.7388 11.1644L32.9995 9.00552L31.1396 12.0064C30.0537 11.5723 28.9076 11.2567 27.7173 11.0755L27.6075 7.56073H25.6449V2.85223C38.5705 3.00991 49 13.537 49 26.5ZM25.6449 37.9028H24.9588L24.907 39.1416H23.8968L23.8363 37.9372L23.4219 37.9974L23.3097 39.1502H22.0663L21.9541 37.9458L21.3411 37.9544L20.9957 39.1588H20.279C20.279 39.1588 20.5294 35.7089 20.8057 35.253C20.9701 34.9799 20.5879 35.0712 20.0534 35.1988C19.4088 35.3527 18.5428 35.5595 18.1464 35.2444C17.7406 34.9347 14.7963 31.0718 16.9635 28.6371C17.1517 28.4287 16.9554 27.7536 16.6763 26.7945C16.149 24.9817 15.3265 22.154 16.2469 19.5434C17.8874 14.8719 22.7571 14.1406 24.8552 14.046C24.8552 14.046 25.0279 14.0374 25.3387 14.0374H25.356C25.4708 14.0374 25.5683 14.0386 25.6449 14.0401L25.6449 7.56073L23.6822 7.56072L23.5786 10.8783C22.3505 11.0647 21.1694 11.3943 20.0528 11.8494L18.2902 9.00551L14.5509 11.1644L16.1529 14.1508C15.2121 14.9094 14.3613 15.7749 13.6188 16.729L10.6037 15.1116L8.44478 18.8509L11.3836 20.6724C10.9581 21.7715 10.6535 22.9308 10.4861 24.134L7 24.243V28.5607L10.5148 28.6706C10.696 29.8608 11.0116 31.0069 11.4457 32.0928L8.44479 33.9528L10.6037 37.692L13.7274 36.0164C14.4635 36.9407 15.3023 37.7795 16.2266 38.5156L14.5509 41.6393L18.2902 43.7982L20.1501 40.7973C21.236 41.2314 22.3821 41.547 23.5724 41.7282L23.6822 45.243H25.6449V37.9028ZM25.6449 32.5261C25.7229 32.5796 25.7927 32.6354 25.8556 32.6935C26.7708 33.5624 26.7881 34.7755 26.7535 35.3605C26.7449 35.4466 26.6499 35.4724 26.5981 35.4121C26.4772 35.2573 26.2959 35.0766 26.0714 34.9132C25.9247 34.8035 25.778 34.7224 25.6449 34.6602L25.6449 37.9028L25.779 37.9028L25.8308 39.1416H26.8238L26.8842 37.9372L27.2987 37.9974L27.4109 39.1502H28.6542L28.7665 37.9458L29.3795 37.9544L29.7249 39.1589H30.4415C30.4415 39.1589 30.1825 35.709 29.9148 35.253C29.7498 34.9788 30.1358 35.0702 30.6738 35.1975C31.3177 35.3498 32.1791 35.5537 32.5742 35.2444C32.98 34.9261 35.9156 31.0632 33.7571 28.6371C33.5644 28.4241 33.7611 27.7387 34.0397 26.7672C34.5605 24.9519 35.3676 22.1382 34.4564 19.5434C32.8073 14.8719 27.9462 14.1406 25.8395 14.046C25.8395 14.046 25.7698 14.0427 25.6449 14.0401L25.6449 32.5261ZM25.6449 32.5261V34.6602C25.5585 34.6199 25.4779 34.5875 25.4066 34.5604C25.2253 34.6292 24.9835 34.7411 24.7418 34.9132C24.5086 35.0766 24.3359 35.2573 24.2151 35.4121C24.1633 35.4724 24.0596 35.438 24.0596 35.3605C24.0251 34.7669 24.051 33.571 24.9576 32.6935C25.0699 32.5817 25.2253 32.4784 25.4066 32.3838C25.4937 32.4292 25.5728 32.4767 25.6449 32.5261ZM21.832 29.9319C22.6523 30.1814 23.3516 30.4825 23.9129 30.7664C24.051 30.8438 24.0856 31.0245 23.9819 31.1449C23.697 31.4546 23.2912 31.816 22.7386 32.1171C21.4089 32.8484 20.0965 32.7365 19.5698 32.6677C19.5353 32.6591 19.5008 32.6505 19.4749 32.6333C18.3179 31.9192 17.8775 30.8008 18.2143 30.1039C18.2661 30.0007 18.456 29.648 19.0691 29.4329C19.1036 29.4243 19.1381 29.4157 19.1727 29.4157C19.9066 29.4845 20.8218 29.6221 21.832 29.9319ZM31.606 29.4415C31.5714 29.4243 31.5369 29.4157 31.5023 29.4243C30.7684 29.4931 29.8532 29.6308 28.843 29.9405C28.0228 30.1814 27.332 30.4825 26.7622 30.775C26.624 30.8438 26.5895 31.0245 26.6931 31.1449C26.978 31.446 27.3838 31.816 27.9364 32.1171C29.2575 32.8484 30.5699 32.7365 31.1052 32.6677C31.1397 32.6591 31.1656 32.6505 31.2002 32.6333C32.3658 31.9278 32.8061 30.8094 32.4608 30.1125C32.4089 30.0093 32.2104 29.6566 31.606 29.4415Z" fill="black"/>
</svg>
