<svg width="53" height="53" viewBox="0 0 53 53" fill="none" xmlns="http://www.w3.org/2000/svg">
<path d="M9.04506 22.0307C11.7366 22.427 13.6648 22.2411 15.8817 21.967C17.6337 21.7517 19.6646 21.7077 20.0757 22.4417C20.3302 22.8969 20.6042 23.0877 20.5504 23.6505C20.5063 24.1252 20.5993 24.3014 20.4672 24.6439C20.3595 24.9327 20.3204 24.7173 20.2372 25.0208C20.1442 25.3682 20.1148 25.4661 20.4476 26.0827C20.8391 26.8021 21.5145 27.6243 21.8619 27.9375C21.9402 28.006 22.0577 27.9277 22.0234 27.8298C21.7885 27.1496 21.1719 25.2899 21.5732 23.6162C21.7934 22.7109 22.6351 22.6032 22.7819 21.4777C22.9288 20.3619 19.6499 20.3178 19.048 20.3178C18.446 20.3178 15.0008 20.8219 12.1135 20.8855C9.22613 20.9491 7.61118 20.724 3.19208 19.7452C2.52652 19.5984 3.73529 21.3749 4.61128 21.5217C5.68302 21.7028 7.26861 21.7664 9.04506 22.0307V22.0307Z" fill="black"/>
<path d="M14.9519 23.7288C15.5049 23.6456 16.0677 23.5477 16.6402 23.4352C17.5896 23.2541 18.4999 23.0535 19.3612 22.8381C19.4199 22.8235 19.4591 22.7598 19.4444 22.7011C19.4199 22.613 19.371 22.5054 19.2878 22.4075C19.0774 22.1628 18.7201 22.0649 18.358 22.1481C17.8148 22.2068 17.252 22.2607 16.6794 22.3047C15.3923 22.3977 14.1689 22.4369 13.009 22.4271C13.0384 22.6081 13.1167 22.9115 13.3467 23.1856C13.9144 23.8609 14.8736 23.7386 14.9519 23.7288Z" fill="black"/>
<path d="M15.2748 25.4562C15.8425 25.2948 16.4249 25.1235 17.017 24.9326C18.123 24.5754 19.1703 24.1985 20.154 23.8119C20.1735 23.7679 20.2469 23.5819 20.1686 23.3666C20.105 23.1806 19.968 23.0877 19.9239 23.0583C19.1654 23.2687 18.3384 23.4645 17.4428 23.6309C16.2145 23.856 14.947 23.9783 13.9193 24.037C13.8801 24.1692 13.9633 24.4334 14.0661 24.7173C14.2374 25.1528 14.7169 25.4465 15.2748 25.4562V25.4562Z" fill="black"/>
<path d="M16.2292 26.8509C16.5668 26.7824 16.7479 26.7286 17.1296 26.6063C18.2699 26.2343 19.0627 25.6764 19.7135 25.1968C19.7625 25.0549 19.9191 24.8298 19.8604 24.5558C19.8457 24.4921 19.831 24.4334 19.8114 24.3796C18.9012 24.7809 17.893 25.1724 16.7773 25.5198C16.2145 25.696 15.6713 25.8477 15.1476 25.975C15.1427 26.0288 15.1134 26.3469 15.3434 26.6111C15.6125 26.9244 16.19 26.8558 16.2292 26.8509V26.8509Z" fill="black"/>
<path d="M16.6402 28.4072C16.836 28.5002 17.1247 28.4415 17.2324 28.4268C17.5456 28.2604 17.7707 28.1234 18.0986 27.9227C18.8571 27.4578 19.5227 26.9733 20.105 26.5035C20.1197 26.4595 20.1785 26.2637 20.0708 26.0484C19.9729 25.8526 19.8065 25.7743 19.7625 25.7548C19.2242 26.0924 18.5978 26.4399 17.8882 26.7678C17.2666 27.0516 16.5815 27.2278 16.0432 27.404C16.0236 27.8248 16.3172 28.2506 16.6402 28.4072V28.4072Z" fill="black"/>
<path d="M18.0888 29.7873C18.3335 29.8411 18.5439 29.8069 18.6761 29.7726C19.1018 29.4203 19.5569 29.019 20.0219 28.51C20.3497 28.1528 20.5406 27.8004 20.7902 27.4676C20.7706 27.3747 20.8 27.0517 20.5112 26.8657C20.4378 26.8168 20.3644 26.7874 20.3008 26.7678C19.9631 27.1104 19.5569 27.4774 19.0774 27.8445C18.4461 28.324 17.8392 28.6813 17.3058 28.9505C17.2275 28.9896 17.203 29.0875 17.2471 29.1609C17.3694 29.3517 17.6386 29.6845 18.0888 29.7873Z" fill="black"/>
<path d="M19.0284 30.1984C19.1703 30.2669 19.3954 30.3501 19.552 30.3843C19.7674 30.4284 20.0023 30.4969 20.0561 30.4724C20.1735 30.3941 20.3106 30.1054 20.4329 30.0075C21.1229 29.4398 21.4019 28.8036 21.5927 28.2898C21.5634 28.2262 21.5096 28.1381 21.4313 28.05C21.2795 27.8934 21.1132 27.8346 21.0251 27.8102C20.7119 28.3191 20.3791 28.696 19.8799 29.2587C19.6842 29.479 19.2633 29.8068 19.0088 30.0271C18.9501 30.076 18.9599 30.1641 19.0284 30.1984V30.1984Z" fill="black"/>
<path d="M21.0348 30.952C21.2795 30.9667 21.4459 30.815 21.4753 30.7905C21.5144 30.4773 21.6025 30.0711 21.8032 29.6307C21.9059 29.4007 22.0185 29.2049 22.131 29.0434C22.131 29.0288 22.1506 28.8673 22.0332 28.7645C21.9744 28.7155 21.9059 28.7009 21.8766 28.7009C21.7738 28.8624 21.72 29.0728 21.6123 29.2392C21.2795 29.7432 20.8929 30.169 20.5504 30.6094C20.6384 30.8052 20.8244 30.9373 21.0348 30.952Z" fill="black"/>
<path d="M6.44155 23.6603C8.14459 23.6113 8.87866 23.5037 10.9536 23.1611C11.3109 23.1024 11.859 23.0877 12.5294 23.0632C12.6028 23.0583 12.6567 22.9996 12.6518 22.9262C12.642 22.8528 12.6175 22.7647 12.5441 22.6864C12.4267 22.5543 12.2701 22.5396 12.2407 22.5396C9.92104 22.3487 7.59649 22.1579 5.27683 21.967C5.06639 21.9621 4.65531 21.9915 4.24424 22.246C4.13168 22.3194 4.0338 22.3928 3.9555 22.4711C3.91146 22.5102 3.90656 22.5787 3.93593 22.6277C4.02402 22.7745 4.14636 22.9458 4.30786 23.1171C4.56723 23.3862 4.83149 23.5526 5.02724 23.6505C5.33555 23.6603 5.82983 23.6799 6.44155 23.6603V23.6603Z" fill="black"/>
<path d="M11.3011 24.272C11.9422 24.0713 12.5539 23.8658 13.1509 23.6456C13.1509 23.6113 13.146 23.5428 13.102 23.4743C13.0335 23.3617 12.9209 23.3324 12.8916 23.3275C11.0075 23.7043 8.91291 23.9539 6.64219 23.9735C6.21643 23.9784 5.79556 23.9735 5.37959 23.9637C5.28171 24.0224 4.98319 24.2182 4.95383 24.5118C4.90978 24.9131 5.35512 25.4171 6.10387 25.515C7.71882 25.2459 9.46101 24.8446 11.3011 24.272Z" fill="black"/>
<path d="M13.5376 24.8005C13.5669 24.7662 13.6942 24.6047 13.6746 24.3698C13.6697 24.3062 13.655 24.2524 13.6354 24.2083C13.5963 24.1154 13.4935 24.0762 13.4005 24.1056C12.3435 24.4286 11.7073 24.7369 10.2734 25.0794C8.88356 25.4122 7.60139 25.6716 6.44645 25.8233C6.4073 25.8527 5.84451 26.1267 5.88366 26.5671C5.92771 27.037 6.63242 27.5802 7.41542 27.4578C9.09399 26.7433 10.7775 26.0141 12.4658 25.2654C12.8231 25.1186 13.1803 24.9571 13.5376 24.8005V24.8005Z" fill="black"/>
<path d="M13.6599 26.2442C13.8458 26.1267 14.0024 26.0191 14.1395 25.9261C14.2618 25.8429 14.2961 25.6716 14.2129 25.5493C14.1737 25.4905 14.1248 25.4318 14.0661 25.3731C13.9633 25.2752 13.8556 25.2116 13.7675 25.1724C13.6795 25.1333 13.5767 25.1431 13.4984 25.2018C12.9699 25.5786 12.5098 25.6912 12.182 25.8527C10.8606 26.5085 10.1363 26.5868 8.58991 27.3795C8.19351 27.5802 7.87052 27.7662 7.64051 27.9032C7.572 27.9472 7.52306 28.0157 7.50838 28.0989C7.48391 28.2555 7.52306 28.3534 7.53774 28.3926C7.66009 28.6764 8.09074 28.8379 8.58012 28.7156C8.59969 28.7107 8.61438 28.7009 8.63395 28.696C9.86719 28.2458 10.4153 27.8983 11.0564 27.6193C11.7415 27.3159 12.7203 26.8412 13.6599 26.2442V26.2442Z" fill="black"/>
<path d="M14.2961 27.7466C14.6337 27.5998 15.0546 27.448 15.1378 27.1055C15.1867 26.895 15.1231 26.5916 14.9176 26.3763C14.8197 26.2784 14.7169 26.2246 14.6484 26.1903C14.5261 26.2442 14.3254 26.3323 14.0856 26.4448C12.6615 27.1202 12.1037 27.5655 10.8802 28.1674C10.5866 28.3094 10.1461 28.5198 9.58335 28.7449C9.46101 28.8672 9.3093 29.0483 9.18206 29.293C9.02056 29.5964 8.95205 29.8754 8.92758 30.0662C9.04993 30.1396 9.23589 30.2326 9.47569 30.2864C9.83783 30.3647 10.1412 30.3158 10.3076 30.2767C11.6241 29.4985 11.6339 29.4888 11.6339 29.4888C13.9633 28.094 13.4494 28.1185 14.2961 27.7466V27.7466Z" fill="black"/>
<path d="M14.7855 29.523C15.2357 29.1168 15.5978 28.8624 15.8964 28.6568C15.9551 28.6177 15.9796 28.5443 15.9551 28.4806C15.9111 28.3485 15.8964 28.1528 15.8132 27.9962C15.73 27.8445 15.6419 27.7123 15.5587 27.6095C15.5049 27.541 15.407 27.5312 15.3434 27.5851C15.1721 27.727 14.9372 27.913 14.6533 28.1185C13.5082 28.9651 12.8916 29.2196 11.8247 29.9684C11.5164 30.1837 11.0809 30.5067 10.567 30.9373C10.5083 30.9863 10.4936 31.0744 10.5377 31.138C10.6404 31.2946 10.8166 31.5001 11.0907 31.6469C11.5262 31.8769 11.9618 31.8084 12.1281 31.784C13.1265 31.6078 13.4739 30.7073 14.7855 29.523V29.523Z" fill="black"/>
<path d="M16.8066 29.3615C16.8458 29.2196 16.8115 29.0728 16.7088 28.97C16.5668 28.8232 16.3711 28.8575 16.3564 28.8623C16.1998 29.0385 15.9404 29.3126 15.5979 29.6209C14.854 30.2913 14.4136 30.492 13.7137 31.0792C13.4544 31.2946 13.0482 31.5833 12.6322 32.0335C12.5686 32.1069 12.5686 32.2146 12.6371 32.288C12.7301 32.3859 12.8671 32.5033 13.0286 32.5718C13.3173 32.6991 13.5816 32.6648 13.6795 32.6453C14.0172 32.4201 14.3793 32.1559 14.7414 31.8378C15.7055 30.9911 16.3662 30.0956 16.8066 29.3615Z" fill="black"/>
<path d="M17.5994 30.8199C17.712 30.6779 17.8392 30.5262 17.9322 30.4235C17.9762 30.3745 17.9616 30.3011 17.9077 30.2669C17.8343 30.2277 17.7462 30.1886 17.6483 30.1543C17.433 30.0809 17.2422 30.0662 17.11 30.0662C16.5962 30.4577 16.0481 30.9128 15.4951 31.4463C15.1623 31.7693 14.854 32.0923 14.575 32.4006C14.6631 32.5131 14.8736 32.7431 15.221 32.8802C15.4804 32.978 15.7104 32.9829 15.8474 32.978C16.1606 32.7578 16.3809 32.5376 16.513 32.3859C16.9779 31.8818 16.8213 31.8182 17.5994 30.8199V30.8199Z" fill="black"/>
<path d="M19.0088 30.6535C18.7593 30.5165 18.5244 30.5263 18.4167 30.5361C18.128 30.908 17.8392 31.3044 17.5456 31.735C17.1394 32.337 16.7871 32.9193 16.4787 33.4723C16.6011 33.5164 16.7528 33.5604 16.9339 33.5751C17.3058 33.6143 17.6092 33.536 17.7903 33.4723C17.9126 33.3108 18.035 33.1396 18.1573 32.9585C18.6418 32.2391 19.0088 31.5295 19.2829 30.8786C19.234 30.815 19.141 30.7269 19.0088 30.6535V30.6535Z" fill="black"/>
<path d="M19.4738 33.9862C19.6401 33.7317 19.8065 33.5751 19.9729 33.2766C20.2959 32.704 20.57 32.1461 20.8 31.6224C20.8244 31.5637 20.8147 31.4952 20.7706 31.4463C20.6874 31.3484 20.5553 31.226 20.3742 31.1282C20.2176 31.045 20.0708 31.0009 19.9533 30.9765C19.875 30.9618 19.7918 31.0058 19.7625 31.0841C19.6352 31.4218 19.5129 31.691 19.415 31.872C19.0578 32.5718 18.769 32.8655 18.4461 33.6093C18.3775 33.7708 18.3237 33.9127 18.2846 34.0253C18.2552 34.1085 18.2943 34.1966 18.3726 34.2308C18.7739 34.407 19.1948 34.1476 19.4003 34.04C19.4346 34.0302 19.4591 34.0106 19.4738 33.9862V33.9862Z" fill="black"/>
<path d="M21.5047 31.5295C21.4313 31.6225 21.3236 31.7595 21.2013 31.9308C21.0398 32.1608 20.5553 32.8655 19.9778 34.4266C19.8408 34.7936 19.5814 35.3662 19.4199 35.9388C19.3906 36.0465 19.4835 36.1492 19.5912 36.1248C19.7184 36.0954 19.8555 36.0954 19.9436 36.0171C21.8277 34.2896 22.1653 32.9291 22.2338 32.5327C22.229 32.425 22.1947 32.1412 21.9794 31.872C21.8032 31.6665 21.6026 31.5686 21.5047 31.5295V31.5295Z" fill="black"/>
<path d="M49.8055 20.0291C45.3864 21.0078 43.7715 21.2329 40.8841 21.1693C37.9968 21.1057 34.5564 20.6016 33.9496 20.6016C33.3477 20.6016 30.0688 20.6457 30.2156 21.7615C30.3625 22.887 31.2042 22.9947 31.4244 23.9001C31.8257 25.5737 31.2091 27.4334 30.9742 28.1136C30.9399 28.2115 31.0574 28.2898 31.1357 28.2213C31.4831 27.9032 32.1585 27.0859 32.55 26.3665C32.8828 25.7499 32.7947 25.6667 32.7604 25.3046C32.7262 24.9473 32.6234 25.0697 32.5304 24.9278C32.3298 24.6194 32.4961 24.409 32.4472 23.9343C32.3934 23.3764 32.6674 23.1807 32.9219 22.7255C33.3281 21.9915 35.3639 22.0355 37.1159 22.2508C39.3328 22.5249 41.2609 22.7158 43.9525 22.3145C45.729 22.0502 47.3146 21.9866 48.3912 21.8104C49.2672 21.6587 50.476 19.8822 49.8055 20.0291V20.0291Z" fill="black"/>
<path d="M36.3573 23.7189C36.9348 23.8266 37.4976 23.9245 38.0457 24.0126C38.124 24.0224 39.0832 24.1447 39.6508 23.4645C39.8809 23.1855 39.9592 22.887 39.9885 22.7059C38.8287 22.7157 37.6052 22.6766 36.3182 22.5836C35.7456 22.5395 35.1828 22.4906 34.6396 22.427C34.2775 22.3487 33.9202 22.4417 33.7098 22.6864C33.6266 22.7842 33.5776 22.8919 33.5532 22.98C33.5385 23.0387 33.5728 23.1023 33.6364 23.117C34.4977 23.3372 35.4079 23.5379 36.3573 23.7189V23.7189Z" fill="black"/>
<path d="M32.824 23.6505C32.7506 23.8658 32.824 24.0518 32.8387 24.0958C33.8224 24.4824 34.8696 24.8641 35.9756 25.2165C36.5678 25.4073 37.1501 25.5786 37.7178 25.7401C38.2806 25.7303 38.7553 25.4367 38.9217 25.0012C39.0294 24.7173 39.1077 24.4531 39.0685 24.3209C38.0408 24.2622 36.7733 24.1399 35.545 23.9147C34.6494 23.7532 33.8224 23.5526 33.0638 23.3422C33.0247 23.3715 32.8925 23.4645 32.824 23.6505Z" fill="black"/>
<path d="M37.6542 26.8951C37.8842 26.6308 37.8548 26.3127 37.8499 26.2589C37.3263 26.1268 36.7782 25.9799 36.2203 25.8038C35.1045 25.4563 34.0964 25.0648 33.1862 24.6635C33.1666 24.7173 33.147 24.7761 33.1372 24.8397C33.0834 25.1137 33.2351 25.334 33.284 25.4808C33.9349 25.9653 34.7326 26.5183 35.868 26.8902C36.2497 27.0174 36.4258 27.0664 36.7684 27.1349C36.8076 27.1398 37.385 27.2083 37.6542 26.8951V26.8951Z" fill="black"/>
<path d="M33.2351 26.0338C33.191 26.0534 33.0198 26.1317 32.9268 26.3274C32.824 26.5427 32.8827 26.7434 32.8925 26.7825C33.4749 27.2523 34.1404 27.7368 34.899 28.2017C35.2269 28.4024 35.452 28.5394 35.7652 28.7058C35.8728 28.7205 36.1616 28.7841 36.3573 28.6862C36.6803 28.5296 36.974 28.1039 36.9544 27.6781C36.4161 27.5019 35.7309 27.3257 35.1094 27.0419C34.3949 26.714 33.7734 26.3666 33.2351 26.0338V26.0338Z" fill="black"/>
<path d="M32.4815 27.1398C32.1976 27.3257 32.2221 27.6487 32.2025 27.7417C32.4521 28.0745 32.6381 28.4268 32.9709 28.7841C33.4358 29.293 33.8909 29.6943 34.3167 30.0467C34.4488 30.0809 34.6592 30.1201 34.9039 30.0614C35.3541 29.9586 35.6233 29.6307 35.7456 29.4301C35.7897 29.3566 35.7652 29.2588 35.6869 29.2196C35.1535 28.9505 34.5467 28.5932 33.9154 28.1136C33.4358 27.7466 33.0296 27.3796 32.6919 27.037C32.6332 27.0615 32.5598 27.0908 32.4815 27.1398V27.1398Z" fill="black"/>
<path d="M31.5712 28.3339C31.488 28.417 31.4391 28.5051 31.4097 28.5736C31.6006 29.0875 31.8795 29.7237 32.5695 30.2914C32.6919 30.3892 32.824 30.6829 32.9464 30.7563C33.0051 30.7808 33.24 30.7122 33.4504 30.6682C33.607 30.6339 33.8321 30.5507 33.974 30.4822C34.0426 30.448 34.0523 30.3599 33.9985 30.3109C33.744 30.0907 33.3232 29.7628 33.1274 29.5426C32.6331 28.9798 32.3004 28.603 31.9823 28.0941C31.8893 28.1136 31.718 28.1773 31.5712 28.3339V28.3339Z" fill="black"/>
<path d="M31.1259 28.9847C31.0965 28.9896 31.028 28.9994 30.9693 29.0484C30.8518 29.1511 30.8714 29.3126 30.8714 29.3273C30.979 29.4888 31.0965 29.6846 31.1993 29.9146C31.3999 30.355 31.488 30.7612 31.5272 31.0744C31.5565 31.0989 31.7229 31.2555 31.9676 31.2359C32.178 31.2212 32.364 31.0891 32.457 30.8933C32.1193 30.4529 31.7327 30.0271 31.395 29.5231C31.2825 29.3567 31.2237 29.1462 31.1259 28.9847Z" fill="black"/>
<path d="M48.7484 22.5249C48.3422 22.2704 47.9263 22.2459 47.7158 22.2459C45.3962 22.4368 43.0716 22.6277 40.752 22.8185C40.7226 22.8185 40.566 22.8332 40.4485 22.9653C40.3751 23.0436 40.3507 23.1366 40.3409 23.2051C40.3311 23.2785 40.3898 23.3373 40.4632 23.3422C41.1337 23.3666 41.6769 23.3813 42.039 23.44C44.1189 23.7826 44.8481 23.8903 46.5511 23.9392C47.1628 23.9588 47.662 23.9392 47.9605 23.9245C48.1514 23.8266 48.4205 23.6602 48.6799 23.3911C48.8463 23.2198 48.9638 23.0485 49.0518 22.9017C49.0812 22.8528 49.0763 22.7843 49.0323 22.7451C48.9589 22.6766 48.8659 22.5983 48.7484 22.5249V22.5249Z" fill="black"/>
<path d="M47.6179 24.2523C47.2069 24.2621 46.786 24.267 46.3553 24.2621C44.0797 24.2426 41.9852 23.9881 40.106 23.6161C40.0815 23.621 39.9689 23.6504 39.8955 23.763C39.8515 23.8315 39.8466 23.9 39.8466 23.9342C40.4387 24.1496 41.0554 24.36 41.6964 24.5607C43.5365 25.1332 45.2787 25.5296 46.8937 25.8086C47.6424 25.7107 48.0877 25.2066 48.0437 24.8053C48.0143 24.5019 47.7158 24.3111 47.6179 24.2523Z" fill="black"/>
<path d="M46.5511 26.112C45.3913 25.9554 44.1091 25.6961 42.7241 25.3682C41.2952 25.0256 40.659 24.7124 39.597 24.3943C39.4991 24.365 39.4013 24.4041 39.3621 24.4971C39.3425 24.5411 39.3279 24.5999 39.323 24.6586C39.3034 24.8886 39.4306 25.055 39.46 25.0892C39.8172 25.2507 40.1794 25.4073 40.5366 25.5688C42.2299 26.3176 43.9133 27.0468 45.587 27.7613C46.37 27.8787 47.0747 27.3404 47.1139 26.8706C47.1579 26.4106 46.5902 26.1365 46.5511 26.112V26.112Z" fill="black"/>
<path d="M45.357 28.1821C45.1319 28.0451 44.804 27.864 44.4076 27.6585C42.8563 26.8657 42.1369 26.7874 40.8156 26.1316C40.4877 25.9701 40.0277 25.8576 39.4992 25.4807C39.4209 25.4269 39.3181 25.4122 39.23 25.4514C39.1419 25.4905 39.0343 25.5541 38.9315 25.652C38.8728 25.7108 38.8238 25.7695 38.7847 25.8282C38.7015 25.9505 38.7357 26.1218 38.8581 26.205C38.9902 26.298 39.1517 26.4057 39.3377 26.5231C40.2822 27.1202 41.2609 27.5949 41.9412 27.8934C42.5774 28.1723 43.1255 28.5198 44.3636 28.97C44.3832 28.9749 44.3979 28.9847 44.4174 28.9896C44.9068 29.1168 45.3326 28.9504 45.4598 28.6666C45.4745 28.6275 45.5136 28.5247 45.4892 28.373C45.4745 28.2947 45.4256 28.2262 45.357 28.1821Z" fill="black"/>
<path d="M43.4093 29.0336C42.8465 28.8085 42.4061 28.603 42.1124 28.4562C40.889 27.8542 40.3311 27.404 38.907 26.7335C38.6672 26.621 38.4666 26.5329 38.3442 26.4791C38.2757 26.5084 38.1729 26.5623 38.0751 26.665C37.8695 26.8755 37.8059 27.1838 37.8548 27.3942C37.938 27.7368 38.3638 27.8934 38.6966 28.0353C39.5481 28.4023 39.0342 28.3779 41.3588 29.7824C41.3588 29.7824 41.3735 29.7922 42.685 30.5703C42.8514 30.6094 43.1548 30.6633 43.517 30.5801C43.7568 30.5262 43.9427 30.4333 44.0651 30.3598C44.0357 30.169 43.9721 29.89 43.8106 29.5866C43.6834 29.337 43.5316 29.156 43.4093 29.0336Z" fill="black"/>
<path d="M41.1679 30.2473C40.106 29.5034 39.4845 29.244 38.3393 28.3974C38.0555 28.187 37.8206 28.001 37.6493 27.864C37.5808 27.8101 37.4829 27.8199 37.434 27.8884C37.3508 27.9961 37.2627 28.1234 37.1795 28.2751C37.0914 28.4317 37.0816 28.6323 37.0376 28.7595C37.0131 28.8232 37.0376 28.8966 37.0963 28.9357C37.3948 29.1413 37.7569 29.3957 38.2072 29.8019C39.5187 30.9911 39.8662 31.8867 40.8596 32.0531C41.0309 32.0824 41.4616 32.1461 41.8971 31.916C42.1712 31.7741 42.3473 31.5637 42.4501 31.4071C42.4941 31.3435 42.4795 31.2554 42.4207 31.2064C41.9167 30.7807 41.4762 30.4577 41.1679 30.2473V30.2473Z" fill="black"/>
<path d="M39.2838 31.3582C38.584 30.7709 38.1436 30.5703 37.3997 29.8998C37.0572 29.5915 36.7978 29.3175 36.6412 29.1413C36.6265 29.1364 36.4308 29.107 36.2888 29.249C36.1861 29.3517 36.1518 29.4986 36.191 29.6405C36.6314 30.3745 37.2921 31.2701 38.2561 32.1118C38.6183 32.4299 38.9804 32.6942 39.3181 32.9193C39.416 32.9389 39.6802 32.9731 39.969 32.8459C40.1305 32.7774 40.2675 32.6599 40.3605 32.5621C40.429 32.4936 40.429 32.381 40.3654 32.3076C39.9494 31.8623 39.5432 31.5735 39.2838 31.3582Z" fill="black"/>
<path d="M37.4976 31.7399C36.9446 31.2065 36.3965 30.7465 35.8827 30.3599C35.7505 30.3599 35.5597 30.3746 35.3443 30.448C35.2465 30.4822 35.1584 30.5214 35.085 30.5605C35.0262 30.5899 35.0165 30.6682 35.0605 30.7171C35.1535 30.815 35.2807 30.9667 35.3933 31.1135C36.1714 32.1119 36.0197 32.1755 36.4748 32.6844C36.6118 32.8362 36.8272 33.0564 37.1404 33.2766C37.2774 33.2815 37.5074 33.2766 37.7668 33.1787C38.1142 33.0466 38.3247 32.8166 38.4127 32.6991C38.1387 32.381 37.8353 32.0629 37.4976 31.7399V31.7399Z" fill="black"/>
<path d="M34.576 30.8198C34.4732 30.81 34.2334 30.8051 33.9839 30.9373C33.8517 31.0107 33.7636 31.0939 33.7049 31.1624C33.979 31.8132 34.346 32.5228 34.8305 33.2422C34.9528 33.4233 35.0752 33.5946 35.1975 33.7561C35.3786 33.8197 35.682 33.898 36.0539 33.8589C36.235 33.8393 36.3867 33.8001 36.5091 33.7561C36.2056 33.2031 35.8533 32.6207 35.4422 32.0188C35.1535 31.5881 34.8647 31.1917 34.576 30.8198V30.8198Z" fill="black"/>
<path d="M34.5369 33.8931C34.2188 33.1493 33.9251 32.8557 33.5679 32.1558C33.4749 31.9699 33.3477 31.7056 33.2204 31.3679C33.1911 31.2896 33.1128 31.2456 33.0296 31.2603C32.9121 31.2847 32.7653 31.3239 32.6087 31.412C32.4276 31.5099 32.2955 31.6371 32.2123 31.7301C32.1683 31.779 32.1585 31.8475 32.1829 31.9063C32.4178 32.4348 32.687 32.9878 33.01 33.5604C33.1764 33.854 33.3428 34.0155 33.5092 34.27C33.5238 34.2944 33.5483 34.314 33.5728 34.3287C33.7734 34.4315 34.1992 34.6957 34.6005 34.5195C34.6788 34.4853 34.7179 34.3923 34.6886 34.314C34.6592 34.1917 34.6054 34.0497 34.5369 33.8931V33.8931Z" fill="black"/>
<path d="M33.0198 34.7104C32.4423 33.1493 31.9578 32.4446 31.7963 32.2146C31.674 32.0433 31.5663 31.9014 31.4929 31.8133C31.3901 31.8524 31.1944 31.9503 31.028 32.1559C30.8127 32.425 30.7784 32.7089 30.7735 32.8165C30.842 33.2129 31.1748 34.5783 33.0638 36.3009C33.147 36.3792 33.2889 36.3792 33.4162 36.4086C33.5238 36.433 33.6168 36.3303 33.5875 36.2226C33.4211 35.65 33.1568 35.0775 33.0198 34.7104V34.7104Z" fill="black"/>
<path d="M23.3447 18.2673C23.3447 18.3407 23.4035 18.3994 23.4769 18.4043L24.7639 18.5413L24.8471 19.3292C24.8618 19.4809 24.9205 19.7012 25.0184 19.9312C25.0918 20.1025 25.2778 20.445 25.2778 20.445L25.2729 20.8806C25.6497 20.7974 25.9874 20.7631 26.2419 20.7484C26.2419 20.7484 26.3251 20.7435 26.4768 20.7435C26.4768 20.7435 26.4768 20.7435 26.4817 20.7435C26.4817 20.7435 26.4817 20.7435 26.4866 20.7435C26.6334 20.7435 26.7215 20.7484 26.7215 20.7484C26.9662 20.7631 27.294 20.7925 27.6562 20.8708L27.6513 20.4548C27.6513 20.4548 27.8372 20.1122 27.9107 19.941C28.0085 19.7061 28.0673 19.4907 28.0819 19.339L28.1651 18.5511L29.4522 18.4141C29.5256 18.4092 29.5843 18.3505 29.5843 18.2771V17.7534C29.5843 17.7045 29.5452 17.6654 29.4962 17.6654C28.7817 17.6458 27.989 17.5675 27.2598 17.543C27.0249 17.0292 27.0298 15.8938 27.0445 16.3636C26.9955 14.9591 27.0493 14.1908 27.2059 13.0456L27.4996 13.0505C27.5583 13.0505 27.6121 13.0016 27.6121 12.9428V11.8124C27.6121 11.7536 27.5681 11.7096 27.5143 11.7047C27.3919 11.6949 27.2696 11.6851 27.1472 11.6753C27.1423 11.6166 27.1032 11.367 26.8781 11.1811C26.7312 11.0587 26.5746 11.0294 26.4866 11.0196V11C26.418 11.0049 26.2321 11.0245 26.0608 11.1664C25.8357 11.3475 25.7965 11.6019 25.7916 11.6607C25.6693 11.6705 25.547 11.6802 25.4246 11.69C25.3708 11.6949 25.3267 11.7439 25.3267 11.7977V12.9282C25.3267 12.9869 25.3757 13.0358 25.4393 13.0358L25.7329 13.0309C25.8895 14.181 25.9433 14.9493 25.8944 16.3489C25.9091 15.8791 25.914 17.0194 25.6791 17.5283C24.9499 17.5528 24.162 17.6262 23.4426 17.6507C23.3937 17.6507 23.3545 17.6898 23.3545 17.7388V18.2673H23.3447Z" fill="black"/>
<path d="M27.7149 34.916H25.2044L25.1848 38.6744C25.1701 39.2665 25.3952 40.6613 25.6644 41.6205C25.9042 42.4622 26.1587 42.6286 26.4376 43.0592V43.1277C26.4474 43.118 26.4523 43.1033 26.4621 43.0935C26.467 43.1033 26.4719 43.1082 26.4768 43.118V43.0739C26.7606 42.6384 27.0151 42.4769 27.25 41.6351C27.5191 40.676 27.7442 39.2812 27.7296 38.6891L27.7149 34.916Z" fill="black"/>
<path d="M30.5093 28.9113C30.2499 28.5834 31.5321 26.1365 30.8567 23.9783C30.0639 21.4433 27.7198 21.0469 26.7019 20.998C26.7019 20.998 26.6138 20.9931 26.467 20.9931C26.467 20.9931 26.467 20.9931 26.4621 20.9931C26.4621 20.9931 26.4621 20.9931 26.4572 20.9931C26.3104 20.9931 26.2223 20.998 26.2223 20.998C25.2093 21.0518 22.8603 21.4433 22.0724 23.9783C21.397 26.1414 22.6792 28.5834 22.4198 28.9113C21.3775 30.2326 22.7967 32.3271 22.9875 32.4984C23.335 32.8116 24.4459 32.1803 24.2697 32.5033C24.1376 32.7529 24.0152 34.6223 24.0152 34.6223H24.3578L24.5242 33.9715L24.8178 33.9666L24.8765 34.6223H25.4785L25.5372 33.9959L25.7378 33.9666L25.7672 34.6223H26.2517L26.2761 33.9519H26.6725L26.697 34.6223H27.1815L27.2109 33.9666L27.4115 33.9959L27.4702 34.6223H28.0526L28.1113 33.9666L28.4049 33.9715L28.5713 34.6223H28.9139C28.9139 34.6223 28.7916 32.7529 28.6594 32.5033C28.4832 32.1754 29.5941 32.8067 29.9416 32.4984C30.1325 32.3271 31.5517 30.2326 30.5093 28.9113ZM25.8161 30.2815C25.6791 30.4479 25.4833 30.6486 25.2191 30.8101C24.578 31.2065 23.9467 31.1477 23.6873 31.1086C23.6726 31.1086 23.6531 31.0988 23.6384 31.089C23.0805 30.7024 22.8652 30.0956 23.0316 29.7187C23.056 29.66 23.149 29.4692 23.4426 29.3517C23.4573 29.3468 23.4769 29.3419 23.4916 29.3419C23.8439 29.3762 24.2844 29.4545 24.7737 29.6209C25.1701 29.753 25.5029 29.9194 25.777 30.076C25.8504 30.1151 25.87 30.213 25.8161 30.2815V30.2815ZM27.157 32.5669C27.157 32.611 27.1081 32.6257 27.0836 32.5914C27.0249 32.5082 26.9417 32.4103 26.8291 32.3222C26.7117 32.2293 26.5991 32.1656 26.5061 32.1314C26.4181 32.1656 26.3055 32.2244 26.1832 32.3222C26.0706 32.4103 25.9874 32.5082 25.9287 32.5914C25.9042 32.6257 25.8553 32.6061 25.8553 32.5669C25.8357 32.2488 25.8504 31.5931 26.2908 31.1184C26.3495 31.0547 26.423 31.0009 26.5061 30.952C26.5893 31.0058 26.6676 31.0596 26.7215 31.1184C27.1619 31.5931 27.1766 32.2488 27.157 32.5669V32.5669ZM29.3005 31.089C29.2858 31.0988 29.2711 31.1037 29.2516 31.1086C28.9971 31.1477 28.3609 31.2016 27.7198 30.8101C27.4555 30.6486 27.2598 30.4479 27.1228 30.2815C27.0738 30.2179 27.0885 30.12 27.157 30.0809C27.4311 29.9243 27.7687 29.7628 28.1603 29.6258C28.6496 29.4594 29.0901 29.3811 29.4424 29.3468C29.4571 29.3468 29.4767 29.3468 29.4914 29.3566C29.785 29.4741 29.878 29.6649 29.9024 29.7236C30.0737 30.0956 29.8584 30.7024 29.3005 31.089V31.089Z" fill="black"/>
</svg>
