<svg width="53" height="53" viewBox="0 0 53 53" fill="none" xmlns="http://www.w3.org/2000/svg">
<path d="M21.5635 36.8463C22.1537 35.6357 22.2506 33.8861 22.2665 33.3439C22.2697 33.2362 22.2296 33.1328 22.1505 33.0601C21.827 32.763 21.4072 32.5317 20.9826 32.2978C20.045 31.7812 19.0839 31.2517 19.0839 29.9714C19.0839 28.7938 19.9513 28.2397 20.8411 27.6712C21.778 27.0727 22.7397 26.4584 22.7397 25.0836C22.7397 23.3185 20.5656 22.4651 18.3052 21.5777C17.133 21.1176 15.9376 20.6483 15.0102 20.0381C13.1186 18.7934 10.773 14.2181 9.46256 11.2516C9.29769 10.8784 8.77583 10.9318 8.71922 11.3363C8.53015 12.6869 8.41284 14.5925 8.74303 16.254C9.31752 19.1446 10.2054 20.406 11.511 22.0878C9.22145 21.001 7.68226 19.5546 6.77524 18.5814C6.5549 18.345 6.19796 18.4377 6.18638 18.7616C6.14751 19.8493 6.41759 21.6349 7.07179 23.0339C7.74029 24.4634 9.8572 25.7318 10.8321 26.1873C10.8843 26.345 10.665 26.6603 9.36975 26.6603C8.53629 26.6603 6.93004 25.7608 5.6031 24.942C5.21371 24.7017 4.81344 25.137 5.09395 25.4998C6.33531 27.105 7.97911 29.1173 8.74303 29.7086C9.82934 30.5496 11.5284 30.7598 12.2422 30.7598C12.3989 30.935 12.2631 31.2854 10.4665 31.2854C9.35718 31.2854 7.83237 30.7844 6.62729 30.3393C6.21132 30.1856 5.8666 30.71 6.15702 31.0467C6.5939 31.5534 7.05568 32.1204 7.38515 32.5993C8.32522 33.9658 10.8321 34.9644 11.511 34.9644C11.5865 34.9644 11.6613 34.965 11.7361 34.9657C12.3344 34.9709 12.9327 34.976 13.8612 34.649C12.672 36.0168 10.2003 36.9307 8.33502 37.4432C7.894 37.5643 7.90746 38.1822 8.36159 38.235C10.6094 38.4964 13.716 38.647 15.0102 38.2229C16.3492 37.7842 17.5211 36.9157 18.3709 36.286C18.9464 35.8595 19.3742 35.5425 19.6061 35.5425C19.9697 35.5425 20.2809 35.97 20.8088 36.695C20.8517 36.754 20.8961 36.8149 20.942 36.8778C21.1076 37.1042 21.4404 37.0987 21.5635 36.8463Z" fill="black"/>
<path d="M31.4365 36.8463C30.8463 35.6357 30.7494 33.8861 30.7335 33.3439C30.7303 33.2362 30.7704 33.1328 30.8495 33.0601C31.173 32.763 31.5928 32.5317 32.0174 32.2978C32.955 31.7812 33.9161 31.2517 33.9161 29.9714C33.9161 28.7938 33.0487 28.2397 32.1589 27.6712C31.222 27.0727 30.2603 26.4584 30.2603 25.0836C30.2603 23.3185 32.4344 22.4651 34.6948 21.5777C35.867 21.1176 37.0624 20.6483 37.9898 20.0381C39.8814 18.7934 42.227 14.2181 43.5374 11.2516C43.7023 10.8784 44.2242 10.9318 44.2808 11.3363C44.4699 12.6869 44.5872 14.5925 44.257 16.254C43.6825 19.1446 42.7946 20.406 41.489 22.0878C43.7786 21.001 45.3177 19.5546 46.2248 18.5814C46.4451 18.345 46.802 18.4377 46.8136 18.7616C46.8525 19.8493 46.5824 21.6349 45.9282 23.0339C45.2597 24.4634 43.1428 25.7318 42.1679 26.1873C42.1157 26.345 42.335 26.6603 43.6303 26.6603C44.4637 26.6603 46.07 25.7608 47.3969 24.942C47.7863 24.7017 48.1866 25.137 47.906 25.4998C46.6647 27.105 45.0209 29.1173 44.257 29.7086C43.1707 30.5496 41.4716 30.7598 40.7578 30.7598C40.6011 30.935 40.7369 31.2854 42.5335 31.2854C43.6428 31.2854 45.1676 30.7844 46.3727 30.3393C46.7887 30.1856 47.1334 30.71 46.843 31.0467C46.4061 31.5534 45.9443 32.1204 45.6149 32.5993C44.6748 33.9658 42.1679 34.9644 41.489 34.9644C41.4135 34.9644 41.3387 34.965 41.2639 34.9657C40.6656 34.9709 40.0673 34.976 39.1388 34.649C40.328 36.0168 42.7997 36.9307 44.665 37.4432C45.106 37.5643 45.0925 38.1822 44.6384 38.235C42.3906 38.4964 39.284 38.647 37.9898 38.2229C36.6508 37.7842 35.4789 36.9157 34.6291 36.286C34.0536 35.8595 33.6258 35.5425 33.3939 35.5425C33.0303 35.5425 32.7191 35.97 32.1912 36.695C32.1483 36.754 32.1039 36.8149 32.058 36.8778C31.8924 37.1042 31.5596 37.0987 31.4365 36.8463Z" fill="black"/>
<path d="M31.4093 42.0596L26.9841 23.9624C26.8535 23.4284 26.0988 23.4294 25.9695 23.9637L21.5907 42.0596C21.5907 44.7881 23.7887 47 26.5 47C29.2113 47 31.4093 44.7881 31.4093 42.0596Z" fill="black"/>
</svg>
