<svg width="53" height="53" viewBox="0 0 53 53" fill="none" xmlns="http://www.w3.org/2000/svg">
<path fill-rule="evenodd" clip-rule="evenodd" d="M29.8505 46.6863C29.787 46.5496 29.7284 46.3054 29.6356 45.778C29.6014 45.5632 29.6014 45.4802 29.6453 45.4558C29.7137 45.4118 29.66 45.3093 29.572 45.3093C29.5281 45.3093 29.4988 45.1725 29.4743 44.8356C29.4548 44.5524 29.4108 44.3131 29.3717 44.2496C29.3326 44.191 29.2984 44.0543 29.2984 43.9468C29.2984 43.8394 29.274 43.7466 29.2447 43.7369C29.2007 43.7222 29.1372 43.4439 29.0786 42.9897C29.0688 42.9116 29.015 42.6919 28.9613 42.5014C28.9027 42.3158 28.8245 41.9203 28.7805 41.6224C28.7365 41.3294 28.6828 41.0657 28.6584 41.0364C28.6339 41.012 28.6144 40.9339 28.6144 40.8606C28.6144 40.7874 28.5948 40.7142 28.5704 40.6995C28.4825 40.6458 28.4629 40.2698 28.5411 40.1526C28.6388 40.0061 28.6339 39.9866 28.5167 39.9866C28.3652 39.9866 28.1746 39.757 28.1746 39.5715C28.1746 39.4836 28.1453 39.3859 28.1062 39.3566C28.0672 39.3273 27.9694 39.0832 27.8864 38.8195C27.8033 38.5558 27.7007 38.3018 27.6616 38.2481C27.6225 38.1993 27.5883 38.0919 27.5883 38.0089C27.5883 37.9307 27.5199 37.667 27.4417 37.4326C27.2659 36.9004 27.217 36.666 27.2854 36.666C27.3147 36.666 27.3685 36.7001 27.4027 36.7441L27.4239 36.7685C27.4659 36.8168 27.5378 36.8995 27.603 36.9687C27.6763 37.0517 27.7349 37.1494 27.7349 37.1885C27.7349 37.3691 28.16 37.5938 28.2431 37.457C28.2577 37.4326 28.2333 37.2324 28.1942 37.0029C28.0916 36.4267 28.0525 35.6942 28.1209 35.6258C28.1942 35.5526 28.1893 35.494 28.1014 35.494C28.0574 35.494 27.9792 35.4159 27.9255 35.3231C27.8473 35.1912 27.7887 35.1522 27.686 35.1522C27.6079 35.1522 27.5346 35.1326 27.5199 35.1082C27.4857 35.0545 27.603 35.0057 27.7545 35.0057C27.9401 35.0057 28.0427 34.8445 28.0183 34.6052C28.0036 34.4734 28.0232 34.3562 28.0623 34.2878C28.1014 34.2292 28.1258 34.0974 28.116 33.9948C28.1062 33.8435 28.0818 33.8044 27.9939 33.7946C27.8326 33.7702 27.8522 33.6384 28.0378 33.487C28.1844 33.3649 28.1893 33.3503 28.1111 33.2721C28.0427 33.2038 28.0281 33.0866 28.0281 32.5396C28.0281 32.1832 28.0134 31.8511 27.9988 31.8072C27.9548 31.6948 27.7545 31.607 27.4027 31.5386C27.2365 31.5044 27.0851 31.4556 27.0704 31.436C27.0558 31.4116 26.9287 31.3921 26.787 31.3921C26.6453 31.3921 26.3864 31.3481 26.2202 31.2944C26.0541 31.2407 25.8636 31.1968 25.8049 31.1968C25.7414 31.1968 25.5997 31.1528 25.4825 31.0991C25.3652 31.0454 25.1649 31.0014 25.0427 31.0014C24.8229 31.0014 24.8131 31.0063 24.7349 31.1968C24.6909 31.3042 24.6567 31.4214 24.6567 31.4556C24.6567 31.6363 24.5492 31.8804 24.4711 31.8804C24.4075 31.8804 24.3831 31.9244 24.3782 32.0416C24.3782 32.1295 24.3294 32.3492 24.2707 32.5348C24.217 32.7154 24.1437 33.0084 24.1193 33.1793C24.0558 33.57 23.9238 33.8337 23.6209 34.1658C23.4939 34.3123 23.3864 34.4588 23.3864 34.4929C23.3864 34.5369 23.3571 34.5515 23.3033 34.532C23.2447 34.5076 23.23 34.5222 23.2496 34.6004C23.2642 34.6541 23.2447 34.7371 23.2056 34.7908C23.1372 34.8738 23.1372 34.8689 23.1616 34.6883C23.1763 34.5808 23.2105 34.1316 23.2398 33.6872L23.2432 33.6333C23.2862 32.9547 23.2979 32.7702 23.3771 32.7342C23.4066 32.7208 23.4456 32.7281 23.4991 32.7381L23.5085 32.7399C23.7088 32.774 23.7773 32.6764 23.7773 32.3443C23.7773 32.1392 23.787 32.1148 23.9238 32.066C24.0704 32.0171 24.1193 31.9146 24.1095 31.7095C24.1046 31.6558 24.1046 31.5337 24.1095 31.436C24.1193 31.2798 24.1388 31.2554 24.2659 31.2309C24.4075 31.2016 24.4124 31.1919 24.4124 30.9331V30.6645L24.0606 30.435C23.8652 30.3129 23.5085 30.0639 23.2642 29.8929C23.0248 29.7171 22.7903 29.5609 22.7512 29.5462C22.7121 29.5316 22.5362 29.3997 22.3652 29.2532C22.0525 28.9895 21.73 28.8089 21.5688 28.804C21.5199 28.804 21.4173 28.8968 21.3343 29.0091C21.2512 29.1214 21.1437 29.2435 21.09 29.2777C20.9727 29.3607 20.9629 29.5023 21.0753 29.5902C21.1828 29.6781 21.3343 30.0248 21.3001 30.1078C21.261 30.2055 21.173 30.1859 20.8457 30.0199C20.4303 29.8099 20.2398 29.7855 20.0834 29.932C20.015 29.9955 19.9173 30.1176 19.8636 30.2055C19.8049 30.2934 19.7316 30.3666 19.6926 30.3666C19.6535 30.3666 19.4434 30.5571 19.2186 30.7866C18.9987 31.021 18.7056 31.2847 18.5639 31.3726C18.4222 31.4653 18.2854 31.6021 18.2512 31.6851C18.2121 31.7632 18.1632 31.8316 18.1437 31.8316C18.0753 31.8316 17.4694 32.4322 17.3961 32.5787C17.3375 32.6861 17.2935 32.7106 17.1518 32.7106C16.9613 32.7106 16.6681 32.6031 16.5362 32.481C16.4531 32.4078 16.4385 32.4078 16.3505 32.4908C16.2968 32.5396 16.243 32.6178 16.2284 32.6617C16.2137 32.7106 16.1356 32.774 16.0574 32.8033C15.9499 32.8375 15.9108 32.8815 15.9108 32.9694C15.9108 33.1159 16.3554 34.029 16.5704 34.3269C16.7561 34.5759 17.0443 35.1473 17.0101 35.201C17.0004 35.2205 16.8294 35.2498 16.629 35.2645C16.2235 35.2987 15.6567 35.4598 15.4613 35.5965C15.3929 35.6503 15.3049 35.6893 15.2658 35.6893C15.2316 35.6893 14.9971 35.787 14.7528 35.9091C14.5085 36.0263 14.186 36.163 14.0443 36.2069C13.9027 36.2509 13.6974 36.3388 13.59 36.4023C13.4825 36.4609 13.243 36.5683 13.0525 36.6415C12.8668 36.7099 12.6812 36.7978 12.6372 36.832C12.5981 36.8711 12.4857 36.9345 12.3929 36.9736C12.2952 37.0127 12.09 37.1494 11.9287 37.2861C11.7675 37.418 11.5818 37.5596 11.5134 37.5938C11.445 37.628 11.3473 37.6963 11.2935 37.75C10.9027 38.1065 10.7316 38.2286 10.4825 38.297C10.331 38.3409 9.9792 38.5216 9.71047 38.6974C9.43686 38.8732 9.13881 39.0392 9.05575 39.0685C8.82611 39.1466 8.64532 39.2931 7.86356 40.0452C7.47269 40.4212 7.14532 40.7142 7.13067 40.6995C7.11601 40.6849 7.19418 40.5725 7.30656 40.4505C7.41405 40.3333 7.50689 40.2063 7.50689 40.177C7.50689 40.1477 7.64369 39.9768 7.8147 39.801C8.1665 39.425 8.40591 39.132 8.78213 38.6193C8.9336 38.419 9.08995 38.2139 9.13881 38.1651C9.18767 38.1163 9.26585 37.9698 9.31471 37.8379C9.36357 37.7061 9.4906 37.4912 9.60298 37.3594C9.71536 37.2324 9.8033 37.1055 9.8033 37.0859C9.8033 37.0664 9.85705 36.9785 9.92545 36.8906C9.99386 36.8027 10.0476 36.7001 10.0476 36.6611C10.0476 36.5683 10.3945 35.8944 10.5802 35.621C10.6632 35.5038 10.7756 35.284 10.8294 35.1326C10.888 34.9813 10.9564 34.8592 10.9808 34.8592C11.0053 34.8592 11.0248 34.8299 11.0248 34.7908C11.0248 34.7566 11.059 34.698 11.0981 34.6638C11.1372 34.6297 11.1714 34.5662 11.1714 34.5173C11.1714 34.4685 11.2154 34.3367 11.2642 34.2195C11.318 34.1023 11.3717 33.8776 11.3913 33.7263C11.4255 33.4723 11.4401 33.443 11.5427 33.443C11.6844 33.443 11.704 33.4089 11.7577 33.0719C11.7919 32.8815 11.8408 32.7594 11.9336 32.6715C12.1388 32.4664 12.2903 32.1099 12.4613 31.4458C12.5541 31.104 12.6518 30.7768 12.6812 30.7182C12.7984 30.5033 12.9401 30.5815 13.6046 31.2114C14.2593 31.8365 14.489 31.9878 14.6356 31.8951C14.7235 31.8365 14.7235 31.5532 14.6356 31.3286C14.5574 31.1479 14.6014 31.1186 14.8408 31.1919C15.129 31.2798 15.1584 31.2309 15.0802 30.7963C15.046 30.601 15.0069 30.4106 14.9971 30.3813C14.9825 30.3422 15.0167 30.3178 15.0851 30.3178C15.2463 30.3178 15.3147 30.2641 15.344 30.1225C15.3521 30.0658 15.3703 29.9824 15.3846 29.9166L15.3846 29.9165L15.3846 29.9164L15.3929 29.8783C15.4075 29.805 15.4857 29.722 15.5932 29.6634C15.6909 29.6097 15.8424 29.4681 15.9303 29.346C16.0232 29.2239 16.2626 28.9358 16.4678 28.7063C16.673 28.4817 16.8391 28.2815 16.8391 28.2668C16.8391 28.2522 16.9417 28.1789 17.0737 28.1008C17.2007 28.0276 17.3864 27.8566 17.489 27.7248C17.5916 27.5978 17.7821 27.4074 17.9141 27.3048C18.129 27.1388 18.1535 27.0997 18.1584 26.9239C18.1584 26.8165 18.1242 26.6651 18.0851 26.587C18.046 26.5138 18.0118 26.4259 18.0118 26.4014C18.0118 26.3135 18.3196 26.4063 18.5395 26.5577C18.6518 26.6407 18.774 26.7042 18.8082 26.7042C18.8424 26.7042 18.9743 26.6114 19.1014 26.4942L19.3408 26.2891L19.1698 25.8887C19.0769 25.669 18.9597 25.4297 18.9059 25.3515C18.8522 25.2783 18.6274 24.8486 18.4027 24.3944C17.9922 23.5594 17.9238 23.4715 17.5769 23.3348C17.445 23.2811 17.3619 23.2811 17.103 23.3348C16.9271 23.369 16.7707 23.3836 16.7561 23.3641C16.7219 23.3348 17.1176 23.1443 17.2251 23.1395C17.3375 23.1395 17.5916 22.9588 17.7088 22.7976L17.8212 22.6511L17.6942 22.4802C17.616 22.3826 17.5378 22.1823 17.4939 21.9821C17.3766 21.4254 17.23 20.3511 17.23 20.0484V19.7651L17.0004 19.6626C16.8391 19.5942 16.629 19.5552 16.2577 19.5356C15.7886 19.5112 15.7105 19.4966 15.4417 19.3452C15.1046 19.1645 14.9385 19.145 14.8163 19.2768C14.7382 19.3598 14.743 19.3696 14.8554 19.4477C15.0362 19.5601 15.217 19.7603 15.4027 20.0484C15.5883 20.3316 15.6128 20.4341 15.4857 20.3853C15.4369 20.3658 15.1681 20.3218 14.8847 20.2828C14.2202 20.1949 13.8098 20.0679 13.16 19.7407C12.5834 19.4526 12.1339 19.3061 11.6844 19.2573C11.0883 19.1938 9.84728 18.8764 9.388 18.6713C8.97757 18.4906 8.61112 18.4027 7.76584 18.2806C6.69581 18.1244 6.47594 18.0267 6.88148 17.8851C7.09158 17.8119 7.97594 17.7191 8.45477 17.7191C8.64532 17.7191 8.9678 17.6849 9.16813 17.6458C9.41243 17.597 9.9792 17.5628 10.8782 17.5433C11.616 17.5286 12.3733 17.4945 12.5541 17.47C12.9548 17.4163 13.0232 17.3773 14.4157 16.5276C14.5427 16.4494 14.6551 16.4006 14.6698 16.4153C14.6844 16.425 14.6307 16.5618 14.5574 16.7131C14.4548 16.928 14.4352 17.011 14.4743 17.0745C14.5525 17.1966 14.7528 17.2015 15.1095 17.0843C15.2854 17.0257 15.4417 16.9915 15.4613 17.011C15.4808 17.0257 15.4222 17.1038 15.3343 17.1722C15.1486 17.3284 15.129 17.5091 15.2756 17.6458C15.3538 17.7142 15.4906 17.7435 15.8375 17.7679C16.2626 17.7972 16.3066 17.807 16.3994 17.9291C16.5264 18.0902 16.5557 18.0902 16.7219 17.9388C16.7952 17.8705 16.932 17.7972 17.0297 17.7679C17.2398 17.7142 17.4157 17.5628 17.4499 17.4114C17.4528 17.3939 17.4592 17.3598 17.4679 17.314L17.4679 17.3138C17.4881 17.2066 17.5202 17.0355 17.5476 16.8645C17.5916 16.6252 17.7235 16.0441 17.8457 15.5802C17.9629 15.1163 18.0606 14.6329 18.0606 14.5059C18.0606 14.4441 18.0606 14.399 18.0504 14.3563C18.0227 14.2403 17.9199 14.1423 17.5378 13.7783C17.2496 13.5049 17.0297 13.2656 17.0492 13.2461C17.0639 13.2265 17.2935 13.2949 17.5574 13.3974C17.8212 13.4951 18.1584 13.5928 18.3147 13.6025C18.586 13.6316 18.5883 13.627 18.6693 13.4699L18.6714 13.4658C18.7202 13.373 18.8522 13.163 18.9694 12.9921C19.0916 12.8212 19.2284 12.6015 19.2772 12.5038C19.3261 12.4061 19.4531 12.2548 19.5606 12.1717C19.6632 12.0887 19.8098 11.9032 19.888 11.7567C19.9662 11.6102 20.1079 11.3855 20.2105 11.2488C20.3841 11.0131 20.4413 10.9354 20.4263 10.876C20.4189 10.8467 20.3941 10.8219 20.3571 10.7849C20.2398 10.6677 19.9124 10.6482 19.8196 10.7605C19.6584 10.9558 19.4971 10.78 19.3115 10.2185C19.2675 10.0768 19.1649 9.91081 19.0867 9.83756C19.0036 9.7692 18.9401 9.67642 18.9401 9.63735C18.9401 9.59829 18.8766 9.49574 18.7984 9.40784C18.7251 9.31994 18.6079 9.14903 18.5492 9.02695C18.4906 8.90487 18.3733 8.73396 18.3001 8.64606C18.2219 8.55816 18.1584 8.46538 18.1584 8.43608C18.1584 8.38725 17.9825 8.16262 17.4597 7.56687C17.2935 7.37642 17.1567 7.16644 17.1274 7.05413C17.0981 6.95158 17.0443 6.83439 17.0053 6.79532C16.9369 6.72695 16.9075 6.53651 16.9662 6.53651C16.9808 6.53651 17.0541 6.58046 17.1274 6.62929C17.2007 6.68301 17.3815 6.78067 17.5329 6.84415C17.6795 6.91252 17.8212 6.99065 17.8359 7.01995C17.8554 7.04925 18.0215 7.15179 18.1974 7.24946C18.6812 7.50827 19.287 7.85986 19.5509 8.03566C19.8147 8.21634 20.2056 8.314 20.9434 8.39213C21.2268 8.42143 21.515 8.45561 21.5883 8.47026L21.7251 8.49956L21.6274 8.68513C21.5248 8.88534 21.2903 9.05625 21.046 9.10508C20.8554 9.14415 20.8505 9.22716 21.0216 9.54457C21.1584 9.80827 21.3685 10.0524 21.4564 10.0524C21.4906 10.0524 21.5541 10.0085 21.6079 9.94988C21.6567 9.89616 21.7642 9.82292 21.8473 9.78873C21.9255 9.75455 22.1795 9.58364 22.4092 9.40784C22.6388 9.23205 22.9173 9.03183 23.0346 8.95859C23.4059 8.72419 24.1193 8.44096 24.774 8.26029C25.1258 8.1675 25.4385 8.06984 25.4678 8.04542C25.5069 8.01124 25.5118 7.93799 25.4825 7.81591C25.4189 7.51315 25.2821 6.40466 25.3017 6.28258C25.3115 6.19468 25.3603 6.26305 25.5069 6.56093C25.6095 6.77579 25.7316 7.0639 25.7805 7.19574C25.8538 7.40084 25.8978 7.45944 26.0834 7.55222C26.3033 7.66453 26.3082 7.66453 27.2756 7.61082L27.3337 7.60738C28.2788 7.55145 28.5078 7.5379 28.5835 7.42316C28.6077 7.38646 28.6163 7.33941 28.6275 7.2773L28.629 7.26899C28.6535 7.14691 28.6584 6.60976 28.6486 6.06772C28.6242 5.02271 28.5851 4.83227 28.3847 4.77855C28.287 4.75413 28.2821 4.74437 28.3505 4.55881C28.3847 4.45138 28.4385 4.19745 28.4629 3.99724C28.4922 3.79702 28.546 3.56751 28.5851 3.4845C28.6242 3.40637 28.6779 3.17197 28.7072 2.97176C28.7365 2.77155 28.7952 2.46879 28.8391 2.30276L28.9222 2L29.015 2.1172C29.0639 2.18556 29.1323 2.37601 29.1567 2.54204C29.186 2.70807 29.2251 2.86921 29.2447 2.89851C29.2691 2.92293 29.3033 3.04501 29.3229 3.16709C29.3766 3.4845 29.6356 4.34394 29.7186 4.47091C29.7919 4.58811 29.8115 4.95923 29.7479 5.05689C29.7186 5.10573 29.6795 5.10084 29.572 5.04713C29.4939 5.00806 29.4157 4.97388 29.3913 4.97388C29.3277 4.97388 29.3375 5.14479 29.4255 5.47197C29.4988 5.76008 29.4988 5.76984 29.3961 5.87728L29.2935 5.98959L29.401 6.43885C29.4988 6.86369 29.4988 6.90275 29.4255 7.02971C29.2642 7.29829 29.3864 7.65965 29.6404 7.65965C29.6942 7.65965 29.8701 7.71337 30.0313 7.78173C30.7691 8.09426 32.4939 8.57769 32.6502 8.5191C32.6844 8.50445 32.7724 8.39213 32.8457 8.26029C32.9141 8.13332 33.046 7.91846 33.1339 7.78173C33.2219 7.64988 33.3098 7.45944 33.3294 7.36666C33.3489 7.27388 33.3831 7.16156 33.4075 7.1225C33.4808 6.99065 33.4564 7.49362 33.3782 7.64012C33.3391 7.71825 33.3049 7.90381 33.3049 8.05519C33.3049 8.27982 33.3391 8.40678 33.5053 8.72907C33.6128 8.94394 33.7203 9.12462 33.7447 9.12462C33.7691 9.12462 33.9303 9.25158 34.0965 9.41272C34.2675 9.56899 34.458 9.72525 34.5264 9.75943C34.5948 9.79362 34.8538 9.96453 35.103 10.1452C35.2083 10.2195 35.3233 10.3017 35.4302 10.3781L35.4314 10.379L35.4315 10.379L35.4317 10.3792C35.5769 10.483 35.707 10.576 35.7773 10.6238C36.1437 10.8826 36.5688 10.8289 36.4955 10.5359C36.4711 10.4577 36.5004 10.4431 36.6665 10.4431C37.0525 10.4431 37.0476 10.1696 36.6567 9.91081C36.559 9.84245 36.4955 9.77408 36.515 9.75455C36.5737 9.69595 37.3115 9.51527 37.4874 9.51527C37.7121 9.51527 37.7952 9.47132 37.8733 9.31994C37.932 9.20763 38.0004 9.16856 38.2251 9.11973C38.5427 9.05137 38.7773 8.94882 38.7773 8.88045C38.7773 8.78279 38.9776 8.63629 39.1046 8.63629C39.173 8.63629 39.2707 8.60699 39.3098 8.56793C39.3538 8.53375 39.5053 8.46538 39.6519 8.42143C39.9841 8.314 40.5948 8.01124 41.0737 7.71337C42.002 7.13226 42.1388 7.07366 41.9141 7.35689C41.8505 7.43014 41.7431 7.57175 41.6698 7.67918C41.5965 7.78173 41.489 7.91846 41.4304 7.98683C41.3668 8.05031 41.318 8.13332 41.318 8.17239C41.318 8.21145 41.2935 8.2554 41.2691 8.27005C41.2398 8.28959 41.1421 8.45073 41.0492 8.62653C40.9515 8.80721 40.7854 9.06602 40.6681 9.20275C40.5558 9.33948 40.3457 9.61294 40.204 9.81315C39.7496 10.4529 39.4857 10.78 39.4271 10.78C39.3929 10.7849 39.3636 10.8337 39.3636 10.8972C39.3636 10.9607 39.2463 11.2049 39.1095 11.4441C38.875 11.8299 38.8505 11.8592 38.8359 11.7323C38.8017 11.366 38.7919 11.3562 38.5427 11.3953C38.0883 11.4637 37.8782 11.5955 37.6437 11.952C37.5118 12.1669 37.4532 12.494 37.5558 12.494C37.5802 12.494 37.6584 12.6015 37.7219 12.7284C37.7854 12.8603 37.8782 12.9921 37.9173 13.0263C37.9613 13.0654 37.9955 13.1435 37.9955 13.2021C37.9955 13.2607 38.0297 13.3388 38.0737 13.373C38.1128 13.4121 38.1812 13.5049 38.2154 13.5879C38.2545 13.6709 38.3326 13.793 38.3864 13.8613C38.4401 13.9297 38.5476 14.169 38.6307 14.3936C38.7724 14.794 38.8896 14.9845 38.9922 14.9845C39.0167 14.9845 39.1242 15.0626 39.2219 15.1603L39.2222 15.1606C39.3978 15.3312 39.4028 15.336 39.5492 15.2579C39.7984 15.131 39.7887 15.1652 39.4955 15.4386C39.1681 15.7414 39.1486 15.8586 39.3636 16.132C39.4466 16.2346 39.5102 16.3615 39.5102 16.4153C39.5102 16.469 39.5834 16.8352 39.6763 17.2259C39.7691 17.6165 39.8766 18.0902 39.9108 18.2758C39.9499 18.4711 40.0085 18.6274 40.0476 18.6518C40.1844 18.7201 41.6453 19.0375 41.8359 19.0375C42.2659 19.0375 42.3196 18.9594 42.173 18.5492C42.1339 18.4369 42.0997 18.2514 42.0997 18.1439V17.9486L42.2854 17.9779C42.3831 17.9974 42.6421 18.0609 42.8571 18.1195C43.2137 18.222 43.2479 18.2416 43.2626 18.3685C43.2821 18.5346 43.4238 18.5492 43.5264 18.393L43.5997 18.2855L43.8489 18.393C43.9857 18.4516 44.1421 18.5004 44.1958 18.5004C44.2545 18.5004 44.3375 18.5443 44.3815 18.5981C44.4352 18.6567 44.5574 18.7055 44.6991 18.725C44.831 18.7446 44.9483 18.7787 44.9629 18.7983C44.9776 18.8227 45.0411 18.8422 45.1095 18.8422C45.2561 18.8422 45.3831 18.9057 45.6323 19.1059C45.8033 19.2426 45.8277 19.2475 45.8668 19.1694C45.9352 19.0522 46.0623 19.0668 46.4629 19.228C46.6584 19.3012 46.8978 19.3794 46.9955 19.3989C47.0981 19.4184 47.2056 19.4624 47.2447 19.4966C47.2789 19.5308 47.3717 19.5698 47.4499 19.5845C47.7919 19.6431 48.8229 19.8628 48.9059 19.8921C49.1209 19.9751 48.9646 20.0533 48.4662 20.1119C48.2707 20.1314 47.8603 20.2291 47.5623 20.3218L47.4174 20.3663C47.1354 20.4529 46.8017 20.5553 46.6193 20.6051C46.4043 20.6685 46.1991 20.7467 46.1649 20.7809C46.1307 20.815 46.0232 20.8443 45.9255 20.8443C45.8326 20.8443 45.6079 20.9127 45.4222 20.9908C45.2365 21.0739 45.0509 21.1373 45.0069 21.1373C44.9678 21.1373 44.7186 21.235 44.4548 21.3522C44.1958 21.4694 43.8636 21.6012 43.717 21.6452C43.5704 21.6891 43.4336 21.7477 43.419 21.777C43.3848 21.8307 42.5786 22.114 42.5444 22.0847C42.5004 22.0407 42.7251 21.8014 42.8717 21.7282C43.1062 21.611 43.0623 21.4792 42.7642 21.4108C42.6909 21.3913 42.5639 21.3327 42.4906 21.2789C42.4173 21.2203 42.3049 21.1813 42.2414 21.1862C42.2064 21.1889 42.0973 21.1915 41.9549 21.1951L41.9545 21.1951L41.9542 21.1951L41.954 21.1951C41.8381 21.1979 41.7002 21.2013 41.5623 21.2057C40.8098 21.2155 40.1062 21.2887 40.0525 21.3522C39.9841 21.4352 39.8619 21.9089 39.8229 22.2361C39.8033 22.3972 39.7251 22.7195 39.6519 22.9539C39.5737 23.1883 39.5102 23.4276 39.5102 23.4813C39.5102 23.5399 39.476 23.7499 39.432 23.9501C39.3098 24.5458 39.3929 24.7021 39.8864 24.7949C40.0232 24.8242 40.2089 24.8876 40.3017 24.9462C40.3896 25 40.5118 25.0439 40.5704 25.0439C40.629 25.0439 40.7561 25.0976 40.8489 25.1611C40.9711 25.2392 41.1225 25.2832 41.3766 25.3076C41.66 25.3369 41.8066 25.3857 42.0802 25.5371C42.6812 25.8643 42.6763 25.9473 42.0655 26.001C41.5476 26.045 41.4352 26.0108 41.3473 25.8008C41.2691 25.6152 41.2056 25.5811 40.6681 25.4394C40.4825 25.3857 40.2675 25.2978 40.1893 25.2441C40.116 25.1855 40.0036 25.1416 39.945 25.1416C39.8864 25.1416 39.8326 25.1025 39.818 25.0439C39.7984 24.9707 39.7496 24.9462 39.6128 24.9462C39.515 24.9414 39.3831 24.9121 39.3147 24.873C39.1535 24.7802 39.1046 24.7802 39.1388 24.8779C39.173 24.9707 39.0313 25.3076 38.831 25.6006C38.7479 25.7227 38.6356 25.9229 38.5818 26.045C38.5281 26.1719 38.401 26.3526 38.2935 26.4552C38.1909 26.5528 38.0688 26.7042 38.0248 26.7872C37.9808 26.8751 37.9173 26.963 37.8831 26.9825C37.8098 27.0265 37.2479 27.8762 37.0427 28.2571L36.9059 28.511L37.0232 28.638C37.0965 28.7161 37.1698 28.7503 37.2333 28.7356C37.3652 28.7014 37.5997 28.8528 37.8343 29.1312C38.0639 29.4095 38.1421 29.5462 38.1421 29.6781C38.1421 29.9125 38.616 29.849 38.9825 29.5707C39.173 29.4242 39.1975 29.3851 39.2268 29.1507C39.2659 28.8138 39.559 28.1643 39.6519 28.1936C39.6861 28.2082 39.7447 28.1936 39.7838 28.1643C39.8326 28.1252 39.8619 28.1692 39.9304 28.3987C39.9743 28.5549 40.0281 28.7063 40.0476 28.7307C40.0672 28.76 40.1502 28.9651 40.2382 29.1849C40.3212 29.4095 40.4336 29.6488 40.4825 29.7171C40.5362 29.7806 40.5655 29.8685 40.5509 29.9076C40.5362 29.9467 40.5655 30.0297 40.6193 30.0883C40.8098 30.308 41.015 30.6401 41.0737 30.8305C41.1079 30.938 41.1519 31.0503 41.1714 31.0747C41.1958 31.104 41.2251 31.2065 41.2447 31.3091C41.2642 31.4116 41.3229 31.5142 41.3717 31.5435C41.4255 31.5679 41.4646 31.6265 41.4646 31.6753C41.4646 31.7193 41.5427 31.9244 41.6356 32.1197C41.7235 32.3199 41.787 32.5055 41.7724 32.5299C41.7577 32.5543 41.6356 32.5641 41.5085 32.5494C41.3229 32.525 41.2691 32.5348 41.2691 32.5885C41.2691 32.6275 41.2935 32.6715 41.3229 32.691C41.3522 32.7057 41.3619 32.7692 41.3473 32.8326C41.318 32.9498 41.3668 33.0084 41.6062 33.1452C41.8017 33.2526 42.2463 33.6774 42.2463 33.7556C42.2463 33.7897 42.2903 33.8581 42.344 33.9069C42.3978 33.9558 42.4418 34.0388 42.4418 34.0876C42.4418 34.1365 42.5297 34.2732 42.6372 34.3904C42.7642 34.5271 42.8326 34.6492 42.8326 34.7322C42.8326 34.8006 42.8571 34.8592 42.8815 34.8592C42.9108 34.8592 42.9304 34.8982 42.9304 34.9471C42.9304 34.991 43.0085 35.1278 43.1014 35.2449C43.1942 35.3621 43.2724 35.4989 43.2724 35.5477C43.2724 35.5965 43.3163 35.6503 43.3701 35.6649C43.4776 35.6991 43.4971 35.7626 43.419 35.8114C43.3457 35.8554 43.3603 35.9335 43.4434 35.9335C43.4874 35.9335 43.5313 35.9725 43.5509 36.0214C43.5655 36.0653 43.6193 36.1972 43.6681 36.3095C43.7219 36.4218 43.761 36.5585 43.761 36.6171C43.761 36.6708 43.7952 36.7294 43.8343 36.7441C43.8782 36.7636 43.9076 36.8369 43.9076 36.9394C43.9076 37.0322 43.9271 37.1055 43.9564 37.1055C44.059 37.1055 44.1763 37.374 44.1763 37.6182C44.1763 37.8721 44.2545 37.9747 44.3033 37.7793C44.3277 37.6719 44.3326 37.6768 44.3864 37.8282C44.4157 37.921 44.5085 38.0235 44.6111 38.087C44.7968 38.1944 44.8799 38.3507 44.7919 38.4386C44.7528 38.4776 44.6991 38.4532 44.6014 38.3604C44.5281 38.2872 44.4255 38.2286 44.3815 38.2286C44.3277 38.2286 44.2984 38.1895 44.2984 38.126C44.2984 38.0382 44.2838 38.0333 44.2251 38.0821C44.147 38.1505 44.1225 38.1114 44.0932 37.8917C44.0786 37.7598 43.9564 37.6866 43.9564 37.8086C43.9564 37.8819 43.9418 37.8819 43.8098 37.8135C43.7268 37.7696 43.6339 37.6817 43.6046 37.6182C43.5753 37.5547 43.502 37.4912 43.4385 37.4766C43.1747 37.4082 42.7642 37.1103 42.6225 36.8759C42.5395 36.749 42.4662 36.6708 42.4564 36.705C42.4222 36.8027 42.344 36.7734 42.2952 36.6415C42.2561 36.5439 42.2268 36.5244 42.1291 36.5488C42.0362 36.5683 41.9971 36.5439 41.9043 36.4023C41.8457 36.3046 41.7675 36.2265 41.7284 36.2265C41.6893 36.2265 41.5672 36.163 41.4548 36.08C41.3473 36.0018 41.2251 35.9335 41.1861 35.9335C41.1519 35.9335 41.0834 35.8895 41.0346 35.8309C40.9906 35.7772 40.8733 35.6942 40.7805 35.6503C40.5704 35.5526 40.1551 35.1278 40.116 34.9715C40.0867 34.8592 39.8571 34.7127 39.6958 34.7127C39.6421 34.7127 39.6079 34.6785 39.6079 34.615C39.6079 34.5418 39.5444 34.488 39.3929 34.4197C39.2659 34.366 39.1437 34.2683 39.09 34.1804C39.0411 34.0974 38.9629 34.0193 38.919 34.0046C38.8701 33.99 38.8017 33.9216 38.7577 33.8581C38.6991 33.7702 38.6356 33.736 38.5134 33.736C38.4157 33.736 38.318 33.697 38.2642 33.6384C38.2105 33.5798 38.1128 33.5407 38.015 33.5407C37.9271 33.5407 37.8391 33.5163 37.8196 33.487C37.8049 33.4577 37.7463 33.4479 37.6926 33.4626C37.5704 33.4919 36.7251 33.277 36.6812 33.2086C36.6616 33.1793 36.5932 33.1305 36.5297 33.1012C36.4613 33.0719 36.3538 33.0182 36.2854 32.9791C36.217 32.9401 36.1046 32.9059 36.0313 32.9059C35.9532 32.9059 35.8945 32.8864 35.8945 32.8571C35.8945 32.8326 35.958 32.8082 36.0362 32.8082C36.3245 32.8082 36.7593 32.3541 36.9499 31.8511L37.033 31.6363L36.7154 31.3042C36.5444 31.1235 36.3587 30.9184 36.3147 30.8452C36.2659 30.767 36.1975 30.7084 36.1632 30.7084C36.0655 30.7084 35.8017 30.4692 35.7186 30.3031C35.6258 30.1322 35.3913 29.9027 35.1958 29.8002C35.0883 29.7416 35.0395 29.7367 34.9857 29.7806C34.9515 29.8148 34.8831 29.8295 34.844 29.8099C34.7952 29.7904 34.7512 29.8197 34.7268 29.8929C34.6535 30.0883 34.4727 30.2006 33.7984 30.4985C33.6567 30.5571 33.4955 30.6108 33.4417 30.6108C33.3929 30.6108 33.2903 30.6547 33.217 30.7084C33.1437 30.7622 32.9874 30.8256 32.8652 30.8452L32.6453 30.8842L32.6502 31.1723C32.6551 31.3335 32.6795 31.7534 32.704 32.1002C32.7577 32.8473 32.7284 32.9694 32.572 32.6568C32.5085 32.5396 32.4157 32.3785 32.3571 32.2955C32.3033 32.2174 32.2593 32.1197 32.2691 32.0855C32.2789 32.0513 32.2496 32.0123 32.2105 31.9976C32.1421 31.9732 32.147 31.9537 32.2154 31.8511C32.3131 31.6997 32.274 31.3481 32.1518 31.2602C32.0102 31.1577 31.3261 31.1821 30.9303 31.2993C30.5004 31.4312 30.3001 31.6216 30.3391 31.8609C30.3636 32.0025 30.3538 32.0269 30.2707 32.0269C30.1486 32.0269 30.1486 32.1246 30.2707 32.1588C30.4027 32.1929 30.4417 32.5201 30.3733 33.0768C30.3294 33.4333 30.3294 33.5847 30.3733 33.7263C30.4613 33.9948 30.559 34.1267 30.6714 34.1267C30.7593 34.1267 30.7642 34.1365 30.7154 34.1999C30.6812 34.239 30.6274 34.2732 30.5981 34.2732C30.5639 34.2732 30.4955 34.3025 30.4466 34.3416C30.3147 34.4392 30.2512 35.1473 30.3685 35.2352C30.432 35.2889 30.4369 35.3035 30.3782 35.3426C30.2952 35.3963 30.3489 35.494 30.4613 35.494C30.5102 35.494 30.5737 35.5379 30.603 35.5868C30.6372 35.6405 30.7251 35.7137 30.7984 35.7479C30.9841 35.8358 30.9548 35.8993 30.7056 35.9579C30.4124 36.0311 30.3489 36.1728 30.4271 36.5683C30.476 36.8173 30.4711 36.8759 30.4027 36.9785C30.3049 37.1299 30.3049 37.1543 30.3978 37.1543C30.4857 37.1543 30.4857 37.1787 30.4222 37.3057C30.3831 37.3691 30.388 37.4277 30.4271 37.501C30.4711 37.584 30.4662 37.6182 30.4173 37.6524C30.3636 37.6866 30.3636 37.7061 30.4124 37.7256C30.4955 37.7598 30.4857 37.8428 30.4027 37.8086C30.3636 37.794 30.3196 37.8086 30.3001 37.8379C30.2805 37.8721 30.3098 37.9063 30.3685 37.921C30.4613 37.9454 30.4711 37.9844 30.4711 38.3263C30.4711 38.756 30.5346 38.9904 30.6763 39.0636C30.7838 39.1222 30.9108 39.049 30.9108 38.9269C30.9108 38.7804 31.1209 38.4581 31.4189 38.1407C31.7365 37.8086 31.844 37.7598 31.717 37.9991C31.6779 38.0723 31.6681 38.1407 31.6975 38.1553C31.7659 38.2042 31.7512 38.59 31.6681 38.6974C31.629 38.7462 31.5948 38.8488 31.5948 38.9171C31.5948 38.9855 31.5411 39.1515 31.4727 39.2834C31.3847 39.4592 31.3603 39.5666 31.3799 39.6838C31.3994 39.7766 31.3896 39.8401 31.3603 39.8401C31.3359 39.8401 31.2968 39.8938 31.2821 39.9573C31.2675 40.0256 31.2137 40.1135 31.1698 40.1623C31.0916 40.2356 31.0916 40.2502 31.16 40.2942C31.2284 40.3381 31.2284 40.3723 31.1746 40.553C31.1404 40.6702 31.0427 41.222 30.9597 41.7787C30.7887 42.936 30.7838 42.9653 30.686 42.9653C30.6079 42.9653 30.5981 43.0972 30.6665 43.2095C30.6909 43.2534 30.6909 43.3023 30.6616 43.3413C30.6274 43.3804 30.6274 43.4292 30.6567 43.4829C30.6909 43.5415 30.686 43.6001 30.6421 43.6685C30.6079 43.7271 30.5541 43.8931 30.5248 44.0396C30.4906 44.1861 30.4369 44.3375 30.3978 44.3815C30.3587 44.4254 30.3049 44.6549 30.2756 44.9137C30.2463 45.1628 30.2023 45.4069 30.1779 45.4558C30.1486 45.5046 30.129 45.6316 30.129 45.7341C30.129 45.8366 30.0948 46.0515 30.0558 46.2127C30.0167 46.3738 29.9874 46.5789 29.9825 46.6668C29.9825 46.8572 29.9287 46.867 29.8505 46.6863ZM30.6665 39.9084C30.6665 39.8303 30.5883 39.8156 30.5444 39.8889C30.5053 39.9524 30.5639 40.0452 30.6225 40.011C30.647 39.9914 30.6665 39.9475 30.6665 39.9084ZM28.1258 38.4728C28.1258 38.419 28.1062 38.3751 28.0769 38.3751C28.0525 38.3751 28.0281 38.419 28.0281 38.4728C28.0281 38.5265 28.0525 38.5704 28.0769 38.5704C28.1062 38.5704 28.1258 38.5265 28.1258 38.4728ZM43.3457 36.5195C43.331 36.4951 43.2626 36.4706 43.1942 36.4706C43.1258 36.4706 43.0867 36.4902 43.1014 36.5195C43.116 36.5488 43.1844 36.5683 43.2528 36.5683C43.3212 36.5683 43.3603 36.5488 43.3457 36.5195ZM40.976 35.2694C40.976 35.2303 40.9418 35.201 40.9027 35.201C40.8294 35.201 40.8001 35.3035 40.8587 35.3621C40.9076 35.4061 40.976 35.3524 40.976 35.2694ZM41.5525 33.9216C41.5232 33.8337 41.4157 33.819 41.4157 33.9021C41.4157 33.946 41.4499 33.9802 41.4939 33.9802C41.5378 33.9802 41.5623 33.9558 41.5525 33.9216ZM41.7577 33.4186C41.7577 33.3796 41.7382 33.3454 41.7089 33.3454C41.6844 33.3454 41.66 33.3796 41.66 33.4186C41.66 33.4577 41.6844 33.4919 41.7089 33.4919C41.7382 33.4919 41.7577 33.4577 41.7577 33.4186ZM38.4352 33.3942C38.4352 33.3698 38.401 33.3454 38.3619 33.3454C38.3229 33.3454 38.2887 33.3698 38.2887 33.3942C38.2887 33.4235 38.3229 33.443 38.3619 33.443C38.401 33.443 38.4352 33.4235 38.4352 33.3942ZM41.4646 32.3199C41.4646 32.2955 41.4304 32.2711 41.3913 32.2711C41.3522 32.2711 41.318 32.2955 41.318 32.3199C41.318 32.3492 41.3522 32.3687 41.3913 32.3687C41.4304 32.3687 41.4646 32.3492 41.4646 32.3199ZM32.23 31.0747C32.23 31.0356 32.2105 31.0014 32.1812 31.0014C32.1567 31.0014 32.1323 31.0356 32.1323 31.0747C32.1323 31.1137 32.1567 31.1479 32.1812 31.1479C32.2105 31.1479 32.23 31.1137 32.23 31.0747ZM40.1453 30.3227C40.1453 30.2982 40.1111 30.2689 40.072 30.2494C39.9988 30.225 39.9743 30.2738 40.033 30.3324C40.0769 30.3813 40.1453 30.3764 40.1453 30.3227ZM27.9597 29.6732C28.0867 29.5462 28.1111 29.4144 28.0525 29.136L28.0183 28.9505L28.2431 28.9798C28.3652 28.9993 28.4678 28.9993 28.4678 28.9798C28.4678 28.9602 28.3945 28.7991 28.3017 28.6184C28.2137 28.4377 28.1111 28.1936 28.0769 28.0715C28.0427 27.9494 27.9939 27.8029 27.9646 27.7394C27.9206 27.6467 27.9792 26.8409 28.0965 25.9864C28.1062 25.9278 28.0965 25.8594 28.0818 25.835C28.0672 25.8106 27.8131 25.7422 27.5199 25.6836C26.8017 25.5469 26.059 25.2685 25.761 25.0341C25.629 24.9316 25.4922 24.8486 25.4531 24.8486C25.3408 24.8486 25.0623 25.0879 25.0281 25.2051C25.0134 25.2637 24.8913 25.4443 24.7544 25.6055C24.6225 25.7617 24.5102 25.9327 24.5102 25.9766C24.5102 26.0596 24.73 26.3721 25.0183 26.7042L25.1649 26.8751L24.9988 26.8898C24.8717 26.9044 24.7154 26.8507 24.3831 26.6798C23.8945 26.4259 23.8115 26.4307 23.6698 26.7042C23.6356 26.7726 23.5769 26.8556 23.5476 26.8898C23.5134 26.9239 23.4841 26.9728 23.4841 26.9972C23.4841 27.0167 23.3961 27.1437 23.2887 27.2707C23.1812 27.4025 23.0932 27.5441 23.0932 27.5929C23.0932 27.7346 24.0069 28.4963 24.4369 28.7161C25.033 29.0188 25.1746 29.0628 25.331 28.9798C25.3908 28.9488 25.4235 28.9319 25.4459 28.9408C25.4729 28.9515 25.4851 28.9999 25.5118 29.1067C25.5851 29.3997 25.9222 29.5609 26.7968 29.7074C27.5737 29.8392 27.8033 29.8343 27.9597 29.6732ZM31.5118 29.5902C31.59 29.5609 31.673 29.473 31.7121 29.3851C31.761 29.2679 31.7854 29.2532 31.8049 29.3118C31.8489 29.4242 32.1323 29.5853 32.2838 29.5853C32.3619 29.5853 32.5916 29.4632 32.8603 29.2825C33.1095 29.1116 33.4417 28.9065 33.603 28.8235C33.9499 28.6428 34.1649 28.4475 34.1991 28.2815C34.2235 28.1448 33.8668 27.5636 33.6079 27.3195C33.5248 27.2414 33.4417 27.1193 33.4271 27.0411C33.3929 26.8946 33.1926 26.7042 32.8652 26.5089C32.7382 26.4356 32.6209 26.3087 32.5623 26.1915C32.23 25.542 31.6975 25.122 31.4971 25.3613C31.4629 25.4004 31.3847 25.4346 31.3261 25.4346C31.2626 25.4346 31.204 25.459 31.1942 25.4883C31.1698 25.5615 30.6909 25.6787 30.4027 25.6787H30.1632L30.1974 26.2159C30.2121 26.5089 30.2512 26.8067 30.2756 26.8751C30.3049 26.9484 30.3245 27.1535 30.3245 27.3341C30.3245 27.5148 30.3489 27.7346 30.3782 27.8225C30.4271 27.9592 30.4222 27.9934 30.3245 28.0959L30.3238 28.0967C30.217 28.2131 30.2123 28.2182 30.3001 28.3157C30.4417 28.4719 30.4124 28.8626 30.2219 29.2484C30.1974 29.307 30.217 29.3411 30.3049 29.3851C30.3685 29.4144 30.4222 29.4681 30.4222 29.5023C30.4222 29.6585 30.5395 29.6927 30.9597 29.6683C31.1893 29.6537 31.4385 29.6195 31.5118 29.5902ZM36.2805 26.5724C36.8277 25.9864 37.0525 25.708 37.2479 25.3906C37.4483 25.0683 37.4727 25.0048 37.4385 24.8681C37.3896 24.6874 37.1062 24.4091 36.9597 24.4091C36.901 24.4091 36.8082 24.3749 36.7593 24.3358C36.7056 24.3017 36.6372 24.2821 36.603 24.2919C36.5688 24.3065 36.5248 24.2968 36.5053 24.2675C36.4906 24.2382 36.432 24.2138 36.3782 24.2138C36.2756 24.2138 35.9922 23.9647 35.9922 23.8768C35.9922 23.7938 36.344 23.8133 36.9255 23.9256C37.2137 23.9794 37.546 24.0184 37.6632 24.0087C37.844 23.994 37.8733 23.9794 37.888 23.8768C37.8978 23.8085 37.9369 23.7108 37.9711 23.6571C38.0053 23.5985 38.0492 23.4569 38.0688 23.3348C38.0883 23.2176 38.1714 22.866 38.2496 22.5535C38.3277 22.2458 38.4059 21.8259 38.4206 21.6159C38.445 21.2643 38.4401 21.2399 38.3277 21.1227C38.1665 20.9615 37.761 20.8443 37.3652 20.8443C36.9597 20.8443 36.774 20.7906 36.4222 20.5758L36.1437 20.4048L35.4352 20.3853L34.7268 20.3658L34.6779 20.5172C34.6486 20.6051 34.629 20.7955 34.6339 20.942C34.6388 21.2057 34.458 21.7184 34.3359 21.7966C34.3066 21.8112 34.2821 21.8796 34.2821 21.9479C34.2821 22.0163 34.2528 22.1189 34.2137 22.1775C34.1747 22.2361 34.0965 22.4314 34.0378 22.6121C33.9792 22.7927 33.8815 23.0125 33.8131 23.1004C33.7496 23.1883 33.6567 23.325 33.6128 23.4031C33.5639 23.4813 33.476 23.5985 33.4173 23.6668C33.3538 23.7352 33.3049 23.8133 33.3049 23.8426C33.3049 23.8671 33.2463 23.9403 33.173 23.9989L33.0362 24.1112L33.2072 24.4335C33.3098 24.6337 33.4613 24.829 33.5981 24.9414C33.9743 25.249 34.8489 26.1475 35.2642 26.6554C35.4841 26.9239 35.6795 27.1437 35.704 27.1437C35.7235 27.1437 35.9825 26.8849 36.2805 26.5724ZM21.0558 24.7558C21.6714 24.1552 21.7838 23.9989 21.7398 23.8329C21.7056 23.701 21.7593 23.6961 21.8864 23.8085C21.9743 23.8915 21.9792 23.8915 22.0427 23.8085C22.072 23.7645 22.1209 23.7254 22.1453 23.7254C22.1649 23.7254 22.3066 23.5985 22.458 23.4422C22.6046 23.2859 22.9173 22.9783 23.1567 22.7586C23.616 22.324 23.6453 22.2556 23.4792 21.987C23.3619 21.7966 23.0199 20.8004 22.9711 20.4976C22.9173 20.19 22.8685 20.1216 22.6535 20.063C22.1844 19.9361 20.1665 19.8726 19.6681 19.9654C19.3847 20.0191 19.1844 20.1753 19.0818 20.4146C19.033 20.5318 19.033 20.6441 19.0818 20.9567C19.1893 21.6989 19.2968 22.1628 19.3652 22.2214C19.4189 22.2654 19.5264 22.2654 19.8391 22.2214C20.059 22.1872 20.2789 22.1628 20.3229 22.1628C20.4645 22.1628 20.4157 22.2361 20.2007 22.3435C19.8001 22.5388 19.5753 22.7341 19.5753 22.8904C19.5753 22.9734 19.7756 23.4276 20.0395 23.9598C20.2935 24.4677 20.5036 24.9121 20.5036 24.9414C20.5036 24.9658 20.4401 25.0683 20.3571 25.1562C20.2789 25.249 20.2251 25.3369 20.2398 25.3467C20.3131 25.4248 20.5378 25.2637 21.0558 24.7558ZM31.8538 24.8242C31.9515 24.8046 32.0541 24.7607 32.0883 24.7216C32.1763 24.6191 32.0981 24.2235 31.976 24.1503C31.9222 24.1161 31.8294 23.9842 31.7659 23.8475C31.7072 23.7157 31.5606 23.4959 31.4434 23.3641C31.3261 23.2322 31.1649 22.993 31.0818 22.8318C30.989 22.6414 30.8815 22.5095 30.7887 22.4558C30.6763 22.3972 30.5737 22.2409 30.3636 21.8161C30.2121 21.5085 30.0851 21.2301 30.0851 21.2008C30.0802 21.0983 30.1828 21.1276 30.2121 21.235C30.2268 21.2887 30.2561 21.3327 30.2756 21.3327C30.3391 21.3327 30.9352 21.8454 31.5216 22.4119C32.4303 23.2811 32.5476 23.3299 32.8505 23.0076C33.0948 22.7439 33.3049 22.407 33.3049 22.2751C33.3049 22.2116 33.3245 22.1628 33.3538 22.1628C33.3782 22.1628 33.4466 22.07 33.5004 21.9577C33.559 21.8405 33.6567 21.6501 33.7251 21.528C33.7887 21.4108 33.8424 21.2399 33.8424 21.152C33.8424 20.9518 33.6861 20.8639 33.1779 20.7809C32.8359 20.7271 32.7919 20.7076 32.445 20.4195C32.2447 20.2486 32.0395 20.1119 31.9955 20.1119C31.8538 20.1119 30.8131 19.5503 30.8131 19.477C30.8131 19.4136 31.1942 19.2671 31.5948 19.1645L32.0102 19.062L32.0053 18.9057C31.9955 18.7592 32.0102 18.7446 32.1763 18.7153C32.274 18.6957 32.3913 18.6615 32.4401 18.6371C32.5036 18.6078 32.5769 18.6078 32.6698 18.6469C32.7724 18.6908 32.8359 18.6908 32.9043 18.6518C32.9727 18.6176 33.0167 18.6127 33.0362 18.6469C33.0851 18.725 33.2072 18.7055 33.2072 18.6225C33.2072 18.4955 33.3391 18.4857 33.4515 18.5981C33.5395 18.686 33.5932 18.7006 33.7349 18.6713C33.9499 18.6322 34.1356 18.5248 34.1356 18.4369C34.1356 18.3539 33.9939 18.1635 33.989 18.2416C33.989 18.3197 33.6763 18.4662 33.5639 18.4418C33.4955 18.432 33.4711 18.3588 33.4417 18.1097C33.3929 17.6263 33.1926 17.0354 33.0411 16.9036C32.9141 16.7962 32.5232 16.7376 32.5232 16.8303C32.5232 16.8499 32.401 16.9719 32.2447 17.0989C32.0004 17.3089 31.9466 17.3333 31.7561 17.3235C31.5997 17.3138 31.5118 17.3382 31.4092 17.4163C31.1942 17.5921 30.9646 17.6751 30.7496 17.6605L30.5444 17.6458L30.7398 17.5531C31.0965 17.387 31.2089 17.2796 31.1942 17.138C31.1844 17.0501 31.1453 17.0061 31.072 16.9964C30.9939 16.9866 30.9597 16.9475 30.9597 16.8694C30.9597 16.7376 31.0672 16.5862 31.4287 16.2004C31.7512 15.8586 31.8489 15.5753 31.7072 15.38C31.4874 15.0821 30.7203 14.6622 30.0558 14.4717C29.6307 14.3497 29.6062 14.3497 29.4108 14.4229C29.1079 14.5401 29.0053 14.6964 29.0053 15.0284C29.0053 15.3898 28.9662 15.5216 28.8538 15.5216C28.7512 15.5216 28.5411 15.2628 28.4629 15.0382C28.3945 14.8477 28.4776 14.7208 28.6486 14.755C28.8098 14.7843 28.7952 14.6524 28.629 14.5889C28.5558 14.5645 28.331 14.5157 28.1209 14.4913C27.4417 14.3985 26.489 14.6573 26.1714 15.0187C25.9466 15.2677 25.9857 15.4728 26.318 15.8293C26.4255 15.9465 26.5476 16.132 26.5916 16.2346C26.6356 16.3371 26.7088 16.469 26.7626 16.5227C26.8603 16.635 27.1486 17.2405 27.1486 17.3431C27.1486 17.3821 27.2023 17.514 27.2707 17.6409C27.4173 17.9193 27.3196 17.8851 27.1046 17.5872C26.9238 17.3382 26.6453 17.1233 26.2447 16.9329C26.0248 16.8254 25.9222 16.7424 25.8391 16.5959C25.6144 16.2004 25.1209 16.01 24.818 16.2004C24.6714 16.2932 24.4075 16.6838 24.1095 17.2405C23.8847 17.6605 23.9531 18.2611 24.2316 18.3295C24.2903 18.3441 24.4369 18.3783 24.559 18.4027C25.2284 18.5443 25.4922 18.6176 25.8294 18.7494C26.4206 18.9887 26.5232 19.1352 26.103 19.1352C25.9564 19.1352 25.8196 19.1596 25.8049 19.184C25.7903 19.2133 25.6779 19.2329 25.5558 19.2329C25.2968 19.2329 24.9988 19.3452 24.9988 19.4477C24.9988 19.5649 24.7789 19.7017 24.2903 19.897C24.0362 19.9947 23.7821 20.1314 23.7235 20.1949L23.616 20.3072L23.7626 20.7564C23.8457 21.0055 23.9287 21.2985 23.9483 21.401C23.9825 21.6012 24.2023 21.8698 24.3294 21.8698C24.3685 21.8698 24.5199 21.8063 24.6714 21.7233C24.884 21.6091 24.9586 21.5691 24.9847 21.5899C24.9988 21.6011 24.9988 21.63 24.9988 21.6745C24.9988 21.7282 25.033 21.7868 25.0769 21.8063C25.1991 21.8503 25.673 21.6843 25.9417 21.4938C26.2349 21.2838 26.8554 20.986 26.9092 21.0201C26.9629 21.0494 26.8603 21.2545 26.5916 21.6452C26.3571 21.987 26.2545 22.3533 26.274 22.783C26.2838 22.9734 26.2593 23.115 26.2056 23.2225C26.1616 23.3104 26.1225 23.4129 26.1225 23.4569C26.1225 23.5008 26.0737 23.6278 26.0199 23.7352L25.9124 23.9403L26.0883 24.0917C26.1812 24.1698 26.2838 24.287 26.3131 24.3456C26.3424 24.4091 26.4792 24.4921 26.6453 24.5556C26.8017 24.6142 27.002 24.7021 27.09 24.7558C27.3196 24.8876 27.7838 24.8876 27.9059 24.7509C27.9841 24.663 27.989 24.6191 27.9352 24.2968C27.8766 23.9305 27.9157 23.3543 28.033 22.7879C28.0916 22.5095 28.6095 21.3327 28.673 21.3327C28.6926 21.3327 28.7903 21.4596 28.888 21.6159C29.0395 21.8454 29.0834 21.9675 29.1323 22.3386C29.2202 22.9441 29.3619 23.3055 29.6111 23.5399C29.7186 23.6424 29.8505 23.7352 29.8945 23.7547C29.9874 23.784 29.9922 23.7938 30.0802 24.3505C30.1388 24.7021 30.2317 24.8828 30.3733 24.9023C30.4124 24.9121 30.5639 24.8974 30.7105 24.8779C30.9548 24.8388 30.9792 24.8486 31.0916 24.9658L31.2089 25.0927L31.4385 24.9755C31.5704 24.9121 31.7561 24.8437 31.8538 24.8242ZM36.7984 18.8325C37.033 18.6029 37.0672 18.5883 37.5509 18.5736C37.8147 18.5639 38.0786 18.5346 38.1372 18.5053C38.2691 18.432 38.3082 18.266 38.274 17.8998C38.2398 17.514 37.8733 16.3078 37.7512 16.1857C37.6388 16.0734 37.3896 16.0637 37.1795 16.1662C37.072 16.215 37.0378 16.2688 37.0281 16.4153C37.0085 16.6252 36.9694 16.635 36.5981 16.5227C36.4662 16.4836 36.3049 16.4494 36.2365 16.4494C36.1681 16.4494 36.0802 16.425 36.0411 16.3957C35.9776 16.3518 35.9776 16.3371 36.0606 16.2883C36.1095 16.2541 36.2463 16.1564 36.3636 16.0686C36.4808 15.9807 36.6958 15.8683 36.8375 15.8195C37.16 15.7121 37.5069 15.4923 37.5069 15.3996C37.5069 15.3605 37.4874 15.3263 37.4629 15.3263C37.4385 15.3263 37.3603 15.2042 37.2919 15.048C37.2186 14.8966 37.0965 14.6817 37.0134 14.5645C36.9352 14.4522 36.8522 14.3008 36.8229 14.2325C36.7984 14.1641 36.7545 14.1055 36.7251 14.1055C36.7007 14.1055 36.6763 14.0615 36.6763 14.0078C36.6763 13.9102 36.3636 13.6465 36.1437 13.5635C35.9971 13.5049 35.7137 13.5928 35.6356 13.7197C35.6062 13.7686 35.5476 13.8125 35.5134 13.8125C35.4792 13.8125 35.4059 13.8369 35.3522 13.8662C35.274 13.9053 35.2642 13.9346 35.3082 13.9834C35.3473 14.0322 35.3229 14.0762 35.1958 14.1739C35.103 14.2422 35.0053 14.3008 34.976 14.3008C34.9075 14.3008 34.673 14.5841 34.673 14.672C34.673 14.711 34.6584 14.7403 34.6339 14.7403C34.6144 14.7403 34.4825 14.8429 34.3359 14.9698C34.1942 15.0919 33.945 15.2628 33.7789 15.3458C33.3587 15.5607 33.3489 15.5802 33.5639 16.1027C33.6909 16.4153 33.7349 16.5813 33.7154 16.6838C33.6909 16.801 33.7154 16.8547 33.8375 16.9817C33.9597 17.1087 33.989 17.177 33.989 17.3528C33.989 17.5335 34.0183 17.597 34.1502 17.7337C34.287 17.8705 34.4141 18.1195 34.5069 18.4418C34.5167 18.4809 34.6535 18.5004 34.9515 18.5004C35.2984 18.5004 35.4108 18.5199 35.5281 18.5981C35.6258 18.6615 35.7577 18.6957 35.9189 18.6957C36.0753 18.6957 36.2512 18.7397 36.4075 18.8129C36.5444 18.8813 36.6616 18.935 36.6714 18.935C36.6812 18.9399 36.7398 18.8911 36.7984 18.8325ZM22.9124 18.0072C22.9564 17.9486 23.0541 17.7142 23.1225 17.4847C23.2935 16.928 23.5232 16.4348 23.7675 16.1125C23.8799 15.9709 23.9825 15.7902 23.9971 15.7072C24.0167 15.6291 24.0606 15.5509 24.0997 15.5363C24.1974 15.5021 24.1828 15.38 24.0704 15.1896C23.8896 14.8917 22.9857 13.7637 22.9271 13.7637C22.8978 13.7637 22.7952 13.6611 22.7023 13.5342C22.4873 13.2509 21.7007 12.5429 21.5981 12.5429C21.4613 12.5429 20.8261 13.2461 20.5134 13.7539C20.3424 14.0274 20.1909 14.2959 20.1763 14.3497C20.1421 14.4766 20.23 14.5743 20.4743 14.7013C20.5867 14.755 20.831 14.9015 21.0167 15.0235L21.3587 15.2433L21.2121 15.2872C21.0655 15.3312 20.3571 15.3068 20.0053 15.2482C19.8294 15.2189 19.8245 15.2189 19.7023 15.4826C19.6339 15.6291 19.4922 16.1076 19.3847 16.552C19.1502 17.5384 19.1258 17.7044 19.1991 17.7533C19.3359 17.846 21.5297 18.1195 21.7984 18.0853C21.9059 18.0658 22.0818 18.0756 22.1893 18.1049C22.4727 18.1781 22.8049 18.1293 22.9124 18.0072ZM32.8163 14.6622L33.0851 14.5401L32.8408 14.3252C32.572 14.086 32.5818 14.042 32.9141 13.9883C33.1046 13.959 33.2268 13.8565 33.4173 13.5683C33.476 13.4756 33.5737 13.3779 33.6274 13.3486C33.7838 13.2705 34.1844 12.9286 34.1844 12.87C34.1844 12.7821 34.3408 12.6405 34.4336 12.6405C34.5558 12.6405 34.9173 12.2889 34.9173 12.1669C34.9173 12.118 34.8636 12.0008 34.7952 11.908C34.7268 11.8153 34.673 11.6932 34.673 11.6346C34.673 11.5711 34.6193 11.4832 34.5411 11.4295C34.375 11.3172 32.8359 10.5163 32.6844 10.4724C32.616 10.448 32.5232 10.4773 32.3961 10.5652C32.2984 10.6335 32.2056 10.6775 32.1958 10.6677C32.1812 10.6579 32.2007 10.5603 32.2349 10.448C32.3131 10.1892 32.274 10.1501 31.8001 9.95476C31.5167 9.83756 31.3701 9.7399 31.1991 9.55922C30.9597 9.30529 30.8522 9.27111 30.6714 9.40296C30.5834 9.46156 30.4369 9.48597 30.1242 9.49086C29.4597 9.50062 29.3864 9.6227 29.3717 10.7361C29.3619 11.2781 29.3424 11.4295 29.2691 11.5662C29.1909 11.7127 29.1763 11.869 29.1616 12.6015L29.1421 13.4658L29.2593 13.4951C29.3229 13.5097 29.7088 13.5976 30.1193 13.6904C30.9157 13.8711 31.2724 14.0127 31.546 14.2715C31.7805 14.4913 31.9955 14.6329 32.2154 14.7159C32.4743 14.8087 32.5134 14.8038 32.8163 14.6622ZM25.7023 14.2373C25.9124 14.0762 26.6209 13.7637 26.7675 13.7637C26.8359 13.7637 26.9874 13.7197 27.1046 13.6709C27.2219 13.6172 27.4906 13.5537 27.7007 13.5244C27.9108 13.4951 28.1404 13.4414 28.2137 13.4023C28.3408 13.3339 28.3457 13.3193 28.3457 12.9238C28.3457 12.6503 28.3701 12.4843 28.4189 12.411C28.4776 12.3182 28.4825 12.2792 28.4287 12.201C28.3799 12.118 28.3799 12.0741 28.4483 11.952C28.502 11.8446 28.5167 11.7371 28.4922 11.5955C28.4434 11.283 28.4385 10.111 28.4874 9.77897C28.5509 9.32483 28.5069 9.30041 27.7398 9.33459C27.4027 9.34436 27.0606 9.37854 26.9776 9.40784C26.9255 9.42737 26.8343 9.45559 26.743 9.4838C26.6974 9.49791 26.6518 9.51202 26.6111 9.52504L26.3913 9.58852L26.3668 10.4284L26.3424 11.2683L25.9808 10.5603L25.6193 9.84733L25.3212 9.88151C24.9792 9.92546 24.7056 10.0134 24.5199 10.1403C24.4466 10.1892 24.1828 10.3405 23.9287 10.4724C23.2642 10.8191 22.8489 11.2195 22.8489 11.5174C22.8489 11.5809 22.9369 11.7225 23.0444 11.8397C23.1518 11.9569 23.2398 12.0838 23.2398 12.1278C23.2398 12.1669 23.274 12.201 23.3131 12.201C23.4255 12.201 23.8066 12.5722 23.8799 12.748C23.9629 12.9531 25.3457 14.3497 25.4629 14.3497C25.5118 14.3497 25.6193 14.2959 25.7023 14.2373ZM28.5945 16.2374L28.5944 16.237L28.5851 16.1955C28.5558 16.093 28.6633 16.0783 28.7512 16.1662C28.8147 16.2297 28.8196 16.4787 28.7659 16.718C28.7317 16.8548 28.7268 16.8401 28.6681 16.5715C28.6409 16.4434 28.6107 16.3091 28.5945 16.2374ZM28.7854 15.7658C28.7463 15.7658 28.7121 15.8097 28.7121 15.8635C28.7121 15.9807 28.7854 15.9953 28.8294 15.883C28.8733 15.7756 28.8685 15.7658 28.7854 15.7658ZM39.6567 27.9983C39.7154 27.925 39.8033 27.9397 39.8033 28.0276C39.8033 28.052 39.7545 28.0715 39.7007 28.0715C39.6128 28.0715 39.6079 28.0618 39.6567 27.9983ZM42.2707 22.1628C42.2317 22.1628 42.1975 22.1872 42.1975 22.2116C42.1975 22.2409 42.2317 22.2605 42.2707 22.2605C42.3098 22.2605 42.344 22.2409 42.344 22.2116C42.344 22.1872 42.3098 22.1628 42.2707 22.1628Z" fill="black"/>
</svg>
