<svg width="53" height="53" viewBox="0 0 53 53" fill="none" xmlns="http://www.w3.org/2000/svg">
<path d="M26.4615 49L22.9231 40.6923L24.5598 21H23.3846L22 22.3846L19.6154 20L22 17.6154L23.5385 19.1538H24.7133L25.3846 11.0769L23.1538 9.30769L26.4615 4L29.7692 9.30769L27.5385 11.0769L28.2098 19.1538H29.3846L30.9231 17.6154L33.3077 20L30.9231 22.3846L29.5385 21H28.3632L30 40.6923L26.4615 49Z" fill="black"/>
<path d="M23.4615 24.7692C19.8308 24.0923 18.3077 19.6667 18 17.5385H5L5.53846 22.6154L12.2308 22.6923C12.2308 22.6923 12.263 23.2564 12.3077 23.6154C12.3529 23.978 12.4615 24.5385 12.4615 24.5385L6.30769 25.6154L8.76923 30.3077L13.7692 27.9231C13.7692 27.9231 14.1552 28.65 14.4615 29.0769C14.7598 29.4926 15.3077 30.0769 15.3077 30.0769L11.1538 33.1538L14 36.3077L17.8462 32.4615C17.8462 32.4615 18.3842 32.9626 18.7692 33.2308C19.1667 33.5076 19.8462 33.8462 19.8462 33.8462L17.4615 38.7692L21.7692 40.3846C22.2308 36.2308 23.2154 27.2923 23.4615 24.7692Z" fill="black"/>
<path d="M29.5385 24.7692C33.1692 24.0923 34.6923 19.6667 35 17.5385H48L47.4615 22.6154L40.7692 22.6923C40.7692 22.6923 40.737 23.2564 40.6923 23.6154C40.6471 23.978 40.5385 24.5385 40.5385 24.5385L46.6923 25.6154L44.2308 30.3077L39.2308 27.9231C39.2308 27.9231 38.8448 28.65 38.5385 29.0769C38.2402 29.4926 37.6923 30.0769 37.6923 30.0769L41.8462 33.1538L39 36.3077L35.1538 32.4615C35.1538 32.4615 34.6158 32.9626 34.2308 33.2308C33.8333 33.5076 33.1538 33.8462 33.1538 33.8462L35.5385 38.7692L31.2308 40.3846C30.7692 36.2308 29.7846 27.2923 29.5385 24.7692Z" fill="black"/>
</svg>
