<svg width="53" height="53" viewBox="0 0 53 53" fill="none" xmlns="http://www.w3.org/2000/svg">
<path fill-rule="evenodd" clip-rule="evenodd" d="M34.6361 18.3383C34.6465 18.1627 34.6518 17.9857 34.6518 17.8074C34.6518 12.9432 30.7086 9 25.8444 9C21.3841 9 17.6982 12.3156 17.1168 16.6165L15.0669 14.9875L16.4576 13.6741L7.80469 12.0903L10.6632 24.2584L11.7835 21.284L15.9936 24.4937C12.1082 24.8993 9.07944 28.1846 9.07944 32.1774C9.07944 36.4442 12.5384 39.9032 16.8052 39.9032C19.795 39.9032 22.3882 38.2048 23.6726 35.7203L23.7971 39.4396L22.4837 39.2851L26.4238 44.5L30.4799 38.7829L29.2051 39.2851L29.3264 36.1975C30.7112 38.1588 32.9954 39.4396 35.5789 39.4396C39.8031 39.4396 43.2274 36.0152 43.2274 31.7911C43.2274 27.7333 40.0675 24.4135 36.0741 24.1583L40.1757 21.9793L40.9483 24.3743L44.6953 14.4853H36.3128L37.2013 16.4168L34.6361 18.3383ZM25.8444 23.988C29.2579 23.988 32.025 21.2209 32.025 17.8074C32.025 14.3939 29.2579 11.6268 25.8444 11.6268C22.4309 11.6268 19.6638 14.3939 19.6638 17.8074C19.6638 21.2209 22.4309 23.988 25.8444 23.988ZM40.9869 31.7911C40.9869 34.7779 38.5657 37.1991 35.5789 37.1991C32.5921 37.1991 30.1708 34.7779 30.1708 31.7911C30.1708 28.8043 32.5921 26.383 35.5789 26.383C38.5657 26.383 40.9869 28.8043 40.9869 31.7911ZM21.827 32.1774C21.827 34.9508 19.5787 37.1991 16.8052 37.1991C14.0318 37.1991 11.7835 34.9508 11.7835 32.1774C11.7835 29.4039 14.0318 27.1556 16.8052 27.1556C19.5787 27.1556 21.827 29.4039 21.827 32.1774ZM29.3197 18.6582C30.222 19.7624 28.9949 21.5206 28.8253 21.6655C28.6601 21.8063 28.3 21.7135 28.0309 21.6442C27.806 21.5862 27.6447 21.5447 27.7137 21.6694C27.8255 21.877 27.9338 23.4472 27.9338 23.4472H27.6343L27.4899 22.899L27.2337 22.8951L27.1867 23.4433H26.667L26.6201 22.9186L26.4469 22.8912L26.4216 23.4394H26.0066L25.9849 22.8755H25.642L25.6204 23.4394H25.1981L25.1729 22.8912L24.9996 22.9186L24.9527 23.4433H24.433L24.3861 22.8951L24.1298 22.899L23.9855 23.4472H23.6859C23.6859 23.4472 23.7906 21.877 23.9061 21.6694C23.9748 21.5452 23.815 21.5867 23.5916 21.6448C23.3222 21.7148 22.9602 21.8089 22.7945 21.6655C22.6249 21.5246 21.3942 19.7664 22.3 18.6582C22.3787 18.5633 22.2966 18.2561 22.18 17.8195C21.9596 16.9944 21.6158 15.7074 22.0005 14.5192C22.6862 12.3929 24.7217 12.06 25.5987 12.017C25.5987 12.017 25.6709 12.0131 25.8008 12.0131H25.8081C25.9344 12.0131 26.0102 12.017 26.0102 12.017C26.8908 12.06 28.9227 12.3929 29.612 14.5192C29.9929 15.7002 29.6555 16.9809 29.4379 17.8071C29.3214 18.2493 29.2392 18.5613 29.3197 18.6582ZM25.2049 19.6274C24.9703 19.4981 24.6779 19.3611 24.3351 19.2475C23.9128 19.1065 23.5302 19.0439 23.2235 19.0126C23.209 19.0126 23.1946 19.0165 23.1802 19.0204C22.9239 19.1183 22.8445 19.2788 22.8229 19.3258C22.6821 19.643 22.8662 20.1521 23.3498 20.4771C23.3606 20.4849 23.375 20.4888 23.3895 20.4927C23.6096 20.5241 24.1582 20.575 24.714 20.2421C24.945 20.1051 25.1146 19.9406 25.2337 19.7996C25.277 19.7448 25.2626 19.6626 25.2049 19.6274ZM28.4205 19.0243C28.4061 19.0165 28.3917 19.0126 28.3772 19.0165C28.0705 19.0478 27.6879 19.1105 27.2656 19.2514C26.9228 19.3611 26.634 19.4981 26.3958 19.6313C26.3381 19.6626 26.3237 19.7448 26.367 19.7997C26.4861 19.9367 26.6557 20.1051 26.8867 20.2421C27.4389 20.575 27.9875 20.5241 28.2112 20.4928C28.2257 20.4888 28.2365 20.4849 28.2509 20.4771C28.7381 20.156 28.9222 19.6469 28.7778 19.3298C28.7562 19.2828 28.6732 19.1222 28.4205 19.0243ZM26.0169 20.5045C25.9664 20.4536 25.905 20.4066 25.8292 20.3635C25.7534 20.4066 25.6885 20.4536 25.6416 20.5045C25.2626 20.9039 25.2518 21.4482 25.2662 21.7184C25.2662 21.7536 25.3095 21.7693 25.3312 21.7419C25.3817 21.6714 25.4539 21.5892 25.5513 21.5148C25.6524 21.4365 25.7534 21.3856 25.8292 21.3542C25.905 21.3856 26.0061 21.4325 26.1071 21.5148C26.201 21.5892 26.2768 21.6714 26.3273 21.7419C26.3489 21.7693 26.3886 21.7576 26.3922 21.7184C26.4067 21.4521 26.3995 20.9 26.0169 20.5045ZM37.9148 34.7983C38.0482 34.6848 39.0132 33.3067 38.3036 32.4412C38.2403 32.3652 38.305 32.1207 38.3966 31.7741C38.5677 31.1266 38.833 30.1228 38.5335 29.1971C37.9914 27.5306 36.3935 27.2697 35.701 27.2359C35.701 27.2359 35.6414 27.2329 35.5421 27.2329H35.5364C35.4342 27.2329 35.3775 27.2359 35.3775 27.2359C34.6878 27.2697 33.087 27.5306 32.5478 29.1971C32.2452 30.1284 32.5156 31.1372 32.6889 31.7839C32.7807 32.1261 32.8452 32.3669 32.7833 32.4412C32.0709 33.3098 33.0388 34.6878 33.1722 34.7983C33.3025 34.9107 33.5871 34.837 33.799 34.7821C33.9747 34.7365 34.1004 34.704 34.0463 34.8014C33.9555 34.964 33.8732 36.1948 33.8732 36.1948H34.1088L34.2223 35.7651L34.4238 35.762L34.4607 36.1917H34.8694L34.9063 35.7804L35.0425 35.759L35.0624 36.1886H35.3945L35.4115 35.7467H35.6811L35.6982 36.1886H36.0246L36.0444 35.759L36.1807 35.7804L36.2176 36.1917H36.6263L36.6632 35.762L36.8647 35.7651L36.9782 36.1948H37.2138C37.2138 36.1948 37.1286 34.964 37.0406 34.8014C36.9864 34.7036 37.1133 34.7362 37.2901 34.7816C37.5018 34.8359 37.7849 34.9087 37.9148 34.7983ZM34.3837 32.9031C34.6533 32.9921 34.8832 33.0995 35.0677 33.2008C35.1131 33.2284 35.1245 33.2929 35.0904 33.3359C34.9967 33.4464 34.8633 33.5753 34.6817 33.6827C34.2446 33.9436 33.8132 33.9037 33.6401 33.8791C33.6287 33.876 33.6174 33.873 33.6089 33.8668C33.2285 33.6121 33.0838 33.2131 33.1945 32.9645C33.2115 32.9277 33.274 32.8018 33.4755 32.7251C33.4868 32.722 33.4982 32.719 33.5095 32.719C33.7508 32.7435 34.0516 32.7926 34.3837 32.9031ZM37.5625 32.722C37.5738 32.719 37.5852 32.722 37.5965 32.7282C37.7952 32.8049 37.8605 32.9307 37.8775 32.9676C37.9911 33.2162 37.8463 33.6152 37.4631 33.8668C37.4518 33.873 37.4433 33.876 37.4319 33.8791C37.256 33.9037 36.8245 33.9436 36.3903 33.6827C36.2087 33.5753 36.0753 33.4433 35.9816 33.3359C35.9475 33.2929 35.9589 33.2284 36.0043 33.2039C36.1916 33.0995 36.4187 32.9921 36.6883 32.9062C37.0204 32.7957 37.3212 32.7466 37.5625 32.722ZM35.5587 33.7778C35.6183 33.8116 35.6666 33.8484 35.7063 33.8883C36.0071 34.1983 36.0128 34.6311 36.0015 34.8398C35.9986 34.8704 35.9674 34.8797 35.9504 34.8582C35.9106 34.8029 35.851 34.7385 35.7772 34.6802C35.6978 34.6157 35.6183 34.5789 35.5587 34.5543C35.4991 34.5789 35.4196 34.6188 35.3402 34.6802C35.2635 34.7385 35.2068 34.8029 35.167 34.8582C35.15 34.8797 35.1159 34.8674 35.1159 34.8398C35.1046 34.628 35.1131 34.2014 35.4111 33.8883C35.448 33.8484 35.4991 33.8116 35.5587 33.7778ZM19.1598 35.2087C19.2899 35.0971 20.231 33.7428 19.539 32.8922C19.4772 32.8176 19.5403 32.5772 19.6296 32.2367C19.7966 31.6002 20.0553 30.6138 19.7632 29.7041C19.2345 28.0662 17.6761 27.8099 17.0006 27.7767C17.0006 27.7767 16.9425 27.7737 16.8456 27.7737H16.8401C16.7404 27.7737 16.6851 27.7767 16.6851 27.7767C16.0124 27.8099 14.4512 28.0662 13.9252 29.7041C13.6302 30.6193 13.8939 31.6107 14.0629 32.2462C14.1524 32.5825 14.2153 32.8192 14.155 32.8922C13.4602 33.7458 14.4041 35.1001 14.5342 35.2087C14.6613 35.3191 14.939 35.2467 15.1456 35.1927C15.317 35.148 15.4395 35.116 15.3868 35.2117C15.2982 35.3716 15.218 36.5811 15.218 36.5811H15.4477L15.5584 36.1588L15.755 36.1558L15.791 36.5781H16.1896L16.2256 36.1739L16.3584 36.1528L16.3778 36.575H16.7017L16.7183 36.1407H16.9813L16.9979 36.575H17.3162L17.3356 36.1528L17.4684 36.1739L17.5044 36.5781H17.903L17.939 36.1558L18.1356 36.1588L18.2463 36.5811H18.476C18.476 36.5811 18.393 35.3716 18.3072 35.2117C18.2543 35.1156 18.378 35.1476 18.5505 35.1922C18.7569 35.2457 19.0331 35.3171 19.1598 35.2087ZM15.7158 33.3462C15.9788 33.4336 16.203 33.5392 16.383 33.6387C16.4272 33.6659 16.4383 33.7292 16.4051 33.7714C16.3138 33.88 16.1837 34.0067 16.0065 34.1123C15.5802 34.3687 15.1594 34.3294 14.9906 34.3053C14.9795 34.3023 14.9684 34.2993 14.9601 34.2933C14.5892 34.0429 14.448 33.6508 14.556 33.4065C14.5726 33.3703 14.6335 33.2466 14.83 33.1712C14.8411 33.1682 14.8522 33.1652 14.8633 33.1652C15.0985 33.1893 15.392 33.2376 15.7158 33.3462ZM18.8161 33.1682C18.8272 33.1652 18.8383 33.1682 18.8494 33.1742C19.0431 33.2496 19.1068 33.3733 19.1234 33.4095C19.2341 33.6538 19.093 34.0459 18.7193 34.2933C18.7082 34.2993 18.6999 34.3023 18.6888 34.3053C18.5172 34.3295 18.0964 34.3687 17.6729 34.1123C17.4957 34.0067 17.3656 33.877 17.2743 33.7715C17.2411 33.7292 17.2521 33.6659 17.2964 33.6418C17.4791 33.5392 17.7006 33.4336 17.9636 33.3492C18.2874 33.2406 18.5808 33.1923 18.8161 33.1682ZM16.8618 34.2058C16.92 34.239 16.967 34.2752 17.0058 34.3144C17.2992 34.619 17.3047 35.0443 17.2937 35.2494C17.2909 35.2796 17.2605 35.2886 17.2438 35.2675C17.2051 35.2132 17.147 35.1499 17.075 35.0926C16.9975 35.0292 16.92 34.993 16.8618 34.9689C16.8037 34.993 16.7262 35.0322 16.6487 35.0926C16.574 35.1499 16.5186 35.2132 16.4798 35.2675C16.4632 35.2886 16.43 35.2766 16.43 35.2494C16.4189 35.0413 16.4272 34.622 16.7179 34.3144C16.7539 34.2752 16.8037 34.239 16.8618 34.2058Z" fill="black"/>
</svg>
