<svg width="53" height="53" viewBox="0 0 53 53" fill="none" xmlns="http://www.w3.org/2000/svg">
<path d="M22.4856 51.9908C22.4856 51.9772 22.8564 51.4106 23.3132 50.7308C24.1905 49.4118 24.2086 49.3801 24.801 48.401C25.8773 46.6198 26.7546 44.9065 27.3063 43.4969C27.4782 43.0572 27.5053 42.9394 27.5053 42.6493C27.5053 42.2323 27.4691 42.0329 27.3877 42.0329C27.3154 42.0329 26.6551 42.3773 26.5511 42.468C26.5149 42.5042 26.4697 42.5314 26.4516 42.5314C26.42 42.5314 25.5743 43.1025 25.4567 43.2023C25.3844 43.2657 25.3663 43.2612 25.2668 43.166C25.1763 43.0799 25.1266 43.0663 24.9638 43.0889C24.7332 43.1207 24.5658 43.2068 24.1136 43.5059C23.3177 44.0362 22.775 44.8385 23.0509 45.0696C23.1142 45.124 23.087 45.1603 22.8383 45.3824C22.2821 45.8764 20.4415 47.7529 19.8084 48.4736C19.4195 48.9178 19.0713 49.2849 19.0396 49.2849C19.0034 49.2849 19.0487 49.1852 19.2386 48.877C19.4647 48.5053 20.0209 47.4719 20.2697 46.9461C20.8666 45.7178 21.2239 44.6934 21.4274 43.6419C21.5223 43.1569 21.5404 41.8062 21.4545 41.5162C21.4274 41.4164 21.4138 41.3258 21.4229 41.3167C21.4319 41.3031 21.554 41.3485 21.6897 41.4119C22.4585 41.779 23.4307 41.77 24.4302 41.3847C24.7286 41.2759 25.7009 40.7774 25.7416 40.7184C25.7552 40.7003 25.8275 40.655 25.8999 40.6142C25.9768 40.5779 26.1215 40.4827 26.23 40.4012C26.4697 40.2289 26.4426 40.1745 26.0537 40.034C25.8321 39.9524 25.7959 39.9252 25.8321 39.8618C25.8547 39.8165 25.9044 39.549 25.9496 39.2635C26.0356 38.6652 26.013 37.4324 25.9044 36.8885C25.8682 36.7162 25.8456 36.5666 25.8502 36.5576C25.8592 36.5531 25.9632 36.5848 26.0853 36.6301C26.6913 36.8658 27.035 36.748 27.1164 36.272C27.1978 35.8143 26.8722 35.0709 26.4109 34.6539C26.2979 34.5542 26.2979 34.5542 25.9858 34.6267C25.814 34.663 25.6557 34.7129 25.6286 34.7355C25.606 34.7536 25.5155 34.7854 25.4341 34.8035C25.3527 34.8216 25.2306 34.8624 25.1628 34.8987C25.0949 34.9349 25.0135 34.9621 24.9819 34.9621C24.9005 34.9621 24.4844 35.089 24.3171 35.1661C24.1633 35.2341 23.6162 35.4154 23.5619 35.4154C23.5438 35.4154 23.5257 35.3565 23.5257 35.2794C23.5257 35.2024 23.485 35.1026 23.4353 35.0528C23.2544 34.8715 22.5806 34.9531 22.2956 35.1842C21.8525 35.5423 21.7304 35.7055 21.6806 36.0092C21.6444 36.2222 21.6761 36.195 20.8576 36.5848C20.0164 36.9791 19.0125 37.4913 18.913 37.5683C18.8768 37.6001 18.7954 37.6409 18.7321 37.6635C18.619 37.7043 18.0176 38.0352 17.6694 38.2527C17.5699 38.3117 17.3754 38.425 17.2398 38.4975C17.1041 38.5746 16.8192 38.7468 16.6066 38.8828C16.3941 39.0187 16.1635 39.1638 16.0866 39.2046C16.0142 39.2454 15.8152 39.3723 15.6479 39.4856C15.4761 39.5989 15.3314 39.685 15.3223 39.6714C15.3087 39.6624 15.4263 39.5218 15.5846 39.3587C16.9865 37.8901 18.3387 36.0998 19.3652 34.3729C19.519 34.11 19.6546 33.8879 19.6682 33.8743C19.6773 33.8653 19.736 33.9197 19.7994 34.0012C19.9802 34.2279 20.229 34.1825 20.5274 33.8653C21.0475 33.3168 21.1606 32.3016 20.7129 32.2109C20.6405 32.1973 20.5862 32.1746 20.5862 32.161C20.5862 32.152 20.6586 32.0069 20.7445 31.8392C20.9028 31.531 21.4002 30.484 21.4002 30.4523C21.4002 30.4432 21.459 30.3072 21.5314 30.1486C21.8118 29.5367 21.8072 29.5503 21.7349 29.2648C21.6535 28.9339 21.554 28.6982 21.3731 28.4081C21.1108 27.9957 20.5184 27.5288 20.2561 27.5288C20.1114 27.5288 19.4421 27.7056 19.3924 27.76C19.3652 27.7826 19.32 27.8008 19.2838 27.8008C19.1662 27.8008 18.506 28.1634 18.1668 28.4127C17.0362 29.2512 16.4936 30.7832 16.6428 32.7185C16.6745 33.1038 16.7378 33.6069 16.7875 33.8381C16.8689 34.2324 16.9051 34.5769 16.8463 34.4182C16.8327 34.382 16.8011 34.3412 16.783 34.3276C16.7513 34.3049 16.064 32.9497 16.064 32.9044C16.064 32.8908 16.0006 32.7503 15.9283 32.5871C15.6343 31.9571 15.2816 31.037 14.9379 30.0217C14.3229 28.2087 13.8119 25.8926 13.6445 24.1476C13.5993 23.6762 13.5812 23.6671 13.2828 23.9209C13.1426 24.0433 13.0205 24.1294 13.0069 24.1158C12.9662 24.0796 13.1154 20.8298 13.1923 20.0275C13.2285 19.6286 13.2918 19.0802 13.328 18.8037C13.4184 18.1465 13.4275 18.1918 13.1923 18.1918C13.0024 18.1918 12.9888 18.1828 13.0114 18.0921C13.025 18.0332 13.0657 17.8338 13.1019 17.6479C13.4094 16.1613 13.3777 16.3018 13.6672 15.1777C13.8435 14.4978 14.0968 13.6593 14.2144 13.3738C14.2641 13.2514 14.3003 13.1471 14.2912 13.1426C14.2144 13.0928 14.0063 13.0248 13.9385 13.0248C13.8435 13.0248 13.8164 12.8979 13.8887 12.8163C13.9068 12.7936 13.9701 12.6214 14.0244 12.4355C14.0787 12.2497 14.151 12.0231 14.1827 11.937C14.2189 11.8508 14.3229 11.5653 14.4179 11.3024C14.5761 10.8537 14.8068 10.2554 14.965 9.89733C15.1233 9.53473 15.3449 9.05428 15.3856 8.99082C15.4082 8.95456 15.4806 8.82312 15.5484 8.69621C15.675 8.45599 16.0911 7.82144 16.2449 7.63107C16.4303 7.39538 16.3172 7.21408 15.9419 7.15062C15.8333 7.13249 15.7474 7.1053 15.7474 7.0917C15.7474 7.07357 15.8243 6.95573 15.9147 6.82881C16.0097 6.7019 16.1182 6.55233 16.1544 6.49794C16.2358 6.37556 16.6699 5.84073 16.9503 5.51439C17.4342 4.95235 18.7547 3.73311 18.8768 3.73311C18.8949 3.73311 18.8678 3.84189 18.818 3.9688C18.6778 4.3178 18.203 5.77727 18.1216 6.10361C18.0809 6.25772 18.0221 6.46621 17.9859 6.56593C17.909 6.78802 17.7236 7.60388 17.6287 8.12965C17.588 8.34268 17.5382 8.60556 17.5156 8.71887C17.4704 8.92284 17.398 9.44408 17.3392 9.98798C17.3076 10.2826 17.3076 10.2826 17.1493 10.3053C16.7649 10.3596 16.4619 11.2843 16.5343 12.1817C16.5885 12.848 16.8056 13.1154 17.1131 12.8888C17.1855 12.8344 17.2533 12.7981 17.2669 12.8072C17.2759 12.8163 17.3031 13.0701 17.3302 13.3692C17.4297 14.5658 17.701 15.921 18.0583 17.0587C18.2347 17.6162 18.6281 18.7085 18.7321 18.9397C18.7818 19.0394 18.8994 19.3068 18.9944 19.5289C19.0939 19.7555 19.2386 20.0728 19.3155 20.2451C19.5099 20.6711 19.5009 20.7074 19.2476 20.5533C19.0532 20.4309 18.3703 20.1453 18.2573 20.1363C18.0764 20.1227 18.0538 20.1408 18.0538 20.304C18.0538 20.4717 18.1804 20.7527 18.5919 21.4915C18.7185 21.7181 18.8225 21.9402 18.8225 21.9765C18.8225 22.0717 18.7457 22.0626 18.6326 21.9538C18.5829 21.9085 18.4155 21.8042 18.2618 21.7272C17.9271 21.564 17.6648 21.5504 17.4206 21.6864C17.1584 21.836 17.0815 22.0037 17.0815 22.4297C17.0815 22.8694 17.181 23.1096 17.5066 23.436C17.9452 23.8801 18.0085 23.9164 18.8135 24.1566C19.5868 24.3878 20.1069 24.4603 20.2652 24.3606C20.437 24.2518 20.2244 23.8348 19.8174 23.4858C19.6908 23.377 19.5913 23.2773 19.5913 23.2592C19.5913 23.2365 19.6818 23.2229 19.7903 23.2229C20.3149 23.2229 21.2058 22.9782 21.8525 22.6609C22.1962 22.4887 22.9559 21.9991 23.1639 21.8178C23.2996 21.6955 23.6433 21.4552 23.6795 21.4552C23.693 21.4552 23.6162 21.6003 23.5031 21.7816C23.2725 22.1533 23.1097 22.5566 23.0056 23.0099C22.9242 23.3725 22.9197 23.5039 22.9876 23.7351C23.0418 23.93 23.0147 23.93 23.5348 23.7759C23.7337 23.7215 23.8061 23.6762 23.8377 23.5855C23.8875 23.4631 24.1362 22.5294 24.2267 22.1351C24.2583 21.9991 24.3171 21.7635 24.3578 21.6139C24.4302 21.3329 24.6698 20.3221 24.7241 20.0592C24.7558 19.9097 24.8236 19.8689 24.8643 19.9776C24.8779 20.0139 24.9457 20.0638 25.0181 20.0955C25.5653 20.3221 26.0944 18.7992 25.6828 18.1828C25.5698 18.0151 25.3663 17.9652 25.1944 18.0559C25.104 18.1057 25.0995 18.1012 25.1266 17.9788C25.1447 17.9108 25.1854 17.6842 25.2216 17.4802C25.2894 17.1131 25.4115 16.4468 25.4477 16.2655C25.4567 16.2157 25.5065 15.8984 25.5562 15.563C25.606 15.2276 25.6693 14.8196 25.7009 14.6565C25.7281 14.4933 25.7552 14.312 25.7642 14.2485C25.7733 14.1851 25.814 13.9222 25.8547 13.6593C25.8954 13.3964 25.9361 13.0928 25.9496 12.9794C25.9587 12.8661 25.9994 12.5715 26.0356 12.3222C26.0672 12.0729 26.1124 11.7511 26.1305 11.6106C26.1441 11.4656 26.1758 11.3568 26.1938 11.3704C26.2165 11.384 26.2843 11.5698 26.3521 11.7919C26.4154 12.0095 26.4878 12.2361 26.5104 12.2996C26.533 12.363 26.6054 12.6168 26.6687 12.8661C26.732 13.1154 26.8044 13.3602 26.827 13.41C26.8496 13.4599 26.9129 13.6638 26.9626 13.8633C27.0169 14.0627 27.0757 14.2667 27.0983 14.3165C27.1209 14.3664 27.1842 14.5794 27.2385 14.7924C27.2928 15.0055 27.3515 15.2004 27.3696 15.223C27.3877 15.2502 27.442 15.4134 27.4827 15.5856C27.5279 15.7624 27.5867 15.9664 27.6184 16.0389C27.6862 16.1975 27.8671 16.7324 27.8852 16.8321C27.8897 16.8683 27.9168 16.9499 27.944 17.0134C27.9711 17.0768 28.0073 17.1992 28.0254 17.2853C28.0435 17.3714 28.0796 17.4848 28.1113 17.5346C28.1429 17.5845 28.1927 17.7204 28.2289 17.8428C28.2605 17.9607 28.3057 18.0695 28.3284 18.0831C28.3464 18.0966 28.3555 18.1284 28.3419 18.151C28.3284 18.1737 28.3464 18.2553 28.3826 18.3369C28.4188 18.4185 28.5138 18.6587 28.5907 18.8717C28.6675 19.0847 28.7489 19.2978 28.7715 19.3476C28.7942 19.3975 28.8756 19.6105 28.9479 19.8235C29.1514 20.4264 29.3866 21.0473 29.5132 21.3329L29.6263 21.5958L29.8885 21.5822L30.1508 21.5686L30.1373 21.3646C30.1056 20.857 29.7755 20.2179 29.2328 19.6286C29.0971 19.4836 29.0022 19.3522 29.0157 19.3386C29.0474 19.3068 29.4454 19.4564 29.5901 19.5607C29.8298 19.7238 30.5759 20.023 31.0327 20.1363C31.7608 20.3221 33.036 20.372 33.3029 20.2269C33.4611 20.1408 33.443 20.2224 33.235 20.4898C32.9773 20.8298 32.8416 21.0836 32.8416 21.2377C32.8416 21.3646 32.9456 21.5006 33.0406 21.5006C33.2215 21.5006 34.343 21.002 34.7048 20.7618C34.7862 20.7074 34.9037 20.6349 34.9671 20.6031C35.1072 20.5261 35.3741 20.1635 35.5595 19.7827C35.8172 19.2706 35.7313 18.6768 35.365 18.4049C35.2158 18.2915 34.8495 18.2553 34.6324 18.3278C34.4651 18.3822 34.1304 18.6768 33.9134 18.9624L33.7958 19.121L33.8817 18.8037C33.9269 18.627 34.0309 18.2734 34.1123 18.0105C34.352 17.2173 34.3656 17.1222 34.2661 17.0134C34.2028 16.9454 34.1485 16.9273 34.0671 16.9454C33.9315 16.9816 33.5878 17.2037 33.2124 17.5074C33.0587 17.6343 32.923 17.7386 32.9139 17.7386C32.9004 17.7386 32.9411 17.5799 32.9999 17.385C33.0994 17.0678 33.1808 16.7324 33.2983 16.1522C33.3797 15.776 33.5651 14.457 33.6556 13.614C33.746 12.8253 33.6692 10.1965 33.5425 9.61631C33.5154 9.4894 33.5199 9.48487 33.6013 9.53019C33.6556 9.55739 33.7099 9.60271 33.7234 9.62538C33.737 9.65257 33.8094 9.6707 33.8817 9.6707C34.0943 9.6707 34.1757 9.49847 34.1711 9.05881C34.1711 8.63729 34.0445 8.17497 33.8094 7.72172C33.5651 7.25034 33.3662 7.06904 33.1084 7.09623C32.9727 7.10983 32.9637 7.10077 32.9004 6.88321C32.7557 6.37103 32.6426 6.01749 32.6155 5.9767C32.5974 5.95404 32.5476 5.81806 32.5024 5.68209C32.4572 5.54611 32.3894 5.38748 32.3532 5.32855C32.317 5.27416 32.3034 5.22884 32.317 5.22884C32.3351 5.22884 32.2989 5.13365 32.2356 5.01581C32.1768 4.89343 32.0909 4.7076 32.0457 4.59428C32.0004 4.48097 31.9507 4.38126 31.9371 4.36766C31.9236 4.35406 31.91 4.31327 31.901 4.27701C31.8829 4.19996 31.4985 3.42943 31.2362 2.93992C31.1412 2.76768 31.0327 2.56372 30.9965 2.48667C30.9558 2.41414 30.897 2.32349 30.8654 2.29177C30.8337 2.26004 30.8066 2.21471 30.8066 2.19205C30.8066 2.16939 30.7478 2.06061 30.6709 1.95183C30.594 1.83852 30.5352 1.73427 30.5352 1.7116C30.5352 1.69347 30.5081 1.64362 30.4764 1.60736C30.4403 1.56656 30.3453 1.41246 30.2639 1.26742L30.1147 1L30.2277 1.0272C30.49 1.09518 31.6748 1.81585 32.3667 2.32803C32.8461 2.6861 33.8817 3.58807 33.8817 3.65152C33.8817 3.66512 33.8094 3.70591 33.7234 3.73311C33.5561 3.7875 33.339 3.97333 33.339 4.05492C33.339 4.08211 33.5154 4.27248 33.728 4.47191C34.1802 4.9025 34.7048 5.50985 35.0846 6.05375C35.2293 6.25772 35.365 6.43902 35.3831 6.44355C35.4012 6.45262 35.4193 6.47981 35.4193 6.50701C35.4193 6.52967 35.469 6.61579 35.5278 6.69284C35.6273 6.82881 35.8172 7.12796 36.3011 7.92568C36.5046 8.26562 36.9569 9.07241 36.9569 9.09961C36.9569 9.10867 36.8664 9.1404 36.7533 9.16759C36.6403 9.19479 36.5498 9.24011 36.5498 9.26731C36.5498 9.29904 36.5951 9.39422 36.6539 9.48487C37.0111 10.0605 37.4407 10.8764 37.902 11.8644C38.1507 12.3902 38.811 13.9086 38.811 13.9539C38.811 13.9675 38.7838 13.9766 38.7522 13.9766C38.6572 13.9766 38.4492 14.0854 38.4492 14.1398C38.4492 14.1624 38.4989 14.3165 38.5668 14.4797C38.7477 14.9375 39.0597 15.9482 39.2858 16.8094C39.7787 18.6723 40.0365 19.7601 39.9958 19.7963C39.9551 19.8371 39.9054 19.8281 39.8421 19.7646C39.7561 19.683 39.3944 19.4972 39.3672 19.5244C39.3537 19.538 39.3717 19.7555 39.4034 20.0139C39.4893 20.653 39.4938 24.3561 39.4079 25.0359C39.3763 25.2988 39.3084 25.8473 39.2587 26.2597C39.2089 26.6722 39.1411 27.1526 39.1049 27.3249C39.0688 27.5016 39.0009 27.8778 38.9467 28.1634C38.811 28.8976 38.3904 30.5339 38.3316 30.552C38.2954 30.5656 38.2728 30.3571 38.2547 29.8993C38.1824 28.0546 37.6714 26.6132 36.7941 25.7521C36.3825 25.3532 35.7585 24.9453 35.5549 24.9453C35.5052 24.9453 35.4645 24.9271 35.4645 24.909C35.4645 24.8864 35.3469 24.841 35.2067 24.8093C35.062 24.7776 34.9264 24.7368 34.8992 24.7187C34.8314 24.6688 34.1395 24.5827 33.7867 24.5827C33.4837 24.5827 33.4792 24.5827 33.226 24.8138C32.7331 25.2671 32.525 25.8065 32.4888 26.6994C32.4662 27.2886 32.4708 27.2977 32.5929 27.5152C32.7466 27.7781 33.339 28.6619 33.4159 28.7435C33.4973 28.8251 33.4928 28.8387 33.3616 28.9611C33.2622 29.0563 33.2486 29.0925 33.2757 29.2376C33.3164 29.4733 33.5561 29.7951 33.7732 29.9174C33.9631 30.0217 34.1983 30.0534 34.1983 29.9718C34.1983 29.8631 34.3339 29.9764 34.6686 30.3616C34.8676 30.5883 35.2429 30.9871 35.5052 31.2545L35.98 31.7441L35.8986 31.8846C35.6951 32.229 36.0343 32.8455 36.5725 33.0993C36.6855 33.1537 36.8348 33.1945 36.9116 33.1945C37.0563 33.1945 37.2282 33.0585 37.2282 32.9452C37.2282 32.8409 37.2734 32.8591 37.6352 33.131C37.8206 33.267 38.1236 33.4755 38.3045 33.5933C38.6482 33.8109 38.716 33.897 38.508 33.8562C38.2728 33.8109 37.3005 33.693 37.1377 33.693C37.0473 33.693 36.9569 33.6749 36.9297 33.6522C36.88 33.6024 35.6137 33.5117 34.5103 33.48L33.6692 33.4528L33.6918 33.344C33.7234 33.1854 33.6285 33.0404 33.4114 32.918C33.2486 32.8228 33.1717 32.8092 32.7195 32.8092C32.2311 32.8092 32.2085 32.8137 32.0185 32.9452C31.7969 33.1038 31.7472 33.267 31.8693 33.4528C31.91 33.5117 31.9371 33.5707 31.9281 33.5752C31.8693 33.6114 31.6477 33.7021 31.4352 33.7792C30.8473 33.9876 29.8207 34.5814 29.4227 34.944C29.0157 35.3111 28.966 35.4607 29.1605 35.6737L29.2735 35.8007L29.1695 35.8278C29.0293 35.8641 28.7263 36.059 28.6178 36.1769C28.5726 36.2312 28.5228 36.3672 28.5138 36.4805C28.4912 36.6709 28.5002 36.6981 28.654 36.8386C28.8303 37.0063 29.1017 37.0788 29.3504 37.0244C29.4544 37.0018 29.5494 37.0335 29.7936 37.1695C30.1011 37.3417 30.1101 37.3417 30.6031 37.3417C31.0689 37.3417 31.1231 37.3281 31.4578 37.1876C31.8783 37.0063 31.9959 36.9338 32.4934 36.5712C32.8823 36.2856 34.1576 35.0392 34.4244 34.6811C34.6641 34.3548 34.7093 34.4092 34.551 34.8398C34.4741 35.0437 34.3656 35.3746 34.3023 35.574C34.2435 35.7735 34.1711 35.9774 34.1485 36.0273C34.1259 36.0771 33.945 36.5984 33.746 37.1831C33.2622 38.6153 32.8913 39.6896 32.8687 39.7122C32.8552 39.7213 32.8145 39.6624 32.7738 39.5853C32.6697 39.3813 32.3622 39.055 32.1949 38.9734C32.1225 38.9372 31.9914 38.9054 31.9145 38.9054C31.6206 38.9054 31.1457 39.2 30.802 39.5944C30.6935 39.7213 30.5488 39.8845 30.4855 39.9615L30.3679 40.0929L30.3091 39.8754C30.1961 39.4448 29.979 39.3451 29.6986 39.5898C29.4996 39.7666 29.3413 40.0295 29.2238 40.383C29.1424 40.6323 29.1424 40.6686 29.2057 40.8499C29.3142 41.1626 29.3866 41.2759 29.5991 41.4754C29.8433 41.702 30.0061 41.7881 30.4357 41.9241C30.6754 42.0011 30.8247 42.0238 30.9784 42.0057C31.3085 41.9649 32.2311 41.7654 32.5386 41.6612C32.8778 41.5524 33.7189 41.2351 33.8274 41.1762C34.0445 41.0584 34.9806 40.6278 34.9942 40.6414C35.0032 40.6459 34.9037 40.7366 34.7726 40.8408C34.3385 41.1808 33.9043 41.5343 33.7958 41.6249C33.737 41.6748 33.5968 41.7926 33.4792 41.8878C33.1536 42.1507 31.9688 43.1479 31.8693 43.243C31.8196 43.2929 31.6251 43.4606 31.4397 43.6192C31.2543 43.7779 31.001 44 30.8744 44.1133C30.7523 44.2266 30.4945 44.4532 30.3136 44.6164C29.5675 45.2645 28.6585 46.1031 26.7998 47.8571C26.022 48.5869 26.221 48.3965 24.1588 50.418C22.6891 51.8594 22.4856 52.0497 22.4856 51.9908ZM23.7835 32.6732C24.1181 32.51 24.3985 32.3786 24.4121 32.3786C24.4211 32.3786 24.5161 32.3378 24.6246 32.2925C25.5562 31.8619 27.2385 31.3361 28.4776 31.0823C28.6766 31.0415 28.8846 31.0007 28.9389 30.9871C29.0203 30.969 29.0384 30.9871 29.0519 31.0914C29.061 31.1775 29.1152 31.2545 29.2192 31.3225C29.4227 31.463 29.9247 31.4676 30.2775 31.3361C30.5126 31.25 30.8111 30.9917 30.8654 30.8285C30.8834 30.7741 30.9468 30.7469 31.0417 30.7424C31.1231 30.7378 31.4306 30.7242 31.7246 30.7061C32.2582 30.6789 32.2582 30.6789 32.1768 30.5883C31.9281 30.3118 31.1955 29.369 30.9422 28.9973C30.9061 28.943 30.7478 28.7163 30.594 28.4897C30.4403 28.2631 30.2729 28.0138 30.2232 27.9277C30.178 27.8461 29.9926 27.5333 29.8117 27.2342C29.6263 26.926 29.5087 26.6858 29.5358 26.6767C29.7122 26.6178 29.78 26.2869 29.676 26.015C29.6217 25.8654 29.3187 25.5345 29.2419 25.5345C29.2057 25.5345 29.1785 25.5118 29.1785 25.4846C29.1785 25.4484 29.1198 25.4393 29.0067 25.4575L28.8394 25.4846L28.5454 24.8637C28.3871 24.5238 28.2108 24.143 28.152 24.0161C27.9033 23.4949 27.2701 21.9448 27.0983 21.4462C27.0395 21.2739 26.9762 21.138 26.9581 21.138C26.9219 21.138 26.9084 21.206 26.6687 22.3164C26.5828 22.7289 26.4878 23.1368 26.4652 23.2229C26.438 23.309 26.3205 23.7714 26.1984 24.2427C25.9135 25.3487 25.7914 25.7883 25.3798 27.0982C25.0995 27.9911 24.3307 30.1214 24.2086 30.3435C24.186 30.3843 24.0774 30.6381 23.9644 30.9101C23.8513 31.182 23.6071 31.735 23.4172 32.1338C23.2272 32.5372 23.0735 32.8908 23.0735 32.918C23.0735 33.0041 23.1594 32.9769 23.7835 32.6732Z" fill="black"/>
</svg>
