<svg width="53" height="53" viewBox="0 0 53 53" fill="none" xmlns="http://www.w3.org/2000/svg">
<path fill-rule="evenodd" clip-rule="evenodd" d="M13.4684 23.2874L26.5918 1.99628L39.7152 23.2874L28.3355 23.2874V23.6167C29.9409 24.278 31.19 25.8767 31.6408 27.8759H35.6772C35.6772 27.8759 40.2658 27.5089 40.7247 27.3253C40.9479 27.236 41 27.8759 41 27.8759V29.3443L41 30.8127C41 30.8127 40.9479 31.4526 40.7247 31.3633C40.2658 31.1797 35.6772 30.8127 35.6772 30.8127H31.7138C31.6514 31.1746 31.5632 31.5249 31.4517 31.8608L34.6965 35.1057C34.6965 35.1057 38.2007 38.0908 38.655 38.2854C38.8759 38.3801 38.4603 38.8695 38.4603 38.8695L37.422 39.9077L36.3837 40.946C36.3837 40.946 35.8944 41.3617 35.7997 41.1407C35.605 40.6865 32.62 37.1823 32.62 37.1823L29.866 34.4283C29.4156 34.8601 28.9044 35.2023 28.3504 35.4328C28.4692 37.1318 29.2743 48.3597 29.8956 49.8094C30.1709 50.4518 28.1519 50.2683 28.1519 50.2683H24.9657C24.9657 50.2683 22.9467 50.4518 23.222 49.8094C23.8588 48.3235 24.6887 36.5655 24.7748 35.3237C24.2388 35.0632 23.7473 34.6962 23.3182 34.2443L20.3801 37.1823C20.3801 37.1823 17.3951 40.6865 17.2004 41.1407C17.1057 41.3617 16.6164 40.9461 16.6164 40.9461L15.5781 39.9078L22.4389 33.047L22.4389 33.047L15.5781 39.9078L14.5398 38.8695C14.5398 38.8695 14.1241 38.3801 14.3451 38.2854C14.7993 38.0908 18.3035 35.1057 18.3035 35.1057L21.8288 31.5804C21.7574 31.3313 21.6986 31.075 21.6534 30.8127H17.3229C17.3229 30.8127 12.7343 31.1797 12.2754 31.3633C12.0522 31.4526 12.0001 30.8127 12.0001 30.8127V29.3443L21.5466 29.3443H12.0001V27.8759C12.0001 27.8759 12.0522 27.236 12.2754 27.3253C12.7342 27.5089 17.3228 27.8759 17.3228 27.8759H21.7264C22.1535 25.9815 23.2975 24.4468 24.7822 23.7284V23.2874L13.4684 23.2874ZM18.7283 20.3507L26.5918 7.59307L34.4553 20.3507H18.7283Z" fill="black"/>
</svg>
