<svg width="53" height="53" viewBox="0 0 53 53" fill="none" xmlns="http://www.w3.org/2000/svg">
<path fill-rule="evenodd" clip-rule="evenodd" d="M46.9878 40.0973H46.18C45.6537 38.9469 43.9281 36.7072 41.7006 35.4343C41.3457 35.2385 40.8316 35.0427 40.2809 34.8713C38.8857 37.1478 36.9397 39.0448 34.6266 40.391C34.8346 40.9907 35.1161 41.6272 35.52 42.2758C37.0376 44.7481 39.2284 45.7884 40.0361 46.1188V47H12.817V46.18C13.9675 45.6537 16.2072 43.9281 17.48 41.7006C17.7125 41.3212 17.9084 40.746 18.0919 40.1463C15.9502 38.8122 14.1388 36.9887 12.8293 34.8346C12.2418 35.0182 11.6788 35.214 11.2994 35.4343C9.07194 36.7072 7.34627 38.9591 6.82 40.0973H6V12.8904H6.89343C7.23612 13.686 8.26418 15.889 10.7364 17.4066C11.4218 17.8349 12.0949 18.1287 12.7313 18.3367C14.0531 16.097 15.9012 14.2122 18.1042 12.8415C17.9206 12.2418 17.7248 11.6788 17.5045 11.2994C16.2316 9.07194 13.9797 7.34627 12.8415 6.82V6H40.0484V6.88119C39.2528 7.22388 37.0499 8.25194 35.5322 10.7242C35.1406 11.3606 34.8591 11.997 34.651 12.5845C37.0254 13.9675 39.0081 15.9257 40.4033 18.2878C41.003 18.0797 41.6394 17.7982 42.2881 17.3943C44.7603 15.8767 45.8006 13.686 46.1311 12.8782H46.9878V40.0973ZM26.5734 13.533C24.0645 13.4474 22.0695 14.0226 20.8824 14.451C20.8089 13.7901 20.6498 12.9823 20.3439 12.1011C19.891 10.7916 19.2791 9.80021 18.7773 9.11483C22.1389 9.17195 25.4896 9.21818 28.8404 9.26442C30.5157 9.28754 32.1911 9.31066 33.8678 9.33513C33.3904 9.89812 32.6806 10.9017 32.2645 12.3214C31.9952 13.2638 31.934 14.096 31.9463 14.708C30.8081 14.2307 28.9478 13.6065 26.5734 13.533ZM14.5182 21.1455C13.9063 21.1578 13.074 21.0966 12.1316 20.8273C10.7119 20.4112 9.72059 19.7014 9.14536 19.2241L8.92507 34.3023C9.61044 33.8005 10.6018 33.1885 11.9113 32.7357C12.7925 32.4297 13.6003 32.2706 14.2612 32.1972C13.8328 31.0223 13.2576 29.0273 13.3433 26.5184C13.4167 24.1441 14.0409 22.2838 14.5182 21.1455ZM31.9585 38.7939C30.8203 39.2712 28.96 39.8954 26.5857 39.9688C24.0767 40.0545 22.0818 39.4915 20.8946 39.0509C20.809 39.7118 20.6621 40.5196 20.3561 41.4008C19.9033 42.6981 19.2914 43.7017 18.7896 44.3871C23.8197 44.3259 28.8376 44.2524 33.88 44.1668C33.4027 43.6038 32.6928 42.6002 32.2767 41.1805C32.0075 40.2381 31.9463 39.4059 31.9585 38.7939ZM40.9907 20.8151C40.0484 21.0843 39.2161 21.1455 38.6042 21.1333C39.0815 22.2715 39.7057 24.1318 39.7791 26.5061C39.8648 29.0151 39.3018 31.01 38.8612 32.1972C39.5221 32.2828 40.3299 32.4297 41.211 32.7357C42.5206 33.1763 43.5119 33.8005 44.1973 34.29L43.977 19.2118C43.4263 19.6891 42.4227 20.399 40.9907 20.8151ZM26.5122 15.4545C20.3316 15.4545 15.326 20.4602 15.326 26.6408C15.326 32.8213 20.3316 37.827 26.5122 37.827C32.6928 37.827 37.6985 32.8213 37.6985 26.6408C37.6985 20.4602 32.6928 15.4545 26.5122 15.4545ZM32.3746 27.7545C33.8677 29.4802 31.8483 32.2094 31.5669 32.4419C31.2936 32.6619 30.6974 32.5189 30.2524 32.4122C29.8803 32.3229 29.614 32.2591 29.731 32.4542C29.9269 32.7724 30.0982 35.2202 30.0982 35.2202H29.5964L29.3639 34.3634H28.9477L28.8621 35.2202H28.0054L27.9197 34.4002L27.6382 34.3634L27.6015 35.2202H26.9039L26.8672 34.339H26.3042L26.2675 35.2202H25.5698L25.5331 34.3634L25.2516 34.4002L25.166 35.2202H24.3092L24.2236 34.3634H23.8075L23.5749 35.2202H23.0854C23.0854 35.2202 23.2689 32.7724 23.4525 32.4542C23.5642 32.2587 23.2962 32.3232 22.9241 32.4127C22.4807 32.5193 21.8895 32.6615 21.6167 32.4419C21.3474 32.2094 19.3158 29.4802 20.8089 27.7545C20.9408 27.6056 20.8051 27.1243 20.6126 26.4409C20.2509 25.1575 19.6885 23.1616 20.3194 21.3169C21.4576 18.0124 24.811 17.4861 26.2552 17.4249C26.2552 17.4249 26.3654 17.4127 26.5857 17.4127C26.7937 17.4127 26.9161 17.4249 26.9161 17.4249C28.3603 17.4861 31.7137 18.0124 32.8519 21.3169C33.4799 23.1532 32.9255 25.1393 32.5671 26.4233C32.3737 27.116 32.2374 27.6044 32.3746 27.7545ZM24.1624 28.5439C24.7254 28.7153 25.2027 28.9356 25.6066 29.1314C25.7045 29.1803 25.729 29.315 25.6555 29.4006C25.4597 29.6209 25.1782 29.878 24.7988 30.086C23.8809 30.6 22.9752 30.5266 22.6081 30.4777C22.5836 30.4777 22.5591 30.4654 22.5469 30.4532C21.7391 29.9514 21.4454 29.1559 21.6779 28.6663C21.7146 28.5929 21.8493 28.3481 22.2654 28.189C22.2899 28.1768 22.3143 28.1768 22.3388 28.1768C22.8406 28.2257 23.477 28.3236 24.1624 28.5439ZM30.8448 28.1768C30.8693 28.1768 30.8937 28.1768 30.9182 28.189C31.3343 28.3359 31.469 28.5929 31.5057 28.6663C31.7382 29.1559 31.4323 29.9514 30.6367 30.4532C30.6123 30.4654 30.5878 30.4777 30.5755 30.4777C30.2084 30.5266 29.3027 30.6001 28.3848 30.086C28.0054 29.8657 27.7239 29.6209 27.5281 29.4007C27.4546 29.315 27.4791 29.1804 27.577 29.1314C27.9687 28.9233 28.446 28.7153 29.0212 28.5439C29.7188 28.3236 30.343 28.2257 30.8448 28.1768ZM26.6347 30.2573C26.5123 30.3308 26.4144 30.392 26.3287 30.4776C25.6923 31.1018 25.68 31.9585 25.7045 32.3746C25.7168 32.4358 25.778 32.4603 25.8147 32.4114C25.9003 32.3012 26.0227 32.1788 26.1818 32.0564C26.3532 31.934 26.5123 31.8606 26.6347 31.8117C26.7571 31.8606 26.9162 31.934 27.0875 32.0564C27.2466 32.1788 27.369 32.3012 27.4547 32.4114C27.4914 32.4481 27.5648 32.4358 27.5648 32.3746C27.6015 31.9708 27.5771 31.114 26.9406 30.4776C26.8672 30.392 26.7571 30.3185 26.6347 30.2573Z" fill="black"/>
</svg>
