<svg width="53" height="53" viewBox="0 0 53 53" fill="none" xmlns="http://www.w3.org/2000/svg">
<path d="M20.2376 42.2457C20.2912 42.3102 20.3447 42.3747 20.4196 42.4608C20.7836 41.2562 21.1368 40.0838 21.4901 38.9223C21.2439 38.8792 21.0084 38.847 20.7836 38.7824C19.7559 38.4921 18.9851 37.8252 18.7282 36.4916C18.4606 35.1256 18.6961 33.9103 19.6274 32.9961C19.9165 32.7057 20.2376 32.4583 20.5266 32.1679C20.8157 31.8775 21.1047 31.5979 21.3295 31.2537C22.036 30.1567 21.8005 28.7047 20.8371 27.9734C20.7086 27.8873 20.5909 27.7905 20.4624 27.726C20.0342 27.5001 19.606 27.2527 19.1778 27.0592C16.3624 25.7685 14.0394 23.6497 12.2196 20.7028C10.9671 18.6593 9.97154 16.4221 9.12585 14.0775C9.09373 14.0022 9.06162 13.9162 9.04021 13.8409C8.99739 13.9484 8.98668 14.0452 8.99739 14.142C9.04021 15.2713 9.06162 16.4006 9.15796 17.5192C9.42559 20.6275 10.0893 23.5529 11.7593 26.0051C11.8663 26.1557 12.0162 26.3385 11.9091 26.5429C11.7914 26.7688 11.588 26.672 11.4381 26.5859C11.0206 26.3601 10.5924 26.1342 10.1963 25.8546C8.99739 24.9941 7.90548 23.9509 6.8671 22.8323C6.81358 22.7785 6.74935 22.7248 6.66371 22.6387C6.62089 23.5637 6.70653 24.4133 6.94204 25.2308C7.38094 26.8225 8.22663 28.0379 9.30783 28.9951C10.0144 29.6189 10.7744 30.1459 11.5131 30.7267C11.6415 30.8235 11.7379 31.0064 11.8449 31.1462C11.695 31.2537 11.5559 31.372 11.406 31.4903C11.3846 31.5011 11.3632 31.5011 11.3418 31.5011C10.8815 31.5011 10.4211 31.5549 9.97154 31.5011C8.67624 31.329 7.44517 30.8343 6.24621 30.232C6.17128 30.1997 6.09634 30.1674 6 30.1137C6.0107 30.1674 6.02141 30.189 6.02141 30.2105C6.653 31.4258 7.35953 32.5659 8.23734 33.5339C9.04021 34.405 9.91802 35.1149 10.9885 35.33C11.4809 35.4268 11.9841 35.3838 12.4872 35.4268C12.5621 35.4268 12.6906 35.4806 12.6906 35.5343C12.7013 35.6204 12.6585 35.7494 12.605 35.8247C12.5621 35.8893 12.4765 35.943 12.4016 35.9753C12.1125 36.0829 11.8235 36.2012 11.5345 36.2657C10.1107 36.5669 8.67624 36.5776 7.23107 36.4701H7.02768C6.97415 36.5023 6.97415 36.5238 6.98486 36.5453L7.04909 36.7389C7.87337 38.8147 9.25431 39.944 11.0742 40.2559C11.7164 40.3635 12.3802 40.3742 13.0332 40.4388C13.1723 40.4495 13.4078 40.5356 13.4185 40.6216C13.4399 40.8044 13.3864 41.0411 13.3008 41.2024C13.1937 41.396 13.0439 41.5681 12.8833 41.7079L12.8643 41.7245C12.6233 41.9351 12.3623 42.1632 12.0911 42.2994C11.3525 42.6759 10.6031 43.02 9.86449 43.3642C9.57546 43.4933 9.27572 43.5686 8.93316 43.6869C9.14726 43.8697 9.31854 44.031 9.50052 44.1601C10.464 44.87 11.5238 45.0636 12.6264 45.1281C13.8574 45.2034 14.8958 44.7086 15.8057 43.7084C16.1055 43.375 16.4052 43.02 16.7157 42.6866C16.9726 42.407 17.2402 42.1274 17.5292 41.9015C18.4392 41.1916 19.4561 41.3207 20.2376 42.2457L20.2376 42.2457Z" fill="black"/>
<path d="M26.4679 49L28.7373 43.7191L27.1744 41.7186L27.4206 37.3412H28.3413L29.7436 38.6426L31.8311 36.7174L29.7436 34.7815L28.3413 36.0721H27.4956L28.8123 13.1095L26.5642 5L24.2734 13.0988L25.4937 36.0614H24.6373L23.2457 34.7707L21.1475 36.6959L23.235 38.6319L24.6373 37.3412H25.558L25.7935 41.7079L24.2091 43.7084L26.4679 49Z" fill="black"/>
<path d="M44.7627 33.5231C45.6405 32.5551 46.347 31.4151 46.9786 30.1997C46.9893 30.1782 46.9893 30.1567 47 30.1029C46.9037 30.1459 46.818 30.1782 46.7538 30.2212C45.5548 30.8235 44.3238 31.3183 43.0285 31.4903C42.5788 31.5441 42.1185 31.4903 41.6582 31.4903C41.6368 31.4903 41.6154 31.4903 41.594 31.4796C41.4441 31.372 41.305 31.2537 41.1551 31.1354C41.2621 30.9956 41.3585 30.8235 41.4869 30.716C42.2149 30.1352 42.9749 29.6082 43.6922 28.9844C44.7841 28.0271 45.6191 26.801 46.058 25.22C46.2828 24.4026 46.3791 23.5529 46.3363 22.628C46.2507 22.714 46.1971 22.7678 46.1329 22.8216C45.0838 23.9401 44.0026 24.9834 42.8037 25.8438C42.4076 26.1234 41.9794 26.3493 41.5619 26.5752C41.412 26.6505 41.2086 26.7472 41.0909 26.5321C40.9838 26.3278 41.1337 26.145 41.2407 25.9944C42.9107 23.5422 43.5744 20.6167 43.842 17.5084C43.9384 16.3899 43.9491 15.2606 44.0026 14.1313C44.0026 14.0345 44.0026 13.9377 43.9598 13.8301C43.9277 13.9054 43.8956 13.9914 43.8742 14.0667C43.0285 16.4114 42.0329 18.6485 40.7804 20.692C38.9606 23.639 36.6376 25.7578 33.8222 27.0484C33.3833 27.2527 32.9551 27.4894 32.5376 27.7152C32.4091 27.7798 32.2807 27.8766 32.1629 27.9626C31.1995 28.694 30.9747 30.1459 31.6705 31.243C31.8953 31.5979 32.195 31.8668 32.4734 32.1572C32.7624 32.4476 33.0836 32.6949 33.3726 32.9853C34.3039 33.8995 34.5394 35.1041 34.2718 36.4808C34.0149 37.8037 33.2441 38.4705 32.2164 38.7717C31.9916 38.8362 31.7668 38.8577 31.5099 38.9115C31.8632 40.0838 32.2164 41.2562 32.5804 42.45C32.6554 42.364 32.7089 42.2994 32.7624 42.2349C33.5439 41.3207 34.5608 41.1809 35.4708 41.8907C35.7598 42.1166 36.0274 42.407 36.2843 42.6759C36.5948 43.0093 36.8838 43.3642 37.1943 43.6976C38.0935 44.6979 39.1426 45.1926 40.3736 45.1173C41.4655 45.0528 42.536 44.8592 43.4995 44.1494C43.6815 44.0203 43.8527 43.859 44.0668 43.6761C43.7136 43.5578 43.4138 43.4825 43.1355 43.3535C42.3862 43.02 41.6475 42.6759 40.9089 42.2887C40.6306 42.1489 40.3736 41.9122 40.1167 41.6971C39.9561 41.5573 39.8063 41.396 39.6992 41.1916C39.6136 41.0303 39.5493 40.7937 39.5815 40.6109C39.5922 40.5248 39.8277 40.4495 39.9668 40.428C40.6198 40.3635 41.2728 40.3527 41.9258 40.2452C43.7457 39.9333 45.1266 38.804 45.9509 36.7282L46.0151 36.5346C45.9723 36.5131 45.9723 36.4916 45.9723 36.4593H45.7689C44.3238 36.5561 42.9 36.5453 41.4655 36.2549C41.1765 36.1904 40.8875 36.0721 40.5984 35.9646C40.5235 35.943 40.4379 35.8893 40.395 35.814C40.3415 35.7387 40.2987 35.6096 40.3094 35.5236C40.3094 35.4698 40.4379 35.416 40.5128 35.416C41.0159 35.3838 41.5191 35.416 42.0115 35.3192C43.082 35.1041 43.9598 34.3943 44.7627 33.5231Z" fill="black"/>
</svg>
