<svg width="53" height="53" viewBox="0 0 53 53" fill="none" xmlns="http://www.w3.org/2000/svg">
<path fill-rule="evenodd" clip-rule="evenodd" d="M38.733 29.8518C41.9521 33.483 37.574 39.2646 36.9688 39.7411C36.3796 40.204 35.0949 39.8989 34.1348 39.6709C33.3324 39.4803 32.7566 39.3436 33.0028 39.754C33.402 40.4364 33.7883 45.6 33.7883 45.6H32.7195L32.2045 43.7972L31.2902 43.7844L31.1228 45.5871H29.2686L29.1012 43.8616L28.4831 43.7715L28.393 45.5742H26.9121L26.8349 43.72H25.6116L25.5343 45.5742H24.0278L23.9376 43.7715L23.3195 43.8616L23.1521 45.5871H21.2979L21.1305 43.7844L20.2162 43.7972L19.7012 45.6H18.6324C18.6324 45.6 19.0058 40.4364 19.4179 39.754C19.6631 39.3453 19.0931 39.4819 18.2958 39.6729C17.3346 39.9032 16.0431 40.2127 15.4519 39.7411C14.8467 39.2775 10.4557 33.4959 13.6878 29.8518C13.9685 29.5399 13.6756 28.5295 13.2595 27.0939C12.4731 24.3807 11.2464 20.1484 12.619 16.2411C15.0656 9.24904 22.328 8.15452 25.4571 8.01288C25.4571 8.01288 25.7146 8 26.1782 8H26.2039C26.6546 8 26.925 8.01288 26.925 8.01288C30.0669 8.15452 37.3165 9.24904 39.776 16.2411C41.1348 20.1247 39.9311 24.3361 39.1545 27.0531C38.7389 28.5071 38.4457 29.5331 38.733 29.8518ZM24.0517 33.0388C23.2148 32.6138 22.1717 32.1631 20.9485 31.7897C19.4419 31.3262 18.0769 31.1201 16.9824 31.0171C16.9309 31.0171 16.8794 31.03 16.8279 31.0429C15.9137 31.3648 15.6304 31.8927 15.5531 32.0472C15.0509 33.0903 15.7076 34.7642 17.4331 35.833C17.4717 35.8587 17.5232 35.8716 17.5747 35.8845C18.3602 35.9875 20.3175 36.1549 22.3005 35.0604C23.1246 34.6097 23.7298 34.0689 24.1548 33.6053C24.3093 33.4251 24.2578 33.1546 24.0517 33.0388ZM35.5249 31.0558C35.4734 31.03 35.4219 31.0171 35.3704 31.03C34.2758 31.133 32.9109 31.339 31.4043 31.8026C30.181 32.1632 29.1509 32.6138 28.301 33.0516C28.095 33.1547 28.0435 33.4251 28.198 33.6053C28.623 34.056 29.2282 34.6097 30.0523 35.0604C32.0224 36.1549 33.9797 35.9875 34.778 35.8845C34.8295 35.8716 34.8682 35.8588 34.9197 35.833C36.658 34.7771 37.3147 33.1032 36.7997 32.0601C36.7224 31.9056 36.4262 31.3777 35.5249 31.0558ZM26.949 35.9232C26.7687 35.7558 26.5498 35.6012 26.2794 35.4596C26.009 35.6012 25.7772 35.7558 25.6098 35.9232C24.2578 37.2366 24.2191 39.0264 24.2706 39.9149C24.2706 40.0308 24.4252 40.0823 24.5024 39.9922C24.6827 39.7604 24.9402 39.49 25.2879 39.2453C25.6484 38.9878 26.009 38.8204 26.2794 38.7174C26.5498 38.8204 26.9104 38.9749 27.2709 39.2453C27.6057 39.49 27.8761 39.7604 28.0564 39.9922C28.1337 40.0823 28.2753 40.0437 28.2882 39.9149C28.3397 39.0393 28.3139 37.2237 26.949 35.9232Z" fill="black"/>
</svg>
