<svg width="53" height="53" viewBox="0 0 53 53" fill="none" xmlns="http://www.w3.org/2000/svg">
<path fill-rule="evenodd" clip-rule="evenodd" d="M11.1698 8.97883L10 9.21404L10.1578 10.4223C10.9298 16.3314 11.177 22.7747 11.2296 27.758C11.2558 30.2458 11.2335 32.3617 11.2047 33.8545C11.1902 34.6008 11.1742 35.191 11.1618 35.5937C11.1556 35.795 11.1503 35.9494 11.1466 36.053L11.1423 36.1698L11.1412 36.1987L11.1408 36.2074L11.1125 36.9041L11.6654 37.3122L11.6657 37.3124L11.6903 37.3306L11.7665 37.3871C11.8338 37.4372 11.9337 37.5116 12.0629 37.6083C12.3212 37.8018 12.6965 38.0843 13.1625 38.4394C14.0948 39.1499 15.3888 40.1495 16.8345 41.3058C19.7387 43.6286 23.2085 46.5464 25.5998 49.0125L26.5 49.9409L27.4002 49.0125C29.7915 46.5464 33.2613 43.6286 36.1655 41.3058C37.6112 40.1495 38.9052 39.1499 39.8375 38.4394C40.3035 38.0843 40.6788 37.8018 40.9371 37.6083C41.0663 37.5116 41.1662 37.4372 41.2335 37.3871L41.3097 37.3306L41.3333 37.3131L41.3343 37.3124L41.3346 37.3122L41.8875 36.9041L41.8592 36.2074L41.8592 36.2071L41.8588 36.1987L41.8577 36.1698L41.8534 36.053C41.8497 35.9494 41.8444 35.795 41.8382 35.5937C41.8258 35.191 41.8098 34.6008 41.7953 33.8545C41.7665 32.3617 41.7442 30.2458 41.7704 27.758C41.823 22.7747 42.0702 16.3314 42.8422 10.4223L43 9.21404L41.8302 8.97883C36.8655 7.98054 32.7591 6.77385 26.5523 4.2097L26.0448 4L25.5474 4.23402C19.7653 6.95492 16.1367 7.98011 11.1698 8.97883ZM25.9921 47.585C20.9913 42.5967 12.4074 36.2612 12.4074 36.2612C12.4074 36.2612 12.9779 22.219 11.4144 10.2507C16.464 9.23532 20.1907 8.18163 26.0774 5.41151C32.3525 8.00392 36.536 9.23532 41.5856 10.2507C40.0221 22.219 40.5926 36.2612 40.5926 36.2612C40.5926 36.2612 32.0088 42.5967 27.0079 47.585C26.8341 47.7584 26.6646 47.9301 26.5 48.0999C26.3354 47.9301 26.1659 47.7584 25.9921 47.585ZM35.6724 18.2127L33.0934 19.7013C35.6648 19.9861 37.6657 22.2072 37.6657 24.9074C37.6657 27.799 35.3681 30.1445 32.5355 30.1445C30.8517 30.1445 29.358 29.3161 28.4223 28.0372C28.3715 28.529 28.3259 40.7331 28.3259 40.7331L29.1704 40.4251L26.4366 46.3716L23.8399 40.6943L24.6843 40.8574L24.5474 27.8586C23.6522 29.43 21.9861 30.4862 20.0791 30.4862C17.2261 30.4862 14.9134 28.1252 14.9134 25.2128C14.9134 22.593 16.7849 20.4184 19.2371 20.0093L19.227 20.0016L16.6911 17.783L16.0292 20.0016L14.0765 11.5777L19.8331 12.6054L18.8669 13.4882L20.2008 14.534C20.3637 13.5469 20.7594 12.6407 21.3284 11.8764C21.1685 11.2465 20.8082 10.5545 20.246 9.62473C21.1659 10.1842 21.8584 10.5393 22.4843 10.6992C23.2656 10.0963 24.1972 9.68553 25.2117 9.53582C25.484 8.95918 25.6923 8.07936 25.9006 7.19953C25.9465 7.00572 25.9923 6.81191 26.0389 6.62134C26.0855 6.81209 26.1314 7.00608 26.1774 7.20007C26.3844 8.07471 26.5914 8.94921 26.8613 9.52591C27.9025 9.66664 28.8585 10.0817 29.6576 10.6976C30.2656 10.5291 30.9389 10.1815 31.8243 9.64301C31.2882 10.5296 30.9339 11.2017 30.7642 11.8076C31.5563 12.8403 32.0283 14.141 32.0283 15.554C32.0283 15.5721 32.0277 15.5908 32.0271 15.6095L32.0271 15.6097C32.0264 15.6285 32.0258 15.6472 32.0258 15.6654L33.6386 14.4745L33.0148 13.1594L38.6699 13.1387L36.1949 19.9187L35.6724 18.2127ZM16.7519 25.2128C16.7519 27.0871 18.2405 28.6067 20.0765 28.6067C21.9151 28.6067 23.4037 27.0845 23.4037 25.2102C23.4037 23.336 21.9125 21.8189 20.0765 21.8189C18.2405 21.8189 16.7519 23.3385 16.7519 25.2128ZM21.9024 15.4531C21.9024 17.783 23.7511 19.6702 26.0334 19.6702C28.3157 19.6702 30.1644 17.783 30.1644 15.4531C30.1644 13.1232 28.3157 11.2359 26.0334 11.2359C23.7511 11.2359 21.9024 13.1232 21.9024 15.4531ZM28.9599 24.9074C28.9599 26.9214 30.56 28.555 32.533 28.555C34.5059 28.555 36.1061 26.9214 36.1061 24.9074C36.1061 22.8933 34.5085 21.2597 32.5355 21.2597C30.5626 21.2597 28.9599 22.8933 28.9599 24.9074ZM28.2186 13.4238C27.82 12.235 26.6431 12.0491 26.1337 12.025C26.1337 12.025 26.0901 12.0222 26.0164 12.0222H26.0144H26.0126C25.9378 12.0222 25.8952 12.025 25.8952 12.025C25.3868 12.0492 24.209 12.2351 23.8114 13.4238C23.5891 14.0875 23.7877 14.8075 23.915 15.2692C23.9823 15.5132 24.0297 15.6851 23.9845 15.7383C23.461 16.3578 24.1729 17.3404 24.2695 17.4207C24.3652 17.5005 24.5747 17.4484 24.7308 17.4096C24.8604 17.3773 24.9533 17.3542 24.9133 17.4236C24.8469 17.5397 24.7855 18.4178 24.7855 18.4178H25.0147L25.0592 18.1119L25.2068 18.11L25.2164 18.4179H25.4701L25.4986 18.1053L25.6463 18.1102L25.6604 18.4181H25.9048L25.9161 18.1025H26.114L26.1253 18.4181H26.3697L26.3838 18.1102L26.5411 18.1053L26.5695 18.4179H26.8139L26.8234 18.11L26.9711 18.1119L27.0156 18.4178H27.2448C27.2448 18.4178 27.1831 17.5397 27.117 17.4236C27.0769 17.354 27.1703 17.3771 27.3004 17.4094C27.4564 17.448 27.6653 17.4998 27.7607 17.4207C27.8582 17.3394 28.5692 16.3578 28.0457 15.7383C28.0003 15.6846 28.0478 15.512 28.1151 15.2672L28.1152 15.2671L28.1152 15.2671C28.2423 14.8052 28.4401 14.0862 28.2186 13.4238ZM25.6909 16.3792C25.6227 16.4576 25.5242 16.5505 25.3907 16.627C25.0698 16.8118 24.7516 16.7857 24.6229 16.7673C24.6143 16.7664 24.6057 16.7635 24.5991 16.7586C24.3179 16.5766 24.2109 16.293 24.2942 16.1159C24.3066 16.0888 24.3539 15.9997 24.5015 15.9445C24.5101 15.9417 24.5187 15.9406 24.527 15.9406C24.705 15.9571 24.9256 15.993 25.17 16.0713C25.3678 16.1342 25.5363 16.2107 25.6746 16.2842C25.7088 16.3027 25.7164 16.3492 25.6909 16.3792ZM26.3629 17.4527C26.3619 17.473 26.3374 17.4808 26.325 17.4653C26.2948 17.4256 26.2531 17.3801 26.1973 17.3385C26.1377 17.294 26.0809 17.266 26.0363 17.2495C25.9926 17.266 25.935 17.2941 25.8753 17.3385C25.8194 17.3801 25.7778 17.4257 25.7475 17.4653C25.7351 17.4808 25.7106 17.473 25.7097 17.4527C25.7001 17.3027 25.7068 16.9958 25.9274 16.7731C25.9559 16.744 25.9928 16.7189 26.0363 16.6946C26.0789 16.7189 26.1168 16.744 26.1451 16.7731C26.3659 16.9958 26.3725 17.3037 26.3629 17.4527ZM27.4385 16.7586C27.4309 16.7635 27.4234 16.7664 27.4148 16.7673C27.286 16.7857 26.9689 16.812 26.6469 16.627C26.5134 16.5505 26.415 16.4576 26.3468 16.3792C26.3213 16.3492 26.3288 16.3027 26.3639 16.2842C26.5022 16.2107 26.6707 16.1342 26.8685 16.0713C27.1137 15.9928 27.3343 15.957 27.5114 15.9406C27.52 15.9396 27.5286 15.9406 27.537 15.9445C27.6837 15.9997 27.7311 16.0898 27.7442 16.1159C27.8267 16.293 27.7197 16.5776 27.4385 16.7586ZM19.8138 22.741C20.1642 22.7248 20.9818 22.7767 21.328 23.5668C21.5205 24.0071 21.4293 24.5132 21.3706 24.8383C21.3396 25.0107 21.3176 25.1322 21.3521 25.1661C21.7488 25.5575 21.3222 26.2767 21.2604 26.3388C21.1999 26.3992 21.0536 26.3771 20.9444 26.3606C20.8533 26.3468 20.7879 26.3369 20.8196 26.3821C20.8722 26.4576 20.9684 27.0561 20.9684 27.0561L20.8114 27.0709L20.7621 26.8638L20.6608 26.872L20.6732 27.0839L20.5059 27.0996L20.4672 26.8869L20.3597 26.9004L20.369 27.1126L20.2017 27.1283L20.1744 26.9124L20.0389 26.9251L20.0505 27.1424L19.8831 27.1581L19.8545 26.9478L19.7531 26.9539L19.7528 27.1702L19.579 27.1865L19.5535 26.9759L19.4525 26.9867L19.4408 27.1994L19.2839 27.2141C19.2839 27.2141 19.2719 26.6077 19.3101 26.5237C19.3333 26.4736 19.2711 26.4954 19.1843 26.5258C19.0798 26.5625 18.9395 26.6117 18.8691 26.5631C18.7979 26.5142 18.2498 25.8857 18.5702 25.427C18.5979 25.3876 18.5549 25.2727 18.4937 25.1096C18.3781 24.801 18.1977 24.3197 18.3091 23.85C18.5083 23.0088 19.3036 22.8056 19.6504 22.7564C19.6504 22.7564 19.6794 22.7516 19.7306 22.7468L19.7319 22.7467L19.7332 22.7466C19.7837 22.7419 19.8138 22.741 19.8138 22.741ZM19.5881 25.9464C19.6749 25.8854 19.7367 25.8153 19.7785 25.7571C19.7941 25.7349 19.7861 25.7035 19.7615 25.693C19.6623 25.6514 19.5422 25.6098 19.4027 25.5794C19.2305 25.5413 19.0772 25.5309 18.9543 25.531C18.9485 25.5315 18.9427 25.5328 18.9371 25.5353C18.8393 25.5827 18.8124 25.6468 18.8056 25.6662C18.7594 25.7931 18.8502 25.9808 19.0541 26.0876C19.0589 26.0906 19.0649 26.092 19.0708 26.0921C19.1602 26.0964 19.3797 26.0939 19.5881 25.9464ZM20.2798 26.4617C20.2892 26.4715 20.3055 26.4646 20.3049 26.4506C20.3023 26.3477 20.2788 26.1369 20.1139 25.9982C20.0927 25.9801 20.0652 25.9653 20.0345 25.9514C20.0062 25.9708 19.9825 25.9904 19.9648 26.0122C19.8274 26.1792 19.8417 26.3902 19.8575 26.4925C19.8594 26.5064 19.8767 26.5102 19.8842 26.4988C19.9025 26.4697 19.9282 26.4357 19.9639 26.4036C20.0021 26.3693 20.0398 26.3462 20.0687 26.3321C20.1003 26.3406 20.1409 26.3561 20.1845 26.3829C20.2252 26.4078 20.2566 26.4363 20.2798 26.4617ZM20.9832 25.9127C20.9891 25.9115 20.9941 25.909 20.9989 25.9052C21.1804 25.763 21.2362 25.5607 21.1688 25.4445C21.1582 25.4275 21.1202 25.3688 21.0163 25.3403C21.0103 25.3381 21.0044 25.338 20.9986 25.3392C20.8782 25.3619 20.7293 25.4006 20.5662 25.4702C20.4346 25.5261 20.3239 25.5894 20.2337 25.6488C20.2108 25.6637 20.2085 25.6961 20.2278 25.715C20.2793 25.7644 20.3525 25.8219 20.4486 25.8657C20.6806 25.972 20.8962 25.9336 20.9832 25.9127ZM34.4625 23.7311C34.252 22.7706 33.3552 22.5247 32.9624 22.4621C32.9624 22.4621 32.9289 22.4561 32.8717 22.4497L32.8702 22.4496L32.8688 22.4494C32.8108 22.443 32.7776 22.4416 32.7776 22.4416C32.3815 22.4167 31.4533 22.4602 31.0469 23.352C30.8197 23.85 30.9141 24.428 30.9746 24.7986C31.0066 24.9945 31.0291 25.1324 30.9897 25.17C30.5327 25.6076 31.0032 26.4343 31.0715 26.5052C31.139 26.5756 31.3057 26.553 31.4298 26.5362C31.533 26.5222 31.6068 26.5122 31.5701 26.5628C31.5091 26.6476 31.3889 27.3264 31.3889 27.3264L31.5665 27.3461L31.6262 27.1116L31.7409 27.1228L31.7228 27.3635L31.9194 27.3853L31.9674 27.1443L32.0814 27.1608L32.0669 27.4019L32.2562 27.4229L32.2912 27.1779L32.4446 27.195L32.4273 27.4419L32.6166 27.4629L32.653 27.2242L32.7753 27.2339L32.7715 27.4799L32.9609 27.5009L32.9938 27.2619L33.1081 27.2761L33.1172 27.5182L33.2948 27.5379C33.2948 27.5379 33.3197 26.8485 33.278 26.7523C33.2527 26.6947 33.3231 26.7207 33.4213 26.7571C33.539 26.8006 33.6967 26.8589 33.7772 26.8055C33.8594 26.7505 34.4917 26.047 34.1372 25.5193C34.1064 25.4736 34.1575 25.3432 34.23 25.1582L34.23 25.1582C34.3667 24.8093 34.5795 24.2662 34.4625 23.7311ZM32.2591 25.8161C32.1998 25.8713 32.1158 25.9352 32.006 25.9833C31.742 26.0997 31.4976 26.052 31.3993 26.0266C31.3927 26.0251 31.3863 26.0221 31.3816 26.0178C31.1787 25.8518 31.1192 25.6216 31.1985 25.4908C31.2103 25.4708 31.2543 25.4055 31.3733 25.3751C31.3802 25.3736 31.3869 25.3736 31.3934 25.3743C31.53 25.4025 31.698 25.4494 31.8808 25.5314C32.029 25.5975 32.1533 25.6715 32.2544 25.7407C32.2793 25.7581 32.2814 25.7949 32.2591 25.8161ZM32.6912 26.7102C32.6888 26.7259 32.6691 26.7299 32.6608 26.7167C32.6406 26.6832 32.6121 26.6442 32.5723 26.607C32.5298 26.5671 32.4881 26.5405 32.4549 26.5238C32.4197 26.5329 32.3727 26.5498 32.3227 26.5793C32.276 26.6069 32.2399 26.6389 32.2132 26.6671C32.2024 26.6781 32.184 26.6699 32.1849 26.654C32.1899 26.5363 32.2205 26.2978 32.4099 26.1433C32.4344 26.123 32.465 26.1067 32.5008 26.0915C32.5318 26.1141 32.559 26.1369 32.5786 26.162C32.7313 26.3545 32.7109 26.5949 32.6912 26.7102ZM33.5822 26.262C33.5759 26.2651 33.5698 26.2667 33.5631 26.2667C33.4618 26.27 33.2139 26.2632 32.9796 26.0913C32.8824 26.0203 32.8138 25.9395 32.7675 25.8725C32.7502 25.8469 32.7599 25.8114 32.7886 25.8C32.9019 25.7545 33.0387 25.7095 33.1973 25.6775C33.3938 25.6374 33.5677 25.6285 33.7064 25.631C33.7131 25.631 33.7196 25.6325 33.7258 25.6362C33.835 25.6919 33.8643 25.7661 33.8723 25.7876C33.9216 25.9326 33.8151 26.1452 33.5822 26.262Z" fill="black"/>
</svg>
