<svg width="53" height="53" viewBox="0 0 53 53" fill="none" xmlns="http://www.w3.org/2000/svg">
<path fill-rule="evenodd" clip-rule="evenodd" d="M19.7892 34.4437V23.5863L11 20.1512L13.5996 10.7047L18.7369 9.72325L19.7892 5L35.2012 8.68046L39.2244 14.8146L42.7524 14.6305L43 22.7889L34.7679 23.0956V35.5478L31.4255 31.6833L30.559 35.7932L27.3404 29.8431L23.5029 35.6705L22.0174 31.3153L19.7892 34.4437ZM21.8936 20.2739C23.8421 20.2739 25.4217 18.7085 25.4217 16.7775C25.4217 14.8464 23.8421 13.281 21.8936 13.281C19.9451 13.281 18.3656 14.8464 18.3656 16.7775C18.3656 18.7085 19.9451 20.2739 21.8936 20.2739ZM30.4352 18.1883V19.4151L37.3675 19.5991L37.5532 18.0043L36.4391 14.6919L30.4352 18.1883ZM29.6925 24.5064L25.1122 25.1198L27.0309 20.3966L29.6925 24.5064Z" fill="black"/>
<path d="M27.588 48L41.3288 40.8845H42.0097L39.0387 28.9843L35.7582 38.6762L31.9826 34.2596L30.8685 38.6762L27.3404 32.0514L23.2553 39.1056L21.7079 34.0756L19.1083 37.388L16.4468 28.5549L13.0426 40.7004L27.588 48Z" fill="black"/>
</svg>
