<svg width="53" height="53" viewBox="0 0 53 53" fill="none" xmlns="http://www.w3.org/2000/svg">
<path fill-rule="evenodd" clip-rule="evenodd" d="M2.60438 25.1774C2.59289 25.4792 2.5871 25.7825 2.5871 26.0871C2.5871 39.0658 13.1084 49.5871 26.0871 49.5871C39.0658 49.5871 49.5871 39.0658 49.5871 26.0871C49.5871 25.7825 49.5813 25.4792 49.5698 25.1774C49.0919 34.5285 38.7612 42 26.0871 42C13.413 42 3.08233 34.5285 2.60438 25.1774ZM3.41799 19.871C6.14344 12.4524 15.2602 7.00002 26.0871 7.00002C36.914 7.00002 46.0307 12.4524 48.7562 19.871C46.0307 9.90883 36.914 2.5871 26.0871 2.5871C15.2602 2.5871 6.14344 9.90883 3.41799 19.871Z" fill="black"/>
<path fill-rule="evenodd" clip-rule="evenodd" d="M19.648 14.604C18.7488 14.9193 17.8659 15.3223 17.0105 15.8162C9.59695 20.0964 7.05689 29.576 11.3371 36.9896C15.6173 44.4031 25.097 46.9432 32.5105 42.663C33.3659 42.1691 34.1564 41.606 34.879 40.9849C29.5721 42.4854 22.9177 39.0477 19.1313 32.4896C15.345 25.9314 15.6951 18.4497 19.648 14.604Z" fill="black"/>
<path fill-rule="evenodd" clip-rule="evenodd" d="M32.9526 14.604C33.8519 14.9193 34.7348 15.3223 35.5902 15.8162C43.0037 20.0964 45.5438 29.576 41.2635 36.9896C36.9833 44.4031 27.5037 46.9432 20.0902 42.663C19.2348 42.1691 18.4443 41.606 17.7216 40.9849C23.0286 42.4854 29.683 39.0477 33.4693 32.4896C37.2557 25.9314 36.9056 18.4497 32.9526 14.604Z" fill="black"/>
<path d="M26.5355 31.0711L31.0711 24.5355H22L26.5355 31.0711Z" fill="black"/>
</svg>
